<svg width="66" height="68" viewBox="0 0 66 68" fill="none" xmlns="http://www.w3.org/2000/svg">
<g clip-path="url(#clip0)">
<path d="M44.1042 57.502C50.1519 57.502 55.1471 52.7731 55.7912 46.7159H56.7079C57.4198 46.7159 57.9969 46.1213 57.9969 45.3878C57.9969 37.4953 51.7647 31.0742 44.1043 31.0742C43.3924 31.0742 42.8152 31.6688 42.8152 32.4023V33.3468C36.9361 34.0103 32.3463 39.1569 32.3463 45.388C32.3461 52.0676 37.6208 57.502 44.1042 57.502ZM45.3932 33.8055C50.6047 34.417 54.7523 38.6902 55.3458 44.0597H45.3932V33.8055ZM42.8151 42.1813L38.5918 37.8301C39.8027 36.8902 41.2458 36.2531 42.8151 36.0248V42.1813ZM36.7688 39.7084L43.1926 46.3267C43.4259 46.5671 43.7481 46.7158 44.1042 46.7158H53.1917C52.5629 51.3041 48.7283 54.8457 44.1042 54.8457C39.0423 54.8457 34.9242 50.6028 34.9242 45.3877C34.9242 43.2582 35.6114 41.2911 36.7688 39.7084Z" fill="#FF8680"/>
<path d="M30.6744 37.3262H22.4408C21.7288 37.3262 21.1517 37.9208 21.1517 38.6543C21.1517 39.3878 21.7288 39.9824 22.4408 39.9824H30.6744C31.3864 39.9824 31.9635 39.3878 31.9635 38.6543C31.9635 37.9208 31.3864 37.3262 30.6744 37.3262Z" fill="#FF8680"/>
<path d="M15.8669 33.6074H30.6745C31.3864 33.6074 31.9635 33.0128 31.9635 32.2793C31.9635 31.5458 31.3864 30.9512 30.6745 30.9512H15.8669C15.1549 30.9512 14.5778 31.5458 14.5778 32.2793C14.5778 33.0128 15.1549 33.6074 15.8669 33.6074Z" fill="#FF8680"/>
<path d="M10.7109 33.6074C11.05 33.6074 11.3825 33.4653 11.6223 33.2183C11.8621 32.9712 12 32.6286 12 32.2793C12 31.93 11.8621 31.5873 11.6223 31.3403C11.3825 31.0933 11.05 30.9512 10.7109 30.9512C10.3706 30.9512 10.0393 31.0933 9.79828 31.3403C9.55852 31.5873 9.42188 31.93 9.42188 32.2793C9.42188 32.6286 9.55852 32.9712 9.79828 33.2183C10.0393 33.4653 10.3706 33.6074 10.7109 33.6074Z" fill="#FF8680"/>
<path d="M9.29236 57.5023H15.4799H21.6674H27.8549C28.5668 57.5023 29.1439 56.9076 29.1439 56.1742V49.6581C29.1439 48.9247 28.5668 48.33 27.8549 48.33H22.9564V45.2619C22.9564 44.5284 22.3793 43.9338 21.6674 43.9338H16.7689V41.7324C16.7689 40.9989 16.1918 40.4043 15.4799 40.4043H9.29236C8.58041 40.4043 8.0033 40.9989 8.0033 41.7324V56.1741C8.0033 56.9076 8.58041 57.5023 9.29236 57.5023ZM26.5658 50.9863V54.8461H22.9564V50.9863H26.5658ZM20.3783 46.5902V49.6583V54.8462H16.7689V46.5903H20.3783V46.5902ZM10.5814 43.0607H14.1908V45.262V54.8461H10.5814V43.0607Z" fill="#FF8680"/>
<path d="M64.7109 12.6172H1.28906C0.577113 12.6172 0 13.2118 0 13.9453V21.3828C0 22.1163 0.577113 22.7109 1.28906 22.7109V64.4141C1.28906 66.611 3.02388 68.3984 5.15625 68.3984H31.7109V71.7856C29.9215 72.3541 28.6172 74.0736 28.6172 76.1016C28.6172 78.5915 30.5833 80.6172 33 80.6172C35.4167 80.6172 37.3828 78.5915 37.3828 76.1016C37.3828 74.0736 36.0785 72.354 34.2891 71.7856V68.3984H60.8438C62.9761 68.3984 64.7109 66.611 64.7109 64.4141V22.7109C65.4229 22.7109 66 22.1163 66 21.3828V13.9453C66 13.2118 65.4229 12.6172 64.7109 12.6172ZM33 77.9609C32.0048 77.9609 31.1953 77.1269 31.1953 76.1016C31.1953 75.0762 32.0048 74.2422 33 74.2422C33.9952 74.2422 34.8047 75.0762 34.8047 76.1016C34.8047 77.1269 33.9952 77.9609 33 77.9609ZM2.57812 15.2734H63.4219V20.0547H2.57812V15.2734ZM62.1328 64.4141C62.1328 65.1464 61.5545 65.7422 60.8438 65.7422H5.15625C4.44546 65.7422 3.86719 65.1464 3.86719 64.4141V22.7109H62.1328V64.4141Z" fill="#FF8680"/>
</g>
<defs>
<clipPath id="clip0">
</clipPath>
</defs>
</svg>
