<?xml version="1.0" encoding="utf-8"?>
<!-- Generator: Adobe Illustrator 23.0.0, SVG Export Plug-In . SVG Version: 6.00 Build 0)  -->
<svg version="1.1" id="Layer_1" xmlns="http://www.w3.org/2000/svg" xmlns:xlink="http://www.w3.org/1999/xlink" x="0px" y="0px"
	 viewBox="0 0 802 1024" style="enable-background:new 0 0 802 1024;" xml:space="preserve">
<style type="text/css">
	.st0{fill:#FF6F67;}
	.st1{fill:#FF8680;}
</style>
<g>
	<path class="st0" d="M0,486v538h663.1c90.3-108.6,140.6-319.4,138.8-530.2C701.2,410.1,624.2,399,574,403
		c-93.4,7.5-102.3,68.1-237,95c-89.8,18-178.5,9.5-226,5C65.2,498.6,27.2,491.8,0,486z"/>
	<path class="st1" d="M0,0v488c217.8,250.5,479.4-164.5,785.6,0c5.7,3,11.1,5.6,16.3,7.8C800.3,306.9,755.6,115,661.8,0
		C537.2-0.3,313.4,0,313.4,0H0z"/>
</g>
</svg>
