<svg version="1.1"
	 xmlns="http://www.w3.org/2000/svg" xmlns:xlink="http://www.w3.org/1999/xlink">
	<defs>
		<symbol viewBox="0 0 50 50" id="object-double-arrow">
			<path
				d="M49.4832 23.8475L25.3619 0.501341C25.0176 0.167582 24.6206 0 24.1719 0C23.7238 0 23.3273 0.167582 22.9823 0.501341L20.3939 3.00629C20.0489 3.34022 19.8767 3.72382 19.8767 4.15865C19.8767 4.59349 20.0489 4.97708 20.3939 5.31102L40.7363 25.0004L20.3941 44.6902C20.0491 45.0241 19.8769 45.4084 19.8769 45.842C19.8769 46.2767 20.0491 46.661 20.3941 46.9949L22.9824 49.4992C23.3273 49.8335 23.7238 50 24.1721 50C24.6213 50 25.0178 49.8331 25.3619 49.4992L49.4832 26.1529C49.828 25.8191 50.0001 25.4347 50.0001 25.0005C50.0001 24.5664 49.828 24.1821 49.4832 23.8475Z"/>
			<path
				d="M30.1241 25.0005C30.1241 24.5664 29.9524 24.1819 29.6061 23.8475L5.48648 0.501341C5.14166 0.167582 4.74463 0 4.29611 0C3.84759 0 3.45038 0.167582 3.10556 0.501341L0.517774 3.00646C0.172229 3.3404 0 3.72399 0 4.15883C0 4.59366 0.172229 4.97726 0.517774 5.31119L20.8596 25.0005L0.517774 44.6902C0.172229 45.0241 0 45.4084 0 45.842C0 46.2767 0.172229 46.661 0.517774 46.9949L3.10538 49.4992C3.45038 49.8335 3.84741 50 4.29593 50C4.74445 50 5.14148 49.8331 5.48648 49.4992L29.6061 26.1529C29.9524 25.8191 30.1241 25.4347 30.1241 25.0005Z"/>
		</symbol>
		<symbol viewBox="0 0 68 55" id="icon-campaign" preserveAspectRatio="xMidYMid meet">
			<path
				d="M65.0631 25.6963H59.1723C58.0879 25.6963 57.2087 26.6196 57.2087 27.7586C57.2087 28.8975 58.0879 29.8209 59.1723 29.8209H65.0631C66.1476 29.8209 67.0267 28.8975 67.0267 27.7586C67.0267 26.6196 66.1476 25.6963 65.0631 25.6963Z"/>
			<path
				d="M62.5245 38.6741L58.5973 34.5495C57.8306 33.7442 56.5872 33.7442 55.8204 34.5495C55.0534 35.3547 55.0534 36.6606 55.8204 37.466L59.7475 41.5905C60.5143 42.3959 61.7577 42.3959 62.5245 41.5905C63.2913 40.7851 63.2913 39.4794 62.5245 38.6741Z"/>
			<path
				d="M62.5244 13.9267C61.7576 13.1214 60.5143 13.1214 59.7475 13.9267L55.8203 18.0513C55.0534 18.8566 55.0534 20.1623 55.8203 20.9677C56.5871 21.7731 57.8305 21.773 58.5972 20.9677L62.5244 16.8432C63.2912 16.0378 63.2912 14.7321 62.5244 13.9267Z"/>
			<path
				d="M45.4272 0.948975C42.4778 0.948975 40.028 3.23742 39.6023 6.21247L37.8111 8.09368C34.6936 11.3679 30.1024 13.3227 25.5295 13.3227H13.7479C11.188 13.3227 9.00539 15.0469 8.19481 17.4472H7.85708C3.52617 17.4472 0.00268555 21.1478 0.00268555 25.6963C0.00268555 30.2449 3.52617 33.9455 7.85708 33.9455H8.19481C8.78743 35.7003 10.1134 37.0929 11.7843 37.7153V48.3814C11.7843 51.7929 14.427 54.5683 17.6752 54.5683C20.9232 54.5683 23.5659 51.7929 23.5659 48.3814V38.07H25.5295C30.1023 38.07 34.6934 40.0248 37.8111 43.299L39.6023 45.1802C40.028 48.1551 42.4779 50.4437 45.4274 50.4437C48.6754 50.4437 51.318 47.6683 51.318 44.2569V7.13582C51.318 3.72439 48.6754 0.948975 45.4272 0.948975ZM7.85708 29.8209C5.69162 29.8209 3.92988 27.9706 3.92988 25.6963C3.92988 23.4221 5.69162 21.5718 7.85708 21.5718V29.8209ZM19.6387 48.3814C19.6387 49.5186 18.7578 50.4437 17.6751 50.4437C16.5923 50.4437 15.7115 49.5186 15.7115 48.3814V38.07H19.6387V48.3814ZM23.5659 33.9455H13.7479C12.6651 33.9455 11.7843 33.0203 11.7843 31.8832V19.5095C11.7843 18.3724 12.6651 17.4472 13.7479 17.4472H23.5659V33.9455ZM39.5364 39.355C36.2192 36.3396 31.9541 34.4661 27.48 34.039L27.4801 17.3536C31.9541 16.9266 36.2192 15.0531 39.5364 12.0376V39.355ZM47.3908 44.2569C47.3908 45.394 46.51 46.3192 45.4274 46.3192H45.4272C44.3445 46.3192 43.4636 45.394 43.4636 44.2569V7.13582C43.4636 5.99868 44.3445 5.07354 45.4274 5.07354C46.51 5.07354 47.3908 5.99868 47.3908 7.13582V44.2569Z"/>
		</symbol>
		<symbol viewBox="0 0 68 68" id="icon-channel" preserveAspectRatio="xMidYMid meet">
			<path
				d="M33.4139 30.5714C32.8659 30.4207 32.3043 30.3385 31.7152 30.3385C28.1945 30.3385 25.3313 33.2022 25.3313 36.7237C25.3313 40.2452 28.1945 43.1089 31.7152 43.1089C35.2359 43.1089 38.0991 40.2452 38.0991 36.7237C38.0991 36.1345 38.0169 35.559 37.8662 35.0246L55.648 17.2392L58.5248 17.6229L67.5253 8.62057L60.7167 7.71622L59.8126 0.90625L50.8121 9.90857L51.1957 12.786L33.4139 30.5714Z"/>
			<path
				d="M32.4003 24.4603L37.6609 19.1987C31.2085 17.0063 23.7697 18.4862 18.6324 23.6382C11.4129 30.8592 11.4129 42.5883 18.6324 49.8093C25.852 57.0304 37.5787 57.0304 44.7982 49.8093C49.9492 44.6573 51.4287 37.2307 49.2368 30.7633L43.9763 36.0249C44.1681 39.3957 42.9762 42.8349 40.4007 45.4109C35.606 50.2067 27.8247 50.2067 23.0299 45.4109C18.2352 40.6152 18.2352 32.8323 23.0299 28.0366C25.6054 25.4606 29.0303 24.2685 32.4003 24.4603Z"/>
			<path
				d="M53.7712 26.2415C58.0865 35.3124 56.4837 46.4796 48.9764 53.9884C39.4417 63.5251 23.9888 63.5251 14.454 53.9884C4.91926 44.4517 4.91926 28.9957 14.454 19.459C21.9613 11.9502 33.1263 10.3607 42.1952 14.6632L47.2229 9.63451C35.3044 2.79713 19.8242 4.46879 9.64555 14.6495C-2.54689 26.8444 -2.54689 46.6029 9.64555 58.7842C21.838 70.9791 41.5925 70.9791 53.7712 58.7842C63.9498 48.6035 65.6211 33.12 58.7852 21.1991L53.7712 26.2415Z"/>
		</symbol>
		<symbol viewBox="0 0 55 68" id="icon-lead" preserveAspectRatio="xMidYMid meet">
			<path
				d="M53.3011 60.4586C53.8664 60.4586 54.3244 60.019 54.3244 59.4768V12.999C54.3244 12.4568 53.8664 12.0172 53.3011 12.0172H50.2313V7.43546C50.2313 6.89325 49.7733 6.45366 49.208 6.45366H46.138V1.87194C46.138 1.32972 45.6799 0.890137 45.1147 0.890137H1.72835C1.16309 0.890137 0.705078 1.32972 0.705078 1.87194V5.06252C0.705078 5.60473 1.16309 6.04432 1.72835 6.04432C2.2936 6.04432 2.75162 5.60473 2.75162 5.06252V2.85373H44.0914V54.8236H2.75162V9.33361C2.75162 8.79139 2.2936 8.35181 1.72835 8.35181C1.16309 8.35181 0.705078 8.79139 0.705078 9.33361V55.8054C0.705078 56.3476 1.16309 56.7872 1.72835 56.7872H4.79843V61.3689C4.79843 61.9112 5.25644 62.3507 5.8217 62.3507H8.8915V66.9325C8.8915 67.4747 9.34952 67.9143 9.91477 67.9143H53.3011C53.8664 67.9143 54.3244 67.4747 54.3244 66.9325V63.6872C54.3244 63.145 53.8664 62.7054 53.3011 62.7054C52.7359 62.7054 52.2778 63.145 52.2778 63.6872V65.9507H10.938V62.3507H15.6036C16.1689 62.3507 16.6269 61.9112 16.6269 61.3689C16.6269 60.8267 16.1689 60.3871 15.6036 60.3871H6.84497V56.7872H45.1147C45.6799 56.7872 46.138 56.3476 46.138 55.8054V8.41726H48.1848V60.3871H20.0076C19.4424 60.3871 18.9844 60.8267 18.9844 61.3689C18.9844 61.9112 19.4424 62.3507 20.0076 62.3507H49.208C49.7733 62.3507 50.2313 61.9112 50.2313 61.3689V13.9808H52.2778V59.4768C52.2778 60.019 52.7359 60.4586 53.3011 60.4586Z"/>
			<path
				d="M37.9312 17.188V9.33361C37.9312 8.79139 37.4731 8.35181 36.9079 8.35181H9.88948C9.32423 8.35181 8.86621 8.79139 8.86621 9.33361V17.188C8.86621 17.7302 9.32423 18.1698 9.88948 18.1698H36.9077C37.473 18.1698 37.9312 17.7302 37.9312 17.188ZM35.8846 16.2062H10.9127V10.3154H35.8845V16.2062H35.8846Z"/>
			<path
				d="M8.32251 42.1256C8.32251 42.6678 8.78053 43.1074 9.34578 43.1074H36.9057C37.4709 43.1074 37.929 42.6678 37.929 42.1256C37.929 41.5834 37.4709 41.1438 36.9057 41.1438H9.34578C8.78053 41.1438 8.32251 41.5834 8.32251 42.1256Z"/>
			<path
				d="M9.34578 47.2966H36.9057C37.4709 47.2966 37.929 46.857 37.929 46.3148C37.929 45.7726 37.4709 45.333 36.9057 45.333H9.34578C8.78053 45.333 8.32251 45.7726 8.32251 46.3148C8.32251 46.857 8.78053 47.2966 9.34578 47.2966Z"/>
			<path
				d="M15.4172 35.973C15.4172 36.5152 15.8753 36.9548 16.4405 36.9548C17.0058 36.9548 17.4638 36.5152 17.4638 35.973C17.4638 32.9775 20.0038 30.5404 23.1259 30.5404C26.2479 30.5404 28.788 32.9775 28.788 35.973C28.788 36.5152 29.246 36.9548 29.8112 36.9548C30.3765 36.9548 30.8345 36.5152 30.8345 35.973C30.8345 33.053 29.0614 30.5234 26.4943 29.3217C27.5645 28.4213 28.2422 27.1012 28.2422 25.6314C28.2422 22.9245 25.9471 20.7224 23.1259 20.7224C20.3046 20.7224 18.0095 22.9245 18.0095 25.6314C18.0095 27.1012 18.6872 28.4213 19.7574 29.3217C17.1904 30.5234 15.4172 33.053 15.4172 35.973ZM20.0561 25.6314C20.0561 24.0072 21.4332 22.686 23.1259 22.686C24.8185 22.686 26.1957 24.0072 26.1957 25.6314C26.1957 27.2556 24.8185 28.5768 23.1259 28.5768C21.4332 28.5768 20.0561 27.2556 20.0561 25.6314Z"/>
		</symbol>
		<symbol viewBox="0 0 65 68" id="icon-product" preserveAspectRatio="xMidYMid meet">
			<path
				d="M63.3686 13.6734L33.0895 1.0408C32.8507 0.941428 32.593 0.890137 32.3325 0.890137C32.072 0.890137 31.8143 0.941428 31.5755 1.0408L1.29636 13.6734C0.959024 13.8138 0.671942 14.045 0.470267 14.3386C0.268593 14.6322 0.161078 14.9755 0.160889 15.3265V51.4197C0.160889 51.7525 0.257402 52.0788 0.439756 52.3626C0.622109 52.6464 0.883199 52.8765 1.19416 53.0276L31.4733 67.7176C31.7394 67.8469 32.0338 67.9143 32.3325 67.9143C32.6274 67.9138 32.9182 67.8483 33.1822 67.723L63.4613 53.2135C63.7749 53.0632 64.0385 52.8328 64.2226 52.5479C64.4068 52.263 64.5042 51.9348 64.5041 51.6001V15.3265C64.5039 14.9755 64.3963 14.6322 64.1947 14.3386C63.993 14.045 63.7059 13.8138 63.3686 13.6734ZM32.3325 4.66275L57.89 15.3265L32.3325 25.9902L25.69 23.2183L35.7975 19.0008C36.1345 18.8601 36.4211 18.6288 36.6223 18.3352C36.8236 18.0416 36.9308 17.6985 36.9308 17.3477C36.9308 16.997 36.8236 16.6538 36.6223 16.3602C36.4211 16.0666 36.1345 15.8354 35.7975 15.6946L27.6771 12.3181C27.4383 12.2187 27.1806 12.1675 26.9201 12.1675C26.6596 12.1675 26.4019 12.2187 26.1631 12.3181L12.8573 17.8638L6.78445 15.3265L32.3325 4.66275ZM15.3005 22.823L19.0853 24.4021V32.2578L15.3005 30.4531V22.823ZM17.5714 19.8345L26.9125 15.9419L30.3 17.3513L20.9778 21.2476L17.5714 19.8345ZM3.94578 18.0858L11.5156 21.244V31.5684C11.5154 31.9038 11.6132 32.2326 11.7981 32.5179C11.9829 32.8032 12.2475 33.0337 12.5621 33.1836L20.1319 36.7929C20.4205 36.9304 20.7411 36.9953 21.0634 36.9814C21.3857 36.9675 21.6989 36.8752 21.9733 36.7134C22.2477 36.5515 22.4741 36.3255 22.6311 36.0567C22.7881 35.788 22.8704 35.4854 22.8702 35.1777V25.974L30.44 29.1321V63.1662L3.94578 50.3134V18.0858ZM34.2249 63.1825V29.1393L60.7192 18.0858V50.4867L34.2249 63.1825Z"/>
			<path
				d="M44.7431 50.0355L37.1601 53.6701C36.7116 53.8855 36.3712 54.2619 36.2138 54.7166C36.0564 55.1713 36.0949 55.667 36.3207 56.0946C36.5466 56.5223 36.9414 56.8469 37.4182 56.997C37.895 57.1471 38.4148 57.1104 38.8633 56.895L46.4463 53.2604C46.8947 53.045 47.2351 52.6686 47.3925 52.2139C47.5499 51.7592 47.5114 51.2635 47.2856 50.8359C47.0597 50.4082 46.665 50.0836 46.1882 49.9335C45.7113 49.7834 45.1915 49.8201 44.7431 50.0355Z"/>
			<path
				d="M38.0102 49.8677C38.3046 49.8677 38.5949 49.8022 38.858 49.6764L46.3332 46.0942C46.7816 45.8788 47.122 45.5023 47.2794 45.0476C47.4368 44.5929 47.3983 44.0972 47.1725 43.6696C46.9466 43.2419 46.5519 42.9174 46.0751 42.7673C45.5982 42.6172 45.0784 42.6538 44.63 42.8692L37.1567 46.4515C36.7763 46.6343 36.4718 46.9341 36.2922 47.3025C36.1127 47.6708 36.0688 48.0862 36.1675 48.4813C36.2662 48.8764 36.5018 49.2282 36.8362 49.4798C37.1706 49.7314 37.5843 49.8681 38.0102 49.8677Z"/>
		</symbol>
		<symbol viewBox="0 0 14 14" id="icon-filter">
			<path d="M13.4525 0H0.546876C0.244813 0 0 0.244813 0 0.546876C0 2.0698 0.652834 3.52372 1.79113 4.53555L4.18617 6.66431C4.60145 7.03345 4.83964 7.56388 4.83964 8.11962V13.4525C4.83964 13.8883 5.3267 14.1496 5.68976 13.9074L8.91622 11.7566C9.06832 11.6551 9.15975 11.4844 9.15975 11.3015V8.11962C9.15975 7.56388 9.39794 7.03345 9.81323 6.66431L12.2082 4.53555C13.3465 3.52372 13.9993 2.0698 13.9993 0.546876C13.9993 0.244813 13.7545 0 13.4525 0ZM11.4815 3.71801L9.08659 5.84688C8.43802 6.42345 8.066 7.25177 8.066 8.11951V11.0089L5.93329 12.4306V8.11962C5.93329 7.25177 5.56126 6.42345 4.9127 5.84688L2.51777 3.71812C1.75022 3.0357 1.26027 2.10067 1.12911 1.09365H12.8702C12.739 2.10067 12.2492 3.0357 11.4815 3.71801Z"/>
		</symbol>
		<symbol viewBox="0 0 14 14" id="icon-search">
			<path d="M13.689 12.166L10.8031 9.28025C11.4986 8.27631 11.8465 7.15711 11.8465 5.92325C11.8465 5.12117 11.6908 4.35407 11.3793 3.62213C11.0681 2.89006 10.6474 2.25908 10.1173 1.72902C9.58728 1.19897 8.95639 0.778241 8.22447 0.466992C7.49232 0.155654 6.72528 0 5.92319 0C5.12117 0 4.35407 0.155654 3.62213 0.466992C2.89006 0.778241 2.25908 1.19897 1.72902 1.72902C1.19891 2.25908 0.778241 2.89018 0.466962 3.62213C0.155654 4.35416 0 5.12117 0 5.92325C0 6.72528 0.155654 7.49211 0.466962 8.22427C0.778211 8.95621 1.19891 9.58711 1.72902 10.1172C2.25908 10.6474 2.89018 11.0679 3.62213 11.3794C4.35416 11.6906 5.12117 11.8463 5.92319 11.8463C7.15732 11.8463 8.27633 11.4983 9.28034 10.8029L12.1662 13.6803C12.3681 13.8934 12.6202 14 12.9233 14C13.215 14 13.4675 13.8934 13.6805 13.6803C13.8936 13.4672 14.0002 13.2148 14.0002 12.9232C14.0003 12.626 13.8965 12.3735 13.689 12.166ZM8.58611 8.58588C7.84854 9.32357 6.96097 9.6924 5.92319 9.6924C4.8856 9.6924 3.99803 9.32348 3.2604 8.58588C2.52276 7.8483 2.15396 6.96085 2.15396 5.92308C2.15396 4.88548 2.52285 3.99776 3.2604 3.26028C3.99788 2.52262 4.8856 2.15384 5.92319 2.15384C6.96085 2.15384 7.84842 2.52276 8.58611 3.26028C9.3238 3.99776 9.69261 4.88548 9.69261 5.92308C9.69261 6.96085 9.32369 7.8483 8.58611 8.58588Z"/>
		</symbol>
		<symbol viewBox="0 0 20 12" id="icon-arrow-block">
			<path d="M19.6287 0.745963C19.3815 0.49853 19.0885 0.374916 18.7498 0.374916H1.25009C0.911336 0.374916 0.61848 0.49853 0.371047 0.745963C0.123614 0.99367 0 1.28653 0 1.62508C0 1.96356 0.123614 2.25642 0.371047 2.50392L9.12095 11.2538C9.36866 11.5013 9.66152 11.6251 10 11.6251C10.3385 11.6251 10.6316 11.5013 10.8788 11.2538L19.6287 2.50385C19.8759 2.25642 20 1.96356 20 1.62501C20 1.28653 19.8759 0.99367 19.6287 0.745963Z"/>
		</symbol>
		<symbol viewBox="0 0 50 50" id="icon-information">
			<path d="M25 0C11.2154 0 0 11.2146 0 25C0 38.7854 11.2154 50 25 50C38.7846 50 50 38.7854 50 25C50 11.2146 38.7846 0 25 0ZM25 46.9231C12.9115 46.9231 3.07692 37.0885 3.07692 25C3.07692 12.9115 12.9115 3.07692 25 3.07692C37.0885 3.07692 46.9231 12.9115 46.9231 25C46.9231 37.0885 37.0885 46.9231 25 46.9231Z"/>
			<path d="M25 0C11.2154 0 0 11.2146 0 25C0 38.7854 11.2154 50 25 50C38.7846 50 50 38.7854 50 25C50 11.2146 38.7846 0 25 0ZM25 46.9231C12.9115 46.9231 3.07692 37.0885 3.07692 25C3.07692 12.9115 12.9115 3.07692 25 3.07692C37.0885 3.07692 46.9231 12.9115 46.9231 25C46.9231 37.0885 37.0885 46.9231 25 46.9231Z"/>
			<path d="M25.3983 17.6047C26.8193 17.6047 27.9713 16.4526 27.9713 15.0316C27.9713 13.6105 26.8193 12.4585 25.3983 12.4585C23.9772 12.4585 22.8252 13.6105 22.8252 15.0316C22.8252 16.4526 23.9772 17.6047 25.3983 17.6047Z"/>
			<path d="M25.3983 17.6047C26.8193 17.6047 27.9713 16.4526 27.9713 15.0316C27.9713 13.6105 26.8193 12.4585 25.3983 12.4585C23.9772 12.4585 22.8252 13.6105 22.8252 15.0316C22.8252 16.4526 23.9772 17.6047 25.3983 17.6047Z"/>
			<path d="M24.7206 21.8015C23.8714 21.8015 23.1821 22.4907 23.1821 23.34V36.4169C23.1821 37.2661 23.8714 37.9554 24.7206 37.9554C25.5698 37.9554 26.2591 37.2661 26.2591 36.4169V23.34C26.2591 22.49 25.5698 21.8015 24.7206 21.8015Z"/>
			<path d="M24.7206 21.8015C23.8714 21.8015 23.1821 22.4907 23.1821 23.34V36.4169C23.1821 37.2661 23.8714 37.9554 24.7206 37.9554C25.5698 37.9554 26.2591 37.2661 26.2591 36.4169V23.34C26.2591 22.49 25.5698 21.8015 24.7206 21.8015Z"/>
		</symbol >
		<symbol viewBox="0 0 726 450" id="icon-image">
			<path d="M497,0H15C6.716,0,0,6.716,0,15v433.801V497c0,8.284,6.716,15,15,15h482c8.285,0,15-6.716,15-15v-48.199V15
			C512,6.716,505.285,0,497,0z M482,407.37l-93.977-112.772c-2.573-3.089-6.279-5.015-10.285-5.347
			c-4.008-0.333-7.979,0.959-11.025,3.582l-73.677,63.436L163.154,198.275c-3.139-3.818-7.961-5.844-12.879-5.419
			c-4.924,0.426-9.322,3.249-11.759,7.55L30,391.905V30h452V407.37z"/>
			<path d="M352.4,96.4c-34.848,0-63.199,28.352-63.199,63.2c0,34.848,28.352,63.201,63.199,63.201
			c34.849,0,63.199-28.352,63.199-63.2C415.599,124.753,387.249,96.4,352.4,96.4z"/>
		</symbol>

		<symbol viewBox="0 0 526 300" id="icon-tutorial">
			<!-- <svg height="512pt" viewBox="0 -56 512 512" width="512pt" xmlns="http://www.w3.org/2000/svg"> -->
<path d="m482 0h-452c-16.539062 0-30 13.460938-30 30v260c0 16.539062 13.460938 30 30 30h191v20h-101c-11.03125 0-20 8.96875-20 20v20c0 11.03125 8.96875 20 20 20h272c11.03125 0 20-8.96875 20-20v-20c0-11.03125-8.96875-20-20-20h-101v-20h191c16.539062 0 30-13.460938 30-30v-260c0-16.539062-13.460938-30-30-30zm-241 320h30v20h-30zm151 40 .011719 20s0 0-.011719 0h-272v-20zm100-70c0 5.519531-4.488281 10-10 10h-452c-5.511719 0-10-4.480469-10-10v-260c0-5.511719 4.488281-10 10-10h452c5.511719 0 10 4.488281 10 10zm0 0"/>
<path d="m226.5 205c-1.707031 0-3.414062-.4375-4.949219-1.3125-3.121093-1.777344-5.050781-5.09375-5.050781-8.6875v-70c0-3.59375 1.929688-6.910156 5.050781-8.6875 3.121094-1.78125 6.960938-1.746094 10.050781.085938l59 35c3.035157 1.804687 4.898438 5.070312 4.898438 8.601562s-1.863281 6.800781-4.898438 8.601562l-59 35c-1.570312.929688-3.335937 1.398438-5.101562 1.398438zm10-62.441406v34.882812l29.398438-17.441406zm0 0"/>
<path d="m441 51h-370c-11.03125 0-20 8.96875-20 20v178c0 11.03125 8.96875 20 20 20h370c11.03125 0 20-8.96875 20-20v-178c0-11.03125-8.96875-20-20-20zm0 198h-370v-29.25h70c5.519531 0 10-4.480469 10-10s-4.480469-10-10-10h-70v-128.75h370zm0 0"/>
<path d="m181.019531 219.75c-5.523437 0-10.003906-4.476562-10.003906-10s4.472656-10 9.996094-10h.007812c5.523438 0 10 4.476562 10 10s-4.476562 10-10 10zm0 0"/>
<!-- </svg> -->
		</symbol>

		<symbol viewBox="0 0 47 50" id="icon-status">
			<path d="M34.9996 30.8333C34.9996 30.3733 34.6263 30 34.1663 30H29.1663C28.7063 30 28.333 30.3733 28.333 30.8333C28.333 31.2933 28.7063 31.6666 29.1663 31.6666H34.1663C34.6263 31.6667 34.9996 31.2934 34.9996 30.8333Z"/>
			<path d="M31.6666 9.16674V5.00005C31.6666 4.54009 31.2933 4.16675 30.8333 4.16675C30.3733 4.16675 30 4.54009 30 5.00005V9.16674C30 11.4642 31.8691 13.3334 34.1667 13.3334H41.6667V29.1667C41.6667 29.6267 42.04 30 42.5 30C42.9599 30 43.3333 29.6267 43.3333 29.1667V12.5C43.3333 12.0401 42.9599 11.6667 42.5 11.6667H34.1667C32.7883 11.6667 31.6666 10.5451 31.6666 9.16674Z"/>
			<path d="M34.1665 20H27.4998C27.0398 20 26.6665 20.3733 26.6665 20.8333C26.6665 21.2933 27.0398 21.6666 27.4998 21.6666H34.1665C34.6264 21.6666 34.9998 21.2933 34.9998 20.8333C34.9999 20.3733 34.6265 20 34.1665 20Z"/>
			<path d="M25.0001 20.8333C25.0001 20.3733 24.6267 20 24.1668 20H19.1668C18.7068 20 18.3335 20.3733 18.3335 20.8333C18.3335 21.2933 18.7068 21.6666 19.1668 21.6666H24.1668C24.6267 21.6667 25.0001 21.2934 25.0001 20.8333Z"/>
			<path d="M19.1668 25C18.7068 25 18.3335 25.3733 18.3335 25.8333C18.3335 26.2933 18.7068 26.6666 19.1668 26.6666H20.8335C21.2935 26.6666 21.6668 26.2933 21.6668 25.8333C21.6668 25.3733 21.2935 25 20.8335 25H19.1668Z"/>
			<path d="M19.1668 16.6666H27.5001C27.96 16.6666 28.3334 16.2933 28.3334 15.8333C28.3334 15.3733 27.96 15 27.5001 15H19.1668C18.7068 15 18.3335 15.3733 18.3335 15.8333C18.3335 16.2933 18.7068 16.6666 19.1668 16.6666Z"/>
			<path d="M24.1668 26.6666H32.5001C32.96 26.6666 33.3334 26.2933 33.3334 25.8333C33.3334 25.3733 32.96 25 32.5001 25H24.1668C23.7068 25 23.3335 25.3733 23.3335 25.8333C23.3335 26.2933 23.7068 26.6666 24.1668 26.6666Z"/>
			<path d="M29.1663 35C28.7063 35 28.333 35.3733 28.333 35.8333C28.333 36.2933 28.7063 36.6666 29.1663 36.6666H30.833C31.293 36.6666 31.6663 36.2933 31.6663 35.8333C31.6663 35.3733 31.293 35 30.833 35H29.1663Z"/>
			<path d="M25.8335 30H19.1668C18.7068 30 18.3335 30.3733 18.3335 30.8333C18.3335 31.2933 18.7068 31.6666 19.1668 31.6666H25.8335C26.2934 31.6666 26.6668 31.2933 26.6668 30.8333C26.6668 30.3733 26.2934 30 25.8335 30Z"/>
			<path d="M25.8335 35H19.1668C18.7068 35 18.3335 35.3733 18.3335 35.8333C18.3335 36.2933 18.7068 36.6666 19.1668 36.6666H25.8335C26.2934 36.6666 26.6668 36.2933 26.6668 35.8333C26.6668 35.3733 26.2934 35 25.8335 35Z"/>
			<path d="M45.6738 34.3259L44.0071 32.6592C42.7262 31.3783 40.7746 31.3808 39.4955 32.6592L28.5771 43.5775C28.4213 43.7334 28.333 43.9459 28.333 44.1667V49.1666C28.333 49.6266 28.7063 49.9999 29.1663 49.9999H34.1663C34.3871 49.9999 34.5996 49.9117 34.7555 49.7558L45.6738 38.8375C47.0013 37.5099 47.0013 35.6542 45.6738 34.3259ZM38.418 36.0933L39.7396 37.415L32.4996 44.655L31.1779 43.3334L38.418 36.0933ZM29.9997 48.3332V44.5116L33.8214 48.3332H29.9997ZM34.9997 47.1549L33.678 45.8333L40.918 38.5932L42.2397 39.9149L34.9997 47.1549ZM44.4955 37.6591L43.4179 38.7367L39.5963 34.915L40.6738 33.8375C41.3321 33.18 42.1672 33.1766 42.8288 33.8375L44.4955 35.5042C45.1696 36.1792 45.1696 36.9849 44.4955 37.6591Z"/>
			<path d="M25.8333 48.3332H4.16659C2.78828 48.3332 1.6666 47.2115 1.6666 45.8332V4.16669C1.6666 2.78837 2.78828 1.6667 4.16659 1.6667H30.4882L38.5774 9.75584C38.9031 10.0817 39.4299 10.0817 39.7557 9.75584C40.0816 9.43006 40.0816 8.9033 39.7557 8.57752L31.4224 0.24414C31.2665 0.0874998 31.054 0 30.8332 0H4.16659C1.86914 0 0 1.86914 0 4.16669V45.8333C0 48.1308 1.86914 50 4.16669 50H25.8333C26.2933 50 26.6666 49.6267 26.6666 49.1667C26.6666 48.7067 26.2932 48.3332 25.8333 48.3332Z"/>
			<path d="M25.8335 40H19.1668C18.7068 40 18.3335 40.3733 18.3335 40.8333C18.3335 41.2933 18.7068 41.6666 19.1668 41.6666H25.8335C26.2934 41.6666 26.6668 41.2933 26.6668 40.8333C26.6668 40.3733 26.2934 40 25.8335 40Z"/>
			<path d="M15.0001 15.8333C15.0001 15.3733 14.6267 15 14.1668 15H9.1668C8.70683 15 8.3335 15.3733 8.3335 15.8333V20.8333C8.3335 21.2932 8.70683 21.6666 9.1668 21.6666H14.1668C14.6267 21.6666 15.0001 21.2932 15.0001 20.8333V15.8333ZM13.3334 20H10.0001V16.6667H13.3334V20Z"/>
			<path d="M9.16631 41.6666H14.1663C14.6263 41.6666 14.9996 41.2933 14.9996 40.8333V35.8333C14.9996 35.3733 14.6263 35 14.1663 35H9.16631C8.70635 35 8.33301 35.3733 8.33301 35.8333V40.8333C8.33301 41.2933 8.70635 41.6666 9.16631 41.6666ZM9.9997 36.6666H13.333V39.9999H9.9997V36.6666Z"/>
			<path d="M10.2441 31.4224C10.4007 31.579 10.6132 31.6665 10.8332 31.6665C10.8608 31.6665 10.8874 31.6657 10.9158 31.6623C11.1641 31.6382 11.3882 31.5031 11.5266 31.2956L14.8599 26.2956C15.1149 25.9123 15.0115 25.3948 14.629 25.1398C14.2448 24.8839 13.729 24.9881 13.4732 25.3706L10.704 29.5248L9.7557 28.5774C9.42992 28.2515 8.90316 28.2515 8.57738 28.5774C8.2516 28.9032 8.2515 29.4299 8.57738 29.7557L10.2441 31.4224Z"/>
		</symbol>

		<symbol viewBox="0 0 50 50" id="icon-customer-1">
			<path d="M48.8185 23.0045C48.07 22.314 47.0519 21.8875 46.025 21.8341C44.8588 21.7738 43.7663 22.1896 42.9526 23.0037L37.3931 28.5049C37.2832 28.3145 37.1577 28.1349 37.0169 27.9681C36.333 27.156 35.3327 26.7089 34.2009 26.7089H26.4182C24.9507 26.7089 23.519 26.5186 22.1633 26.1436C18.6286 25.1659 15.2518 25.88 12.3972 28.21C11.2364 29.1576 10.3896 30.1883 9.85398 30.9398L8.45857 29.5856C8.27508 29.4074 8.02636 29.3063 7.77039 29.3063C7.76811 29.3063 7.7662 29.3063 7.76391 29.3063C7.49879 29.3083 7.24244 29.4185 7.05857 29.6092L0.274894 36.6515C0.093314 36.84 -0.00548666 37.0933 0.000235386 37.355C0.00595743 37.617 0.115439 37.8658 0.30503 38.0462L11.7785 48.9711C11.9689 49.1523 12.213 49.2427 12.4568 49.2427C12.7127 49.2427 12.9687 49.1432 13.1613 48.9456L19.8817 42.0509C20.0652 41.8624 20.167 41.6049 20.1621 41.3417C20.1571 41.0823 20.0484 40.8321 19.8622 40.6513L19.2771 40.0836L20.6164 39.933C21.4266 39.8387 22.2506 39.791 23.0662 39.791H34.9074C36.8315 39.791 38.4657 39.3703 39.765 38.5402C39.7757 38.5333 39.7864 38.5261 39.7971 38.5188C40.2625 38.1954 40.6848 37.812 41.0517 37.3798L49.0313 27.9922C50.397 26.3858 50.3115 24.3812 48.8185 23.0045ZM12.4312 46.8765L2.37794 37.3039L7.79366 31.6814L17.7882 41.3802L12.4312 46.8765ZM47.5325 26.7181L39.5529 36.106C39.2996 36.404 39.0093 36.6687 38.6893 36.893C37.7139 37.5106 36.4417 37.8242 34.9074 37.8242H23.0658C22.1751 37.8242 21.2744 37.8764 20.3929 37.9791L17.4487 38.3094L11.2841 32.3272C11.7125 31.6921 12.5002 30.6655 13.6412 29.734C16.0132 27.7976 18.7041 27.2273 21.6387 28.0395C23.1654 28.4618 24.7733 28.6762 26.4182 28.6762H34.2009C35.5986 28.6762 35.9717 29.8869 35.9717 30.6022C35.9717 31.1248 35.8039 31.6222 35.5113 31.9671C35.1939 32.3406 34.7426 32.5298 34.17 32.5298H27.3951C26.8519 32.5298 26.4117 32.9704 26.4117 33.5136C26.4117 34.0568 26.8519 34.497 27.3951 34.497H34.17C35.3137 34.497 36.3223 34.0507 37.0104 33.2404C37.583 32.5668 37.9096 31.681 37.937 30.7342L44.34 24.3984C45.2551 23.4832 46.6849 23.7129 47.4848 24.4506C47.8984 24.8321 48.4545 25.6336 47.5325 26.7181Z"/>
			<path d="M48.8185 23.0045C48.07 22.314 47.0519 21.8875 46.025 21.8341C44.8588 21.7738 43.7663 22.1896 42.9526 23.0037L37.3931 28.5049C37.2832 28.3145 37.1577 28.1349 37.0169 27.9681C36.333 27.156 35.3327 26.7089 34.2009 26.7089H26.4182C24.9507 26.7089 23.519 26.5186 22.1633 26.1436C18.6286 25.1659 15.2518 25.88 12.3972 28.21C11.2364 29.1576 10.3896 30.1883 9.85398 30.9398L8.45857 29.5856C8.27508 29.4074 8.02636 29.3063 7.77039 29.3063C7.76811 29.3063 7.7662 29.3063 7.76391 29.3063C7.49879 29.3083 7.24244 29.4185 7.05857 29.6092L0.274894 36.6515C0.093314 36.84 -0.00548666 37.0933 0.000235386 37.355C0.00595743 37.617 0.115439 37.8658 0.30503 38.0462L11.7785 48.9711C11.9689 49.1523 12.213 49.2427 12.4568 49.2427C12.7127 49.2427 12.9687 49.1432 13.1613 48.9456L19.8817 42.0509C20.0652 41.8624 20.167 41.6049 20.1621 41.3417C20.1571 41.0823 20.0484 40.8321 19.8622 40.6513L19.2771 40.0836L20.6164 39.933C21.4266 39.8387 22.2506 39.791 23.0662 39.791H34.9074C36.8315 39.791 38.4657 39.3703 39.765 38.5402C39.7757 38.5333 39.7864 38.5261 39.7971 38.5188C40.2625 38.1954 40.6848 37.812 41.0517 37.3798L49.0313 27.9922C50.397 26.3858 50.3115 24.3812 48.8185 23.0045ZM12.4312 46.8765L2.37794 37.3039L7.79366 31.6814L17.7882 41.3802L12.4312 46.8765ZM47.5325 26.7181L39.5529 36.106C39.2996 36.404 39.0093 36.6687 38.6893 36.893C37.7139 37.5106 36.4417 37.8242 34.9074 37.8242H23.0658C22.1751 37.8242 21.2744 37.8764 20.3929 37.9791L17.4487 38.3094L11.2841 32.3272C11.7125 31.6921 12.5002 30.6655 13.6412 29.734C16.0132 27.7976 18.7041 27.2273 21.6387 28.0395C23.1654 28.4618 24.7733 28.6762 26.4182 28.6762H34.2009C35.5986 28.6762 35.9717 29.8869 35.9717 30.6022C35.9717 31.1248 35.8039 31.6222 35.5113 31.9671C35.1939 32.3406 34.7426 32.5298 34.17 32.5298H27.3951C26.8519 32.5298 26.4117 32.9704 26.4117 33.5136C26.4117 34.0568 26.8519 34.497 27.3951 34.497H34.17C35.3137 34.497 36.3223 34.0507 37.0104 33.2404C37.583 32.5668 37.9096 31.681 37.937 30.7342L44.34 24.3984C45.2551 23.4832 46.6849 23.7129 47.4848 24.4506C47.8984 24.8321 48.4545 25.6336 47.5325 26.7181Z"/>
			<path d="M24.328 33.2517C24.204 32.7226 23.6749 32.3949 23.1458 32.5185C22.6171 32.6425 22.2887 33.1716 22.413 33.7007L22.4222 33.7407C22.5286 34.1939 22.9326 34.4999 23.3789 34.4999C23.4533 34.4999 23.5288 34.4915 23.6044 34.4739C24.1335 34.3499 24.4615 33.8205 24.3375 33.2917L24.328 33.2517Z"/>
			<path d="M24.328 33.2517C24.204 32.7226 23.6749 32.3949 23.1458 32.5185C22.6171 32.6425 22.2887 33.1716 22.413 33.7007L22.4222 33.7407C22.5286 34.1939 22.9326 34.4999 23.3789 34.4999C23.4533 34.4999 23.5288 34.4915 23.6044 34.4739C24.1335 34.3499 24.4615 33.8205 24.3375 33.2917L24.328 33.2517Z"/>
			<path d="M6.64861 20.752H16.2327C16.7545 20.752 17.2374 20.5826 17.6304 20.2965C18.0233 20.5826 18.5062 20.752 19.0281 20.752H28.6125C29.1343 20.752 29.6173 20.5826 30.0102 20.2965C30.4031 20.5826 30.8861 20.752 31.4079 20.752H40.992C42.305 20.752 43.3731 19.6835 43.3731 18.3704V13.9011C43.3731 11.8938 42.2497 10.1502 40.5681 9.28994C41.383 8.30727 41.8735 7.04689 41.8735 5.6736C41.8735 2.54517 39.3284 0 36.1999 0C33.0715 0 30.5263 2.54517 30.5263 5.6736C30.5263 7.04689 31.0169 8.30765 31.8317 9.28994C31.105 9.66225 30.4828 10.1997 30.0102 10.8517C29.5376 10.1994 28.9154 9.66187 28.1883 9.28994C29.0031 8.30765 29.4937 7.04689 29.4937 5.6736C29.4937 2.54517 26.9485 0 23.8201 0C20.6917 0 18.1465 2.54517 18.1465 5.6736C18.1465 7.04689 18.6374 8.30765 19.4523 9.29032C18.7252 9.66225 18.103 10.1997 17.6304 10.8521C17.1577 10.1997 16.5355 9.66225 15.8085 9.28994C16.6233 8.30765 17.1139 7.04689 17.1139 5.67398C17.1139 2.54517 14.5687 0 11.4402 0C8.3122 0 5.76703 2.54517 5.76703 5.67398C5.76703 7.04689 6.2576 8.30765 7.07242 9.29032C5.3909 10.1505 4.26709 11.8946 4.26709 13.9015V18.3704C4.26709 19.6835 5.33559 20.752 6.64861 20.752ZM36.2003 1.96724C38.2438 1.96724 39.9067 3.62969 39.9067 5.6736C39.9067 7.71714 38.2438 9.37996 36.2003 9.37996C34.1564 9.37996 32.494 7.71752 32.494 5.6736C32.4936 3.62969 34.1564 1.96724 36.2003 1.96724ZM33.6448 10.7369C34.4135 11.1263 35.2814 11.3472 36.1999 11.3472C37.1189 11.3472 37.9867 11.1263 38.755 10.7369C40.2836 11.0031 41.4062 12.3203 41.4062 13.9011V18.3704C41.4062 18.5989 41.2205 18.7847 40.992 18.7847H31.4079C31.1798 18.7847 30.994 18.5989 30.994 18.3704V13.9011C30.9936 12.3207 32.1167 11.0031 33.6448 10.7369ZM23.8205 1.96724C25.864 1.96724 27.5268 3.62969 27.5268 5.6736C27.5268 7.71714 25.864 9.37996 23.8205 9.37996C21.7766 9.37996 20.1141 7.71752 20.1141 5.6736C20.1141 3.62969 21.7766 1.96724 23.8205 1.96724ZM21.2654 10.7369C22.0337 11.1263 22.9015 11.3472 23.8205 11.3472C24.7394 11.3472 25.6069 11.1263 26.3756 10.7369C27.9037 11.0031 29.0268 12.3203 29.0268 13.9011V18.3704C29.0268 18.5989 28.841 18.7847 28.6125 18.7847H19.0284C18.7999 18.7847 18.6142 18.5989 18.6142 18.3704V13.9011C18.6142 12.3207 19.7372 11.0031 21.2654 10.7369ZM11.4406 1.96724C13.4842 1.96724 15.147 3.62969 15.147 5.6736C15.147 7.71714 13.4842 9.37996 11.4406 9.37996C9.3971 9.37996 7.73427 7.71714 7.73427 5.6736C7.73427 3.62969 9.3971 1.96724 11.4406 1.96724ZM6.23433 13.9011C6.23433 12.3207 7.35738 11.0031 8.88555 10.7369C9.65421 11.1263 10.5217 11.3472 11.4406 11.3472C12.3596 11.3472 13.2271 11.1263 13.9957 10.7369C15.5243 11.0031 16.6469 12.3203 16.6469 13.9011V18.3704C16.6469 18.5989 16.4612 18.7847 16.2327 18.7847H6.64861C6.42011 18.7847 6.23433 18.5989 6.23433 18.3704V13.9011Z"/>
			<path d="M6.64861 20.752H16.2327C16.7545 20.752 17.2374 20.5826 17.6304 20.2965C18.0233 20.5826 18.5062 20.752 19.0281 20.752H28.6125C29.1343 20.752 29.6173 20.5826 30.0102 20.2965C30.4031 20.5826 30.8861 20.752 31.4079 20.752H40.992C42.305 20.752 43.3731 19.6835 43.3731 18.3704V13.9011C43.3731 11.8938 42.2497 10.1502 40.5681 9.28994C41.383 8.30727 41.8735 7.04689 41.8735 5.6736C41.8735 2.54517 39.3284 0 36.1999 0C33.0715 0 30.5263 2.54517 30.5263 5.6736C30.5263 7.04689 31.0169 8.30765 31.8317 9.28994C31.105 9.66225 30.4828 10.1997 30.0102 10.8517C29.5376 10.1994 28.9154 9.66187 28.1883 9.28994C29.0031 8.30765 29.4937 7.04689 29.4937 5.6736C29.4937 2.54517 26.9485 0 23.8201 0C20.6917 0 18.1465 2.54517 18.1465 5.6736C18.1465 7.04689 18.6374 8.30765 19.4523 9.29032C18.7252 9.66225 18.103 10.1997 17.6304 10.8521C17.1577 10.1997 16.5355 9.66225 15.8085 9.28994C16.6233 8.30765 17.1139 7.04689 17.1139 5.67398C17.1139 2.54517 14.5687 0 11.4402 0C8.3122 0 5.76703 2.54517 5.76703 5.67398C5.76703 7.04689 6.2576 8.30765 7.07242 9.29032C5.3909 10.1505 4.26709 11.8946 4.26709 13.9015V18.3704C4.26709 19.6835 5.33559 20.752 6.64861 20.752ZM36.2003 1.96724C38.2438 1.96724 39.9067 3.62969 39.9067 5.6736C39.9067 7.71714 38.2438 9.37996 36.2003 9.37996C34.1564 9.37996 32.494 7.71752 32.494 5.6736C32.4936 3.62969 34.1564 1.96724 36.2003 1.96724ZM33.6448 10.7369C34.4135 11.1263 35.2814 11.3472 36.1999 11.3472C37.1189 11.3472 37.9867 11.1263 38.755 10.7369C40.2836 11.0031 41.4062 12.3203 41.4062 13.9011V18.3704C41.4062 18.5989 41.2205 18.7847 40.992 18.7847H31.4079C31.1798 18.7847 30.994 18.5989 30.994 18.3704V13.9011C30.9936 12.3207 32.1167 11.0031 33.6448 10.7369ZM23.8205 1.96724C25.864 1.96724 27.5268 3.62969 27.5268 5.6736C27.5268 7.71714 25.864 9.37996 23.8205 9.37996C21.7766 9.37996 20.1141 7.71752 20.1141 5.6736C20.1141 3.62969 21.7766 1.96724 23.8205 1.96724ZM21.2654 10.7369C22.0337 11.1263 22.9015 11.3472 23.8205 11.3472C24.7394 11.3472 25.6069 11.1263 26.3756 10.7369C27.9037 11.0031 29.0268 12.3203 29.0268 13.9011V18.3704C29.0268 18.5989 28.841 18.7847 28.6125 18.7847H19.0284C18.7999 18.7847 18.6142 18.5989 18.6142 18.3704V13.9011C18.6142 12.3207 19.7372 11.0031 21.2654 10.7369ZM11.4406 1.96724C13.4842 1.96724 15.147 3.62969 15.147 5.6736C15.147 7.71714 13.4842 9.37996 11.4406 9.37996C9.3971 9.37996 7.73427 7.71714 7.73427 5.6736C7.73427 3.62969 9.3971 1.96724 11.4406 1.96724ZM6.23433 13.9011C6.23433 12.3207 7.35738 11.0031 8.88555 10.7369C9.65421 11.1263 10.5217 11.3472 11.4406 11.3472C12.3596 11.3472 13.2271 11.1263 13.9957 10.7369C15.5243 11.0031 16.6469 12.3203 16.6469 13.9011V18.3704C16.6469 18.5989 16.4612 18.7847 16.2327 18.7847H6.64861C6.42011 18.7847 6.23433 18.5989 6.23433 18.3704V13.9011Z"/>
		</symbol>
		<symbol viewBox="0 0 50 53" id="icon-customer-2">
			<path d="M48.8185 26.0045C48.07 25.314 47.0519 24.8875 46.025 24.8341C44.8588 24.7738 43.7663 25.1896 42.9526 26.0037L37.3931 31.5049C37.2832 31.3145 37.1577 31.1349 37.0169 30.9681C36.333 30.156 35.3327 29.7089 34.2009 29.7089H26.4182C24.9507 29.7089 23.519 29.5186 22.1633 29.1436C18.6286 28.1659 15.2518 28.88 12.3972 31.21C11.2364 32.1576 10.3896 33.1883 9.85398 33.9398L8.45857 32.5856C8.27508 32.4074 8.02636 32.3063 7.77039 32.3063C7.76811 32.3063 7.7662 32.3063 7.76391 32.3063C7.49879 32.3083 7.24244 32.4185 7.05857 32.6092L0.274894 39.6515C0.093314 39.84 -0.00548666 40.0933 0.000235386 40.355C0.00595743 40.617 0.115439 40.8658 0.30503 41.0462L11.7785 51.9711C11.9689 52.1523 12.213 52.2427 12.4568 52.2427C12.7127 52.2427 12.9687 52.1432 13.1613 51.9456L19.8817 45.0509C20.0652 44.8624 20.167 44.6049 20.1621 44.3417C20.1571 44.0823 20.0484 43.8321 19.8622 43.6513L19.2771 43.0836L20.6164 42.933C21.4266 42.8387 22.2506 42.791 23.0662 42.791H34.9074C36.8315 42.791 38.4657 42.3703 39.765 41.5402C39.7757 41.5333 39.7864 41.5261 39.7971 41.5188C40.2625 41.1954 40.6848 40.812 41.0517 40.3798L49.0313 30.9922C50.397 29.3858 50.3115 27.3812 48.8185 26.0045ZM12.4312 49.8765L2.37794 40.3039L7.79366 34.6814L17.7882 44.3802L12.4312 49.8765ZM47.5325 29.7181L39.5529 39.106C39.2996 39.404 39.0093 39.6687 38.6893 39.893C37.7139 40.5106 36.4417 40.8242 34.9074 40.8242H23.0658C22.1751 40.8242 21.2744 40.8764 20.3929 40.9791L17.4487 41.3094L11.2841 35.3272C11.7125 34.6921 12.5002 33.6655 13.6412 32.734C16.0132 30.7976 18.7041 30.2273 21.6387 31.0395C23.1654 31.4618 24.7733 31.6762 26.4182 31.6762H34.2009C35.5986 31.6762 35.9717 32.8869 35.9717 33.6022C35.9717 34.1248 35.8039 34.6222 35.5113 34.9671C35.1939 35.3406 34.7426 35.5298 34.17 35.5298H27.3951C26.8519 35.5298 26.4117 35.9704 26.4117 36.5136C26.4117 37.0568 26.8519 37.497 27.3951 37.497H34.17C35.3137 37.497 36.3223 37.0507 37.0104 36.2404C37.583 35.5668 37.9096 34.681 37.937 33.7342L44.34 27.3984C45.2551 26.4832 46.6849 26.7129 47.4848 27.4506C47.8984 27.8321 48.4545 28.6336 47.5325 29.7181Z"/>
			<path d="M48.8185 26.0045C48.07 25.314 47.0519 24.8875 46.025 24.8341C44.8588 24.7738 43.7663 25.1896 42.9526 26.0037L37.3931 31.5049C37.2832 31.3145 37.1577 31.1349 37.0169 30.9681C36.333 30.156 35.3327 29.7089 34.2009 29.7089H26.4182C24.9507 29.7089 23.519 29.5186 22.1633 29.1436C18.6286 28.1659 15.2518 28.88 12.3972 31.21C11.2364 32.1576 10.3896 33.1883 9.85398 33.9398L8.45857 32.5856C8.27508 32.4074 8.02636 32.3063 7.77039 32.3063C7.76811 32.3063 7.7662 32.3063 7.76391 32.3063C7.49879 32.3083 7.24244 32.4185 7.05857 32.6092L0.274894 39.6515C0.093314 39.84 -0.00548666 40.0933 0.000235386 40.355C0.00595743 40.617 0.115439 40.8658 0.30503 41.0462L11.7785 51.9711C11.9689 52.1523 12.213 52.2427 12.4568 52.2427C12.7127 52.2427 12.9687 52.1432 13.1613 51.9456L19.8817 45.0509C20.0652 44.8624 20.167 44.6049 20.1621 44.3417C20.1571 44.0823 20.0484 43.8321 19.8622 43.6513L19.2771 43.0836L20.6164 42.933C21.4266 42.8387 22.2506 42.791 23.0662 42.791H34.9074C36.8315 42.791 38.4657 42.3703 39.765 41.5402C39.7757 41.5333 39.7864 41.5261 39.7971 41.5188C40.2625 41.1954 40.6848 40.812 41.0517 40.3798L49.0313 30.9922C50.397 29.3858 50.3115 27.3812 48.8185 26.0045ZM12.4312 49.8765L2.37794 40.3039L7.79366 34.6814L17.7882 44.3802L12.4312 49.8765ZM47.5325 29.7181L39.5529 39.106C39.2996 39.404 39.0093 39.6687 38.6893 39.893C37.7139 40.5106 36.4417 40.8242 34.9074 40.8242H23.0658C22.1751 40.8242 21.2744 40.8764 20.3929 40.9791L17.4487 41.3094L11.2841 35.3272C11.7125 34.6921 12.5002 33.6655 13.6412 32.734C16.0132 30.7976 18.7041 30.2273 21.6387 31.0395C23.1654 31.4618 24.7733 31.6762 26.4182 31.6762H34.2009C35.5986 31.6762 35.9717 32.8869 35.9717 33.6022C35.9717 34.1248 35.8039 34.6222 35.5113 34.9671C35.1939 35.3406 34.7426 35.5298 34.17 35.5298H27.3951C26.8519 35.5298 26.4117 35.9704 26.4117 36.5136C26.4117 37.0568 26.8519 37.497 27.3951 37.497H34.17C35.3137 37.497 36.3223 37.0507 37.0104 36.2404C37.583 35.5668 37.9096 34.681 37.937 33.7342L44.34 27.3984C45.2551 26.4832 46.6849 26.7129 47.4848 27.4506C47.8984 27.8321 48.4545 28.6336 47.5325 29.7181Z"/>
			<path d="M24.328 36.2517C24.204 35.7226 23.6749 35.3949 23.1458 35.5185C22.6171 35.6425 22.2887 36.1716 22.413 36.7007L22.4222 36.7407C22.5286 37.1939 22.9326 37.4999 23.3789 37.4999C23.4533 37.4999 23.5288 37.4915 23.6044 37.4739C24.1335 37.3499 24.4615 36.8205 24.3375 36.2917L24.328 36.2517Z"/>
			<path d="M24.328 36.2517C24.204 35.7226 23.6749 35.3949 23.1458 35.5185C22.6171 35.6425 22.2887 36.1716 22.413 36.7007L22.4222 36.7407C22.5286 37.1939 22.9326 37.4999 23.3789 37.4999C23.4533 37.4999 23.5288 37.4915 23.6044 37.4739C24.1335 37.3499 24.4615 36.8205 24.3375 36.2917L24.328 36.2517Z"/>
			<path d="M7 22.5586H42V0H7V22.5586ZM9.05078 2.05078H39.9492V20.5078H9.05078V2.05078Z"/>
			<path d="M7 22.5586H42V0H7V22.5586ZM9.05078 2.05078H39.9492V20.5078H9.05078V2.05078Z"/>
			<path d="M11.1016 4.10156H15.2715V6.15234H11.1016V4.10156Z"/>
			<path d="M11.1016 4.10156H15.2715V6.15234H11.1016V4.10156Z"/>
			<path d="M33.7285 16.4062H37.8984V18.457H33.7285V16.4062Z"/>
			<path d="M33.7285 16.4062H37.8984V18.457H33.7285V16.4062Z"/>
			<path d="M25.5254 8.20312C25.5254 5.94152 23.6854 4.10156 21.4238 4.10156H17.3223V16.4062H19.373V12.3047H21.4238C22.5546 12.3047 23.4746 13.2247 23.4746 14.3555V16.4062H25.5254V14.3555C25.5254 13.1318 24.9866 12.0315 24.134 11.2793C24.9866 10.5271 25.5254 9.42683 25.5254 8.20312ZM21.4238 10.2539H19.373V6.15234H21.4238C22.5546 6.15234 23.4746 7.07232 23.4746 8.20312C23.4746 9.33393 22.5546 10.2539 21.4238 10.2539Z"/>
			<path d="M25.5254 8.20312C25.5254 5.94152 23.6854 4.10156 21.4238 4.10156H17.3223V16.4062H19.373V12.3047H21.4238C22.5546 12.3047 23.4746 13.2247 23.4746 14.3555V16.4062H25.5254V14.3555C25.5254 13.1318 24.9866 12.0315 24.134 11.2793C24.9866 10.5271 25.5254 9.42683 25.5254 8.20312ZM21.4238 10.2539H19.373V6.15234H21.4238C22.5546 6.15234 23.4746 7.07232 23.4746 8.20312C23.4746 9.33393 22.5546 10.2539 21.4238 10.2539Z"/>
			<path d="M30.6523 8.20312H27.5762V18.457H29.627V14.3555H30.6523C32.3485 14.3555 33.7285 12.9755 33.7285 11.2793C33.7285 9.5831 32.3485 8.20312 30.6523 8.20312ZM30.6523 12.3047H29.627V10.2539H30.6523C31.2177 10.2539 31.6777 10.7139 31.6777 11.2793C31.6777 11.8447 31.2177 12.3047 30.6523 12.3047Z"/>
			<path d="M30.6523 8.20312H27.5762V18.457H29.627V14.3555H30.6523C32.3485 14.3555 33.7285 12.9755 33.7285 11.2793C33.7285 9.5831 32.3485 8.20312 30.6523 8.20312ZM30.6523 12.3047H29.627V10.2539H30.6523C31.2177 10.2539 31.6777 10.7139 31.6777 11.2793C31.6777 11.8447 31.2177 12.3047 30.6523 12.3047Z"/>
		</symbol>
		<symbol viewBox="0 0 50 57" id="icon-customer-3">
			<path d="M48.8185 30.0045C48.07 29.314 47.0519 28.8875 46.025 28.8341C44.8588 28.7738 43.7663 29.1896 42.9526 30.0037L37.3931 35.5049C37.2832 35.3145 37.1577 35.1349 37.0169 34.9681C36.333 34.156 35.3327 33.7089 34.2009 33.7089H26.4182C24.9507 33.7089 23.519 33.5186 22.1633 33.1436C18.6286 32.1659 15.2518 32.88 12.3972 35.21C11.2364 36.1576 10.3896 37.1883 9.85398 37.9398L8.45857 36.5856C8.27508 36.4074 8.02636 36.3063 7.77039 36.3063C7.76811 36.3063 7.7662 36.3063 7.76391 36.3063C7.49879 36.3083 7.24244 36.4185 7.05857 36.6092L0.274894 43.6515C0.093314 43.84 -0.00548666 44.0933 0.000235386 44.355C0.00595743 44.617 0.115439 44.8658 0.30503 45.0462L11.7785 55.9711C11.9689 56.1523 12.213 56.2427 12.4568 56.2427C12.7127 56.2427 12.9687 56.1432 13.1613 55.9456L19.8817 49.0509C20.0652 48.8624 20.167 48.6049 20.1621 48.3417C20.1571 48.0823 20.0484 47.8321 19.8622 47.6513L19.2771 47.0836L20.6164 46.933C21.4266 46.8387 22.2506 46.791 23.0662 46.791H34.9074C36.8315 46.791 38.4657 46.3703 39.765 45.5402C39.7757 45.5333 39.7864 45.5261 39.7971 45.5188C40.2625 45.1954 40.6848 44.812 41.0517 44.3798L49.0313 34.9922C50.397 33.3858 50.3115 31.3812 48.8185 30.0045ZM12.4312 53.8765L2.37794 44.3039L7.79366 38.6814L17.7882 48.3802L12.4312 53.8765ZM47.5325 33.7181L39.5529 43.106C39.2996 43.404 39.0093 43.6687 38.6893 43.893C37.7139 44.5106 36.4417 44.8242 34.9074 44.8242H23.0658C22.1751 44.8242 21.2744 44.8764 20.3929 44.9791L17.4487 45.3094L11.2841 39.3272C11.7125 38.6921 12.5002 37.6655 13.6412 36.734C16.0132 34.7976 18.7041 34.2273 21.6387 35.0395C23.1654 35.4618 24.7733 35.6762 26.4182 35.6762H34.2009C35.5986 35.6762 35.9717 36.8869 35.9717 37.6022C35.9717 38.1248 35.8039 38.6222 35.5113 38.9671C35.1939 39.3406 34.7426 39.5298 34.17 39.5298H27.3951C26.8519 39.5298 26.4117 39.9704 26.4117 40.5136C26.4117 41.0568 26.8519 41.497 27.3951 41.497H34.17C35.3137 41.497 36.3223 41.0507 37.0104 40.2404C37.583 39.5668 37.9096 38.681 37.937 37.7342L44.34 31.3984C45.2551 30.4832 46.6849 30.7129 47.4848 31.4506C47.8984 31.8321 48.4545 32.6336 47.5325 33.7181Z"/>
			<path d="M48.8185 30.0045C48.07 29.314 47.0519 28.8875 46.025 28.8341C44.8588 28.7738 43.7663 29.1896 42.9526 30.0037L37.3931 35.5049C37.2832 35.3145 37.1577 35.1349 37.0169 34.9681C36.333 34.156 35.3327 33.7089 34.2009 33.7089H26.4182C24.9507 33.7089 23.519 33.5186 22.1633 33.1436C18.6286 32.1659 15.2518 32.88 12.3972 35.21C11.2364 36.1576 10.3896 37.1883 9.85398 37.9398L8.45857 36.5856C8.27508 36.4074 8.02636 36.3063 7.77039 36.3063C7.76811 36.3063 7.7662 36.3063 7.76391 36.3063C7.49879 36.3083 7.24244 36.4185 7.05857 36.6092L0.274894 43.6515C0.093314 43.84 -0.00548666 44.0933 0.000235386 44.355C0.00595743 44.617 0.115439 44.8658 0.30503 45.0462L11.7785 55.9711C11.9689 56.1523 12.213 56.2427 12.4568 56.2427C12.7127 56.2427 12.9687 56.1432 13.1613 55.9456L19.8817 49.0509C20.0652 48.8624 20.167 48.6049 20.1621 48.3417C20.1571 48.0823 20.0484 47.8321 19.8622 47.6513L19.2771 47.0836L20.6164 46.933C21.4266 46.8387 22.2506 46.791 23.0662 46.791H34.9074C36.8315 46.791 38.4657 46.3703 39.765 45.5402C39.7757 45.5333 39.7864 45.5261 39.7971 45.5188C40.2625 45.1954 40.6848 44.812 41.0517 44.3798L49.0313 34.9922C50.397 33.3858 50.3115 31.3812 48.8185 30.0045ZM12.4312 53.8765L2.37794 44.3039L7.79366 38.6814L17.7882 48.3802L12.4312 53.8765ZM47.5325 33.7181L39.5529 43.106C39.2996 43.404 39.0093 43.6687 38.6893 43.893C37.7139 44.5106 36.4417 44.8242 34.9074 44.8242H23.0658C22.1751 44.8242 21.2744 44.8764 20.3929 44.9791L17.4487 45.3094L11.2841 39.3272C11.7125 38.6921 12.5002 37.6655 13.6412 36.734C16.0132 34.7976 18.7041 34.2273 21.6387 35.0395C23.1654 35.4618 24.7733 35.6762 26.4182 35.6762H34.2009C35.5986 35.6762 35.9717 36.8869 35.9717 37.6022C35.9717 38.1248 35.8039 38.6222 35.5113 38.9671C35.1939 39.3406 34.7426 39.5298 34.17 39.5298H27.3951C26.8519 39.5298 26.4117 39.9704 26.4117 40.5136C26.4117 41.0568 26.8519 41.497 27.3951 41.497H34.17C35.3137 41.497 36.3223 41.0507 37.0104 40.2404C37.583 39.5668 37.9096 38.681 37.937 37.7342L44.34 31.3984C45.2551 30.4832 46.6849 30.7129 47.4848 31.4506C47.8984 31.8321 48.4545 32.6336 47.5325 33.7181Z"/>
			<path d="M24.328 40.2517C24.204 39.7226 23.6749 39.3949 23.1458 39.5185C22.6171 39.6425 22.2887 40.1716 22.413 40.7007L22.4222 40.7407C22.5286 41.1939 22.9326 41.4999 23.3789 41.4999C23.4533 41.4999 23.5288 41.4915 23.6044 41.4739C24.1335 41.3499 24.4615 40.8205 24.3375 40.2917L24.328 40.2517Z"/>
			<path d="M24.328 40.2517C24.204 39.7226 23.6749 39.3949 23.1458 39.5185C22.6171 39.6425 22.2887 40.1716 22.413 40.7007L22.4222 40.7407C22.5286 41.1939 22.9326 41.4999 23.3789 41.4999C23.4533 41.4999 23.5288 41.4915 23.6044 41.4739C24.1335 41.3499 24.4615 40.8205 24.3375 40.2917L24.328 40.2517Z"/>
			<path d="M37.1764 5.76198C36.9153 5.49836 36.6044 5.28919 36.2618 5.14657C35.9192 5.00396 35.5517 4.93073 35.1806 4.93114L32.8644 4.92685L33.1786 4.60553C33.4327 4.3578 33.6351 4.06213 33.7742 3.73565C33.9132 3.40916 33.9862 3.05833 33.9888 2.70347C33.9914 2.34861 33.9236 1.99675 33.7893 1.66827C33.655 1.33978 33.4569 1.04119 33.2064 0.78977C32.956 0.53835 32.6582 0.339095 32.3302 0.203534C32.0023 0.0679736 31.6507 -0.00120012 31.2958 1.57543e-05C30.9409 0.00123162 30.5898 0.0728131 30.2628 0.210618C29.9358 0.348423 29.6393 0.549714 29.3906 0.802844L25.5686 4.61065L22.7644 1.79597C22.5162 1.54549 22.2208 1.34673 21.8953 1.2112C21.5697 1.07567 21.2206 1.00606 20.868 1.0064H20.8629C20.4046 1.00677 19.954 1.12441 19.5541 1.34812C19.1541 1.57183 18.8181 1.89416 18.5779 2.28445C18.3377 2.67474 18.2014 3.12 18.1819 3.57786C18.1625 4.03572 18.2605 4.49094 18.4667 4.90021L15.835 4.8953H15.8296C15.0815 4.89529 14.364 5.19213 13.8345 5.72065C13.3051 6.24916 13.007 6.96617 13.0056 7.71426L13 10.8246C12.9998 10.907 13.016 10.9886 13.0474 11.0648C13.0788 11.141 13.125 11.2103 13.1832 11.2686C13.2415 11.327 13.3106 11.3733 13.3868 11.4048C13.4629 11.4364 13.5445 11.4527 13.627 11.4527H14.5545V22.6465C14.5553 23.3953 14.8531 24.1131 15.3826 24.6425C15.912 25.1719 16.6298 25.4698 17.3786 25.4706H33.6214C34.3701 25.4698 35.088 25.1719 35.6174 24.6425C36.1468 24.1131 36.4446 23.3953 36.4455 22.6465V11.4527H37.3675C37.5335 11.4527 37.6928 11.3868 37.8104 11.2695C37.9279 11.1521 37.9941 10.9929 37.9944 10.8269L38 7.76055C38.0017 7.38952 37.9298 7.02182 37.7884 6.67876C37.6471 6.3357 37.4391 6.02409 37.1764 5.76198ZM30.2755 1.69116C30.4089 1.55899 30.567 1.45439 30.7409 1.38334C30.9147 1.31229 31.1008 1.27617 31.2886 1.27704C31.4764 1.27792 31.6622 1.31578 31.8353 1.38846C32.0085 1.46113 32.1657 1.5672 32.2978 1.70061C32.43 1.83403 32.5346 1.99216 32.6056 2.166C32.6767 2.33983 32.7128 2.52596 32.7119 2.71375C32.7111 2.90154 32.6732 3.08732 32.6005 3.26048C32.5278 3.43364 32.4218 3.5908 32.2884 3.72296L31.122 4.91567H27.0388L30.2755 1.69116ZM19.8537 2.67728C19.9861 2.54465 20.1435 2.43952 20.3167 2.36797C20.4899 2.29641 20.6755 2.25983 20.863 2.26034H20.8657C21.0535 2.26019 21.2396 2.2973 21.413 2.36951C21.5865 2.44172 21.7439 2.54761 21.8761 2.68104L24.0974 4.91066L20.0238 4.87398L19.85 4.69947C19.5823 4.4308 19.4323 4.0668 19.433 3.68754C19.4337 3.30829 19.5851 2.94485 19.8537 2.67718V2.67728ZM22.1471 24.2167H17.3786C16.9623 24.2162 16.5632 24.0506 16.2688 23.7563C15.9745 23.4619 15.8089 23.0628 15.8084 22.6465V11.4527H22.1538L22.1471 24.2167ZM22.1544 10.1987H14.2551L14.2596 7.71656C14.2603 7.30062 14.426 6.90196 14.7204 6.60809C15.0148 6.31423 15.4137 6.14916 15.8296 6.14913H15.8328L22.1565 6.16084L22.1544 10.1987ZM27.7332 24.2167H23.401L23.4077 11.4527H27.7398L27.7332 24.2167ZM27.7404 10.1987H23.4084L23.4104 6.16324L27.7425 6.17129L27.7404 10.1987ZM35.1916 22.6465C35.1911 23.0628 35.0255 23.4619 34.7312 23.7563C34.4368 24.0506 34.0377 24.2162 33.6214 24.2167H28.9871L28.9937 11.4527H35.1916V22.6465ZM36.7415 10.1987H28.9945L28.9966 6.17359L35.1789 6.18508C35.3851 6.18544 35.5892 6.22641 35.7796 6.30566C35.97 6.38491 36.1429 6.50088 36.2885 6.64696C36.434 6.79304 36.5494 6.96635 36.6279 7.15701C36.7065 7.34767 36.7467 7.55194 36.7463 7.75815L36.7415 10.1987Z"/>
			<path d="M37.1764 5.76198C36.9153 5.49836 36.6044 5.28919 36.2618 5.14657C35.9192 5.00396 35.5517 4.93073 35.1806 4.93114L32.8644 4.92685L33.1786 4.60553C33.4327 4.3578 33.6351 4.06213 33.7742 3.73565C33.9132 3.40916 33.9862 3.05833 33.9888 2.70347C33.9914 2.34861 33.9236 1.99675 33.7893 1.66827C33.655 1.33978 33.4569 1.04119 33.2064 0.78977C32.956 0.53835 32.6582 0.339095 32.3302 0.203534C32.0023 0.0679736 31.6507 -0.00120012 31.2958 1.57543e-05C30.9409 0.00123162 30.5898 0.0728131 30.2628 0.210618C29.9358 0.348423 29.6393 0.549714 29.3906 0.802844L25.5686 4.61065L22.7644 1.79597C22.5162 1.54549 22.2208 1.34673 21.8953 1.2112C21.5697 1.07567 21.2206 1.00606 20.868 1.0064H20.8629C20.4046 1.00677 19.954 1.12441 19.5541 1.34812C19.1541 1.57183 18.8181 1.89416 18.5779 2.28445C18.3377 2.67474 18.2014 3.12 18.1819 3.57786C18.1625 4.03572 18.2605 4.49094 18.4667 4.90021L15.835 4.8953H15.8296C15.0815 4.89529 14.364 5.19213 13.8345 5.72065C13.3051 6.24916 13.007 6.96617 13.0056 7.71426L13 10.8246C12.9998 10.907 13.016 10.9886 13.0474 11.0648C13.0788 11.141 13.125 11.2103 13.1832 11.2686C13.2415 11.327 13.3106 11.3733 13.3868 11.4048C13.4629 11.4364 13.5445 11.4527 13.627 11.4527H14.5545V22.6465C14.5553 23.3953 14.8531 24.1131 15.3826 24.6425C15.912 25.1719 16.6298 25.4698 17.3786 25.4706H33.6214C34.3701 25.4698 35.088 25.1719 35.6174 24.6425C36.1468 24.1131 36.4446 23.3953 36.4455 22.6465V11.4527H37.3675C37.5335 11.4527 37.6928 11.3868 37.8104 11.2695C37.9279 11.1521 37.9941 10.9929 37.9944 10.8269L38 7.76055C38.0017 7.38952 37.9298 7.02182 37.7884 6.67876C37.6471 6.3357 37.4391 6.02409 37.1764 5.76198ZM30.2755 1.69116C30.4089 1.55899 30.567 1.45439 30.7409 1.38334C30.9147 1.31229 31.1008 1.27617 31.2886 1.27704C31.4764 1.27792 31.6622 1.31578 31.8353 1.38846C32.0085 1.46113 32.1657 1.5672 32.2978 1.70061C32.43 1.83403 32.5346 1.99216 32.6056 2.166C32.6767 2.33983 32.7128 2.52596 32.7119 2.71375C32.7111 2.90154 32.6732 3.08732 32.6005 3.26048C32.5278 3.43364 32.4218 3.5908 32.2884 3.72296L31.122 4.91567H27.0388L30.2755 1.69116ZM19.8537 2.67728C19.9861 2.54465 20.1435 2.43952 20.3167 2.36797C20.4899 2.29641 20.6755 2.25983 20.863 2.26034H20.8657C21.0535 2.26019 21.2396 2.2973 21.413 2.36951C21.5865 2.44172 21.7439 2.54761 21.8761 2.68104L24.0974 4.91066L20.0238 4.87398L19.85 4.69947C19.5823 4.4308 19.4323 4.0668 19.433 3.68754C19.4337 3.30829 19.5851 2.94485 19.8537 2.67718V2.67728ZM22.1471 24.2167H17.3786C16.9623 24.2162 16.5632 24.0506 16.2688 23.7563C15.9745 23.4619 15.8089 23.0628 15.8084 22.6465V11.4527H22.1538L22.1471 24.2167ZM22.1544 10.1987H14.2551L14.2596 7.71656C14.2603 7.30062 14.426 6.90196 14.7204 6.60809C15.0148 6.31423 15.4137 6.14916 15.8296 6.14913H15.8328L22.1565 6.16084L22.1544 10.1987ZM27.7332 24.2167H23.401L23.4077 11.4527H27.7398L27.7332 24.2167ZM27.7404 10.1987H23.4084L23.4104 6.16324L27.7425 6.17129L27.7404 10.1987ZM35.1916 22.6465C35.1911 23.0628 35.0255 23.4619 34.7312 23.7563C34.4368 24.0506 34.0377 24.2162 33.6214 24.2167H28.9871L28.9937 11.4527H35.1916V22.6465ZM36.7415 10.1987H28.9945L28.9966 6.17359L35.1789 6.18508C35.3851 6.18544 35.5892 6.22641 35.7796 6.30566C35.97 6.38491 36.1429 6.50088 36.2885 6.64696C36.434 6.79304 36.5494 6.96635 36.6279 7.15701C36.7065 7.34767 36.7467 7.55194 36.7463 7.75815L36.7415 10.1987Z"/>
		</symbol>
	</defs>
</svg>

