<svg version="1.1"
	 xmlns="http://www.w3.org/2000/svg" xmlns:xlink="http://www.w3.org/1999/xlink">
	<defs>
		<symbol viewBox="0 0 20 20" fill="none" id="icon-campaign">
			<circle cx="10" cy="10" r="10" fill="#FFB7B3"/>
			<circle cx="10" cy="10" r="10" fill="url(#paint0_linear)"/>
			<path
				d="M15.6484 9.21875H14.5938C14.3996 9.21875 14.2422 9.37616 14.2422 9.57031C14.2422 9.76447 14.3996 9.92188 14.5938 9.92188H15.6484C15.8426 9.92188 16 9.76447 16 9.57031C16 9.37616 15.8426 9.21875 15.6484 9.21875Z"
				fill="white"/>
			<path
				d="M15.1939 11.4311L14.4908 10.728C14.3535 10.5907 14.1309 10.5907 13.9936 10.728C13.8563 10.8652 13.8563 11.0878 13.9936 11.2251L14.6967 11.9283C14.834 12.0656 15.0566 12.0656 15.1939 11.9283C15.3312 11.791 15.3312 11.5684 15.1939 11.4311Z"
				fill="white"/>
			<path
				d="M15.1939 7.21233C15.0566 7.07506 14.834 7.07506 14.6967 7.21233L13.9936 7.91546C13.8563 8.05275 13.8563 8.27534 13.9936 8.41263C14.1309 8.54993 14.3535 8.54991 14.4908 8.41263L15.1939 7.70951C15.3312 7.57221 15.3312 7.34963 15.1939 7.21233Z"
				fill="white"/>
			<path
				d="M12.1328 5C11.6047 5 11.1661 5.39012 11.0899 5.89728L10.7692 6.21798C10.2111 6.77614 9.38905 7.10938 8.57031 7.10938H6.46094C6.00262 7.10938 5.61184 7.4033 5.46672 7.8125H5.40625C4.63084 7.8125 4 8.44334 4 9.21875C4 9.99416 4.63084 10.625 5.40625 10.625H5.46672C5.57282 10.9242 5.81022 11.1616 6.10938 11.2677V13.0859C6.10938 13.6675 6.58253 14.1406 7.16409 14.1406C7.74562 14.1406 8.21875 13.6675 8.21875 13.0859V11.3281H8.57031C9.38903 11.3281 10.211 11.6614 10.7692 12.2195L11.0899 12.5402C11.1661 13.0474 11.6048 13.4375 12.1328 13.4375C12.7144 13.4375 13.1875 12.9644 13.1875 12.3828V6.05469C13.1875 5.47313 12.7144 5 12.1328 5ZM5.40625 9.92188C5.01855 9.92188 4.70312 9.60645 4.70312 9.21875C4.70312 8.83105 5.01855 8.51562 5.40625 8.51562V9.92188ZM7.51562 13.0859C7.51562 13.2798 7.35791 13.4375 7.16406 13.4375C6.97021 13.4375 6.8125 13.2798 6.8125 13.0859V11.3281H7.51562V13.0859ZM8.21875 10.625H6.46094C6.26709 10.625 6.10938 10.4673 6.10938 10.2734V8.16406C6.10938 7.97021 6.26709 7.8125 6.46094 7.8125H8.21875V10.625ZM11.0781 11.5472C10.4842 11.0331 9.72058 10.7138 8.91953 10.6409L8.91955 7.79654C9.72058 7.72374 10.4842 7.40436 11.0781 6.8903V11.5472ZM12.4844 12.3828C12.4844 12.5767 12.3267 12.7344 12.1328 12.7344H12.1328C11.939 12.7344 11.7812 12.5767 11.7812 12.3828V6.05469C11.7812 5.86084 11.939 5.70312 12.1328 5.70312C12.3267 5.70312 12.4844 5.86084 12.4844 6.05469V12.3828Z"
				fill="white"/>
			<defs>
				<linearGradient id="paint0_linear" x1="20" y1="0" x2="0" y2="20" gradientUnits="userSpaceOnUse">
					<stop stop-color="#FB4E4A"/>
					<stop offset="1" stop-color="white" stop-opacity="0"/>
				</linearGradient>
			</defs>
		</symbol>
		<symbol viewBox="0 0 20 20" fill="none" id="icon-email">
			<circle cx="10" cy="10" r="10" fill="#FFB7B3"/>
			<circle cx="10" cy="10" r="10" fill="url(#paint0_linear)"/>
			<path
				d="M4.61225 7.89517C4.78092 8.01418 5.28934 8.36767 6.13753 8.95544C6.98575 9.54321 7.63555 9.99578 8.08695 10.3132C8.13654 10.348 8.2419 10.4236 8.40309 10.5402C8.5643 10.6568 8.69825 10.7511 8.80484 10.823C8.91151 10.8949 9.04045 10.9755 9.19181 11.0647C9.34312 11.1539 9.48575 11.221 9.61968 11.2654C9.75363 11.3102 9.87763 11.3324 9.99169 11.3324H9.99917H10.0067C10.1207 11.3324 10.2448 11.3102 10.3787 11.2654C10.5126 11.221 10.6554 11.1538 10.8066 11.0647C10.9578 10.9754 11.0868 10.8948 11.1934 10.823C11.3001 10.7511 11.4339 10.6568 11.5952 10.5402C11.7564 10.4235 11.8619 10.348 11.9115 10.3132C12.3677 9.99578 13.5285 9.1897 15.3935 7.89501C15.7556 7.64214 16.0581 7.33702 16.3012 6.97986C16.5444 6.62286 16.6658 6.24834 16.6658 5.85652C16.6658 5.52909 16.548 5.24881 16.3123 5.0157C16.0767 4.78253 15.7976 4.66602 15.4753 4.66602H4.52294C4.14103 4.66602 3.84711 4.79496 3.64126 5.05286C3.43543 5.31081 3.33252 5.63323 3.33252 6.0201C3.33252 6.33259 3.46897 6.67123 3.74175 7.03579C4.0145 7.40038 4.30476 7.68686 4.61225 7.89517Z"
				fill="white"/>
			<path
				d="M15.9217 8.69075C14.2949 9.79184 13.0596 10.6476 12.2165 11.2578C11.9337 11.466 11.7044 11.6286 11.5282 11.7451C11.3521 11.8616 11.1178 11.9807 10.8251 12.1021C10.5325 12.2238 10.2598 12.2844 10.0068 12.2844H9.9992H9.99172C9.73875 12.2844 9.46589 12.2238 9.17329 12.1021C8.88068 11.9807 8.64626 11.8616 8.47017 11.7451C8.29413 11.6286 8.06469 11.466 7.78199 11.2578C7.1123 10.7667 5.87969 9.91094 4.08408 8.69075C3.80127 8.50238 3.55078 8.28647 3.33252 8.04346V13.951C3.33252 14.2786 3.44904 14.5587 3.6822 14.7919C3.91531 15.0251 4.19562 15.1416 4.52302 15.1416H15.4754C15.8028 15.1416 16.083 15.0251 16.3162 14.7919C16.5494 14.5586 16.6659 14.2786 16.6659 13.951V8.04346C16.4525 8.28144 16.2046 8.49736 15.9217 8.69075Z"
				fill="white"/>
			<defs>
				<linearGradient id="paint0_linear" x1="20" y1="0" x2="0" y2="20" gradientUnits="userSpaceOnUse">
					<stop stop-color="#FB4E4A"/>
					<stop offset="1" stop-color="white" stop-opacity="0"/>
				</linearGradient>
			</defs>
		</symbol>
		<symbol viewBox="0 0 20 20" fill="none" id="icon-address">
			<circle cx="10" cy="10" r="10" fill="#FFB7B3"/>
			<circle cx="10" cy="10" r="10" fill="url(#paint0_linear)"/>
			<path
				d="M10 5.25C11.0056 5.25 11.95 5.63375 12.6587 6.33125C13.3619 7.02312 13.75 7.94313 13.75 8.91875C13.75 9.89437 13.3625 10.8125 12.6594 11.5056L10 14.1206L7.34125 11.5044C6.63812 10.8125 6.25062 9.89437 6.25062 8.9175C6.25062 7.94062 6.63812 7.0225 7.34125 6.32938C8.05 5.63375 8.995 5.25 10 5.25ZM10 4C8.72062 4 7.44 4.48 6.46438 5.44063C4.51187 7.36188 4.51187 10.4763 6.46438 12.3975L10 15.8744L13.5356 12.3962C15.4881 10.4763 15.4881 7.36125 13.5356 5.44063C12.56 4.48 11.28 4 10 4Z"
				fill="white"/>
			<path
				d="M9.99991 7.43701C10.4174 7.43701 10.8099 7.59951 11.1049 7.89389C11.7149 8.50389 11.7149 9.49514 11.1049 10.1045C10.8093 10.3995 10.4174 10.5614 9.99991 10.5614C9.58241 10.5614 9.19054 10.3989 8.89491 10.1045C8.28491 9.49451 8.28491 8.50326 8.89491 7.89389C9.19054 7.59951 9.58304 7.43701 9.99991 7.43701ZM9.99991 6.81201C9.43991 6.81201 8.87991 7.02576 8.45304 7.45201C7.59866 8.30639 7.59866 9.69201 8.45304 10.5464C8.88054 10.9739 9.43929 11.1864 9.99991 11.1864C10.5605 11.1864 11.1199 10.9726 11.5468 10.5464C12.4005 9.69201 12.4005 8.30639 11.5468 7.45201C11.1199 7.02514 10.5599 6.81201 9.99991 6.81201Z"
				fill="white"/>
			<defs>
				<linearGradient id="paint0_linear" x1="20" y1="0" x2="0" y2="20" gradientUnits="userSpaceOnUse">
					<stop stop-color="#FB4E4A"/>
					<stop offset="1" stop-color="white" stop-opacity="0"/>
				</linearGradient>
			</defs>
		</symbol>
		<symbol viewBox="0 0 20 20" fill="none" id="icon-gender">
			<circle cx="10" cy="10" r="10" fill="#FFB7B3"/>
			<circle cx="10" cy="10" r="10" fill="url(#paint0_linear)"/>
			<path
				d="M15.0141 6.72329L15.9996 6.52618L15.6443 4.74956C15.6248 4.65227 15.577 4.56292 15.5068 4.49276C15.4367 4.42261 15.3473 4.37479 15.2501 4.35534L13.4734 4L13.2763 4.98548L14.1322 5.15672L12.6384 6.65049C12.1254 6.26833 11.5181 6.03288 10.8816 5.96933C10.245 5.90579 9.60316 6.01655 9.02471 6.28975C8.56732 6.07275 8.06847 5.95705 7.56226 5.95055C7.05605 5.94406 6.5544 6.04692 6.09159 6.25211C5.62878 6.4573 5.21573 6.75999 4.88065 7.13948C4.54557 7.51897 4.29637 7.96633 4.15007 8.45099C4.00376 8.93564 3.96382 9.44617 4.03295 9.94768C4.10208 10.4492 4.27866 10.9299 4.55063 11.3569C4.82261 11.7839 5.18355 12.1471 5.60881 12.4218C6.03406 12.6965 6.51361 12.8761 7.01467 12.9484V13.4875H6.00965V14.4925H7.01467V16H8.01969V14.4925H9.02471V13.4875H8.01969V12.9484C8.36809 12.8986 8.70693 12.7963 9.02471 12.645C9.73453 12.982 10.5368 13.0716 11.3034 12.8995C12.0701 12.7274 12.7571 12.3035 13.2547 11.6954C13.7524 11.0874 14.0321 10.3302 14.0493 9.54462C14.0665 8.75906 13.8201 7.99037 13.3494 7.36116L14.8432 5.86739L15.0141 6.72329ZM10.0297 9.46737C10.0297 9.85744 9.93876 10.2421 9.76413 10.5909C9.5895 10.9397 9.33599 11.243 9.0237 11.4768C8.92901 11.4055 8.83943 11.3278 8.75561 11.244C8.28443 10.7728 8.01972 10.1337 8.01972 9.46737C8.01972 8.80101 8.28443 8.16194 8.75561 7.69075C8.83943 7.60699 8.92901 7.5292 9.0237 7.45796C9.33599 7.6917 9.5895 7.995 9.76413 8.3438C9.93876 8.6926 10.0297 9.0773 10.0297 9.46737ZM5.00463 9.46737C5.00476 9.09475 5.08774 8.72681 5.24756 8.39021C5.40738 8.0536 5.64005 7.75674 5.92872 7.52111C6.21739 7.28549 6.55484 7.117 6.91663 7.02783C7.27843 6.93867 7.65553 6.93107 8.02063 7.00557C7.37719 7.66347 7.0169 8.54713 7.0169 9.46737C7.0169 10.3876 7.37719 11.2713 8.02063 11.9292C7.65553 12.0037 7.27843 11.9961 6.91663 11.9069C6.55484 11.8177 6.21739 11.6493 5.92872 11.4136C5.64005 11.178 5.40738 10.8811 5.24756 10.5445C5.08774 10.2079 5.00476 9.83999 5.00463 9.46737ZM12.3089 11.244C12.0761 11.4781 11.7992 11.6636 11.4943 11.7899C11.1893 11.9163 10.8623 11.9808 10.5322 11.9799C10.3624 11.9799 10.1931 11.9629 10.0266 11.9291C10.6727 11.2726 11.0347 10.3884 11.0347 9.46737C11.0347 8.5463 10.6727 7.66215 10.0266 7.00564C10.1931 6.97184 10.3624 6.95481 10.5322 6.95482C11.0292 6.95483 11.5149 7.10219 11.9281 7.37827C12.3413 7.65436 12.6633 8.04676 12.8535 8.50586C13.0437 8.96497 13.0934 9.47015 12.9965 9.95754C12.8995 10.4449 12.6602 10.8926 12.3089 11.244Z"
				fill="white"/>
			<defs>
				<linearGradient id="paint0_linear" x1="20" y1="0" x2="0" y2="20" gradientUnits="userSpaceOnUse">
					<stop stop-color="#FB4E4A"/>
					<stop offset="1" stop-color="white" stop-opacity="0"/>
				</linearGradient>
			</defs>
		</symbol>

		<symbol viewBox="0 0 20 20" fill="none" id="icon-product">
			<circle cx="10" cy="10" r="10" fill="#FFB7B3"/>
			<circle cx="10" cy="10" r="10" fill="url(#paint0_linear)"/>
			<path
				d="M15.7882 5.50005L10.1412 3.02947C10.0966 3.01003 10.0486 3 10 3C9.95142 3 9.90335 3.01003 9.85882 3.02947L4.21176 5.50005C4.14885 5.52751 4.09531 5.57272 4.0577 5.63014C4.02009 5.68756 4.00004 5.7547 4 5.82335V12.8822C4 12.9473 4.018 13.0111 4.05201 13.0666C4.08602 13.1221 4.13471 13.1671 4.19271 13.1966L9.83976 16.0696C9.88939 16.0949 9.9443 16.1081 10 16.1081C10.055 16.108 10.1092 16.0952 10.1585 16.0706L15.8055 13.233C15.864 13.2036 15.9132 13.1585 15.9475 13.1028C15.9819 13.0471 16 12.9829 16 12.9175V5.82335C16 5.7547 15.9799 5.68756 15.9423 5.63014C15.9047 5.57272 15.8511 5.52751 15.7882 5.50005ZM10 3.73782L14.7665 5.82335L10 7.90888L8.76118 7.36676L10.6462 6.54194C10.7091 6.51442 10.7625 6.46918 10.8001 6.41177C10.8376 6.35435 10.8576 6.28724 10.8576 6.21864C10.8576 6.15004 10.8376 6.08293 10.8001 6.02552C10.7625 5.9681 10.7091 5.92287 10.6462 5.89535L9.13177 5.23499C9.08724 5.21556 9.03917 5.20553 8.99059 5.20553C8.942 5.20553 8.89394 5.21556 8.84941 5.23499L6.36788 6.31958L5.23529 5.82335L10 3.73782ZM6.82353 7.28947L7.52941 7.59829V9.13464L6.82353 8.7817V7.28947ZM7.24706 6.70499L8.98918 5.9437L9.62094 6.21935L7.88235 6.98135L7.24706 6.70499ZM4.70588 6.36299L6.11765 6.98064V8.99982C6.11762 9.06541 6.13586 9.1297 6.17034 9.1855C6.20481 9.2413 6.25415 9.28638 6.31282 9.3157L7.72459 10.0216C7.77841 10.0485 7.83822 10.0612 7.89832 10.0584C7.95843 10.0557 8.01684 10.0377 8.06801 10.006C8.11918 9.97438 8.16141 9.93017 8.19069 9.87761C8.21997 9.82505 8.23532 9.76587 8.23529 9.7057V7.9057L9.64706 8.52335V15.1795L4.70588 12.6658V6.36299ZM10.3529 15.1826V8.52476L15.2941 6.36299V12.6997L10.3529 15.1826Z"
				fill="white"/>
			<path
				d="M12.3146 12.6115L10.9003 13.3223C10.8167 13.3644 10.7532 13.438 10.7239 13.527C10.6945 13.6159 10.7017 13.7128 10.7438 13.7965C10.7859 13.8801 10.8595 13.9436 10.9485 13.9729C11.0374 14.0023 11.1343 13.9951 11.218 13.953L12.6322 13.2422C12.7158 13.2001 12.7793 13.1264 12.8087 13.0375C12.838 12.9486 12.8309 12.8516 12.7887 12.768C12.7466 12.6844 12.673 12.6209 12.5841 12.5915C12.4951 12.5622 12.3982 12.5693 12.3146 12.6115Z"
				fill="white"/>
			<path
				d="M11.0588 12.5788C11.1137 12.5788 11.1679 12.566 11.217 12.5414L12.6111 11.8408C12.6947 11.7987 12.7582 11.7251 12.7875 11.6361C12.8169 11.5472 12.8097 11.4503 12.7676 11.3666C12.7255 11.283 12.6519 11.2195 12.5629 11.1902C12.474 11.1608 12.3771 11.168 12.2934 11.2101L10.8997 11.9107C10.8287 11.9464 10.7719 12.0051 10.7384 12.0771C10.705 12.1492 10.6968 12.2304 10.7152 12.3077C10.7336 12.3849 10.7775 12.4537 10.8399 12.503C10.9023 12.5522 10.9794 12.5789 11.0588 12.5788Z"
				fill="white"/>
			<defs>
				<linearGradient id="paint0_linear" x1="20" y1="0" x2="0" y2="20" gradientUnits="userSpaceOnUse">
					<stop stop-color="#FB4E4A"/>
					<stop offset="1" stop-color="white" stop-opacity="0"/>
				</linearGradient>
			</defs>
		</symbol>
		<symbol viewBox="0 0 20 20" fill="none" id="icon-ktp">
			<circle cx="10" cy="10" r="10" fill="#FFB7B3"/>
			<circle cx="10" cy="10" r="10" fill="url(#paint0_linear)"/>
			<path
				d="M15.5 6H4.5C4.36739 6 4.24021 6.05268 4.14645 6.14645C4.05268 6.24021 4 6.36739 4 6.5V13.5C4 13.6326 4.05268 13.7598 4.14645 13.8536C4.24021 13.9473 4.36739 14 4.5 14H15.5C15.6326 14 15.7598 13.9473 15.8536 13.8536C15.9473 13.7598 16 13.6326 16 13.5V6.5C16 6.36739 15.9473 6.24021 15.8536 6.14645C15.7598 6.05268 15.6326 6 15.5 6ZM10 9.5H11V10.5H10V9.5ZM7.5 7C7.79667 7 8.08668 7.08797 8.33336 7.2528C8.58003 7.41762 8.77229 7.65189 8.88582 7.92597C8.99935 8.20006 9.02906 8.50166 8.97118 8.79264C8.9133 9.08361 8.77044 9.35088 8.56066 9.56066C8.35088 9.77044 8.08361 9.9133 7.79264 9.97118C7.50166 10.0291 7.20006 9.99935 6.92597 9.88582C6.65189 9.77229 6.41762 9.58003 6.2528 9.33336C6.08797 9.08668 6 8.79667 6 8.5C6.00045 8.10231 6.15863 7.72104 6.43983 7.43983C6.72104 7.15863 7.10231 7.00045 7.5 7ZM9.5 13.5H5.5V11.5C5.5 11.2348 5.60536 10.9804 5.79289 10.7929C5.98043 10.6054 6.23478 10.5 6.5 10.5H8.5C8.76522 10.5 9.01957 10.6054 9.20711 10.7929C9.39464 10.9804 9.5 11.2348 9.5 11.5V13.5ZM12.5 12H10V11H12.5V12ZM14.5 10.5H12V9.5H14.5V10.5ZM14.5 9H10V8H14.5V9Z"
				fill="white"/>
			<defs>
				<linearGradient id="paint0_linear" x1="20" y1="0" x2="0" y2="20" gradientUnits="userSpaceOnUse">
					<stop stop-color="#FB4E4A"/>
					<stop offset="1" stop-color="white" stop-opacity="0"/>
				</linearGradient>
			</defs>
		</symbol>
		<symbol viewBox="0 0 20 20" fill="none" id="icon-called">
			<circle cx="10" cy="10" r="10" fill="#FFB7B3"/>
			<circle cx="10" cy="10" r="10" fill="url(#paint0_linear)"/>
			<path
				d="M13.6446 16.0001C13.1454 16.0001 12.5424 15.8749 11.8792 15.6247C10.4254 15.0766 8.84356 13.9933 7.42524 12.5749C6.00651 11.1562 4.92319 9.574 4.37466 8.12015C3.87619 6.79829 3.87498 5.71336 4.37184 5.2169C4.44328 5.14546 4.51593 5.06877 4.591 4.98966C5.04427 4.51299 5.55647 3.97657 6.23536 4.00079C6.70316 4.02016 7.15642 4.31077 7.62059 4.88835C8.99209 6.59406 8.37375 7.20191 7.65813 7.90664L7.53179 8.03176C7.41474 8.14881 7.19356 8.69087 9.25122 10.7485C9.92285 11.4202 10.4956 11.9118 10.9533 12.2092C11.2415 12.3965 11.7569 12.6799 11.9684 12.4684L12.0955 12.34C12.7995 11.626 13.4073 11.0097 15.1118 12.38C15.6894 12.8441 15.9796 13.297 15.999 13.7656C16.0268 14.4441 15.4864 14.9575 15.0093 15.4104C14.9306 15.4854 14.8539 15.5581 14.7825 15.6291C14.5358 15.8761 14.1415 16.0001 13.6446 16.0001ZM6.18692 4.40361C5.7046 4.40361 5.26909 4.86212 4.88363 5.26776C4.80613 5.34929 4.73106 5.4284 4.6572 5.50226C4.28708 5.87198 4.32461 6.8435 4.75245 7.97808C5.2812 9.37945 6.33182 10.9108 7.711 12.29C9.08977 13.6683 10.6203 14.719 12.0221 15.2473C13.1567 15.676 14.1282 15.7123 14.4975 15.343C14.5714 15.2691 14.6505 15.194 14.732 15.1169C15.1465 14.723 15.6167 14.2766 15.5962 13.7814C15.582 13.4411 15.3342 13.075 14.8595 12.6936C13.4392 11.5513 13.042 11.9546 12.3833 12.6226L12.2542 12.7529C11.9393 13.0682 11.428 12.9983 10.7337 12.5471C10.2522 12.2339 9.65726 11.7245 8.96626 11.0331C7.25854 9.32577 6.71244 8.2808 7.24683 7.74519L7.37559 7.61805C8.0452 6.95934 8.44922 6.56177 7.30657 5.14062C6.92434 4.66636 6.55866 4.41854 6.21841 4.40401C6.20791 4.40361 6.19742 4.40361 6.18692 4.40361Z"
				fill="white"/>
			<defs>
				<linearGradient id="paint0_linear" x1="20" y1="0" x2="0" y2="20" gradientUnits="userSpaceOnUse">
					<stop stop-color="#FB4E4A"/>
					<stop offset="1" stop-color="white" stop-opacity="0"/>
				</linearGradient>
			</defs>
		</symbol>
		<symbol viewBox="0 0 20 20" fill="none" id="icon-whatsapp">
			<circle cx="10" cy="10" r="10" fill="#FFB7B3"/>
			<circle cx="10" cy="10" r="10" fill="url(#paint0_linear)"/>
			<path
				d="M14.2268 5.74429C13.0984 4.62013 11.5973 4.00064 9.99973 4C8.40572 4 6.90227 4.61894 5.76647 5.74283C4.62866 6.86863 4.00147 8.36476 4 9.95015V9.95198V9.95308C4.00018 10.9127 4.25229 11.8807 4.73084 12.7643L4.0164 16.0115L7.30109 15.2644C8.133 15.6837 9.06123 15.9047 9.99743 15.9051H9.99982C11.5935 15.9051 13.097 15.286 14.233 14.1621C15.3718 13.0353 15.9993 11.5411 16 9.95473C16.0005 8.37952 15.3708 6.88421 14.2268 5.74429ZM9.99973 14.9676H9.99762C9.157 14.9672 8.32407 14.7562 7.58902 14.3571L7.43369 14.2728L5.24952 14.7695L5.72395 12.6134L5.63249 12.4557C5.17777 11.6715 4.93749 10.8059 4.93749 9.95207C4.93923 7.18846 7.2099 4.93749 9.99954 4.93749C11.3472 4.93804 12.6135 5.46048 13.5651 6.40841C14.5311 7.37101 15.0629 8.63034 15.0624 9.95445C15.0613 12.7187 12.7902 14.9676 9.99973 14.9676Z"
				fill="white"/>
			<path
				d="M8.36712 7.32812H8.10412C8.01257 7.32812 7.86392 7.3624 7.73819 7.49922C7.61237 7.63613 7.25781 7.96704 7.25781 8.64006C7.25781 9.31307 7.74965 9.96335 7.8182 10.0547C7.88684 10.146 8.7676 11.5712 10.1626 12.1195C11.3219 12.5751 11.5579 12.4845 11.8094 12.4617C12.0611 12.4389 12.6215 12.1308 12.7358 11.8115C12.8502 11.4921 12.8502 11.2183 12.8159 11.1611C12.7816 11.1041 12.69 11.0699 12.5528 11.0015C12.4155 10.9331 11.7429 10.5966 11.6171 10.5509C11.4913 10.5053 11.3998 10.4825 11.3082 10.6195C11.2167 10.7562 10.9472 11.0726 10.8671 11.1638C10.7871 11.2552 10.707 11.2667 10.5697 11.1982C10.4324 11.1296 9.99494 10.9826 9.47066 10.5167C9.06259 10.1541 8.77942 9.69163 8.69932 9.55472C8.61932 9.4179 8.6908 9.34386 8.75962 9.27558C8.8213 9.21437 8.9046 9.13061 8.97324 9.05079C9.04178 8.97088 9.0613 8.91388 9.10712 8.8226C9.15285 8.73133 9.12994 8.65142 9.09567 8.58305C9.0613 8.5146 8.79793 7.8382 8.67586 7.56767H8.67595C8.57313 7.33986 8.46491 7.33216 8.36712 7.32812Z"
				fill="white"/>
			<defs>
				<linearGradient id="paint0_linear" x1="20" y1="0" x2="0" y2="20" gradientUnits="userSpaceOnUse">
					<stop stop-color="#FB4E4A"/>
					<stop offset="1" stop-color="white" stop-opacity="0"/>
				</linearGradient>
			</defs>
		</symbol>
		<symbol viewBox="0 0 16 16" fill="none" id="icon-home">
			<circle cx="8" cy="8" r="8" fill="#FFB7B3"/>
			<circle cx="8" cy="8" r="8" fill="url(#paint0_linear)"/>
			<path d="M13.8524 7.52376C14.0659 7.28122 14.0453 6.90948 13.8064 6.69367L8.54272 1.93628C8.3038 1.72047 7.92076 1.72499 7.68687 1.94647L2.40535 6.94731C2.17146 7.16879 2.15998 7.54006 2.37993 7.77622L2.51235 7.91866C2.73203 8.15482 3.08712 8.18298 3.30496 7.98136L3.69967 7.61624V12.9617C3.69967 13.2896 3.95694 13.5551 4.27421 13.5551H6.33297C6.65024 13.5551 6.90751 13.2896 6.90751 12.9617V9.22202H9.53347V12.9617C9.5289 13.2894 9.75592 13.5549 10.0732 13.5549H12.255C12.5722 13.5549 12.8295 13.2894 12.8295 12.9614V7.69151C12.8295 7.69151 12.9385 7.79018 13.073 7.91228C13.2073 8.03414 13.4893 7.93643 13.7028 7.69365L13.8524 7.52376Z" fill="white"/>
			<defs>
				<linearGradient id="paint0_linear" x1="16" y1="0" x2="0" y2="16" gradientUnits="userSpaceOnUse">
					<stop stop-color="#FB4E4A"/>
					<stop offset="1" stop-color="white" stop-opacity="0"/>
				</linearGradient>
			</defs>
		</symbol>
		<symbol viewBox="0 0 19 19" fill="none" id="icon-team">
			<circle cx="9.5" cy="9.5" r="9.5" fill="#FFB7B3"/>
			<circle cx="9.5" cy="9.5" r="9.5" fill="url(#paint0_linear)"/>
			<g clip-path="url(#clip0)">
				<path d="M15.6689 13.7034L15.145 11.8101C15.1325 11.7712 15.1076 11.7323 15.0826 11.7063C14.7583 10.6819 13.9598 9.89082 12.9494 9.6185L12.7997 9.59256C12.5751 9.52772 12.3256 9.60553 12.1634 9.80005C11.6145 10.4484 10.9159 10.5003 10.1799 10.5003C9.44388 10.5003 8.74528 10.4484 8.19638 9.80005C8.0342 9.60553 7.7847 9.52772 7.56015 9.59256L7.41045 9.63146C6.64947 9.83895 6.00077 10.3447 5.58909 11.019H4.01724C4.00476 11.019 4.00476 11.019 3.99229 11.0061C3.99229 10.9931 3.97981 10.9801 3.97981 10.9542L4.30416 9.74818C4.59109 8.80151 5.13999 8.51622 6.21285 8.23092C6.26275 8.21795 6.30017 8.19202 6.32512 8.16608C6.41245 8.24389 6.51225 8.30873 6.61205 8.3606C6.64947 8.38654 6.6869 8.38654 6.72432 8.38654C6.81165 8.38654 6.89897 8.33466 6.94887 8.24389C7.01125 8.11421 6.96135 7.95859 6.8366 7.89375C6.26275 7.58252 5.85107 6.7007 5.85107 5.79294C5.85107 4.98892 6.4873 4.32755 7.26075 4.32755C7.41045 4.32755 7.54768 4.35349 7.6849 4.39239C7.54768 4.74253 7.47283 5.1186 7.47283 5.52061C7.47283 7.73814 8.75776 9.60553 10.2797 9.60553C11.7767 9.60553 13.0991 7.69923 13.0991 5.52061C13.0991 3.89961 11.8391 2.58984 10.2797 2.58984C9.29418 2.58984 8.42093 3.12153 7.92193 3.92555C7.70985 3.84774 7.4853 3.80883 7.26075 3.80883C6.5871 3.80883 5.9883 4.18491 5.65147 4.74253C5.62652 4.71659 5.60157 4.70363 5.57662 4.69066C5.38949 4.58691 5.20237 4.54801 4.99029 4.54801C4.29169 4.53504 3.73031 5.1186 3.73031 5.84481C3.73031 6.25979 3.84259 6.64883 4.01724 6.96006C3.44339 7.11567 2.93191 7.3491 2.69488 8.14014L2.49528 8.89229C2.45786 9.02197 2.48281 9.16462 2.55766 9.26836C2.63251 9.38507 2.76973 9.44991 2.90696 9.44991H3.86754C3.85506 9.50178 3.83011 9.55366 3.81764 9.60553L3.49329 10.8245C3.44339 10.9931 3.48081 11.1747 3.59309 11.3173C3.69289 11.4599 3.84259 11.5378 4.01724 11.5378H5.33959C5.30217 11.6285 5.27722 11.7193 5.25227 11.8101L4.72832 13.7164C4.67842 13.9368 4.71584 14.1703 4.85307 14.3518C4.99029 14.5334 5.18989 14.6371 5.40197 14.6371H12.887H13.3111H14.9953C15.2074 14.6371 15.4194 14.5334 15.5442 14.3518C15.6814 14.1703 15.7313 13.9368 15.6689 13.7034ZM8.22133 4.4313C8.2338 4.41833 8.24628 4.40536 8.25875 4.37943C8.27123 4.36646 8.27123 4.34052 8.2837 4.32755C8.67043 3.60135 9.41893 3.10856 10.2797 3.10856C11.3151 3.10856 12.1884 3.8218 12.4878 4.7944C12.0512 4.88518 11.5896 4.70363 11.3151 4.31459C11.2278 4.19787 11.0781 4.17194 10.9658 4.26271C10.9159 4.30162 10.891 4.34052 10.8785 4.39239C10.866 4.40536 10.866 4.41833 10.8536 4.4313C10.5043 5.17047 9.33161 5.48171 7.99678 5.20938C8.0342 4.93705 8.10905 4.67769 8.22133 4.4313ZM8.91993 5.81887C9.91793 5.81887 10.7413 5.49467 11.1654 4.88518C11.4773 5.17047 11.864 5.32609 12.2757 5.32609C12.3755 5.32609 12.4878 5.31312 12.5876 5.28719C12.6001 5.36499 12.6001 5.42983 12.6001 5.50764C12.6001 7.41394 11.5147 9.08681 10.2797 9.08681C9.09458 9.08681 8.05915 7.54362 7.97183 5.7281C8.29618 5.79294 8.62053 5.81887 8.91993 5.81887ZM3.00676 8.93119L3.18141 8.28279C3.33111 7.7511 3.64299 7.59549 4.26674 7.43987C4.30416 7.4269 4.34159 7.41394 4.36654 7.388C4.42891 7.43987 4.47882 7.47878 4.55367 7.51768C4.59109 7.54362 4.62852 7.54362 4.66594 7.54362C4.75327 7.54362 4.84059 7.49174 4.89049 7.40097C4.95287 7.27129 4.90297 7.11567 4.79069 7.05083C4.46634 6.86928 4.22931 6.36353 4.22931 5.84481C4.22931 5.4039 4.56614 5.05376 4.99029 5.05376C5.12752 5.05376 5.23979 5.0797 5.35207 5.14454C5.38949 5.15751 5.41444 5.17047 5.45187 5.17047C5.38949 5.36499 5.35207 5.57248 5.35207 5.79294C5.35207 6.53211 5.58909 7.25832 5.96335 7.76407C5.21484 7.95859 4.55366 8.21795 4.11704 8.93119H3.00676ZM15.1575 14.0406C15.1325 14.0665 15.0826 14.1184 14.9953 14.1184H13.3111H12.887H5.40197C5.31464 14.1184 5.26474 14.0665 5.23979 14.0406C5.20237 13.9887 5.18989 13.9109 5.20237 13.859L5.72632 11.9657C5.97582 11.0709 6.66195 10.3706 7.5352 10.1372L7.6849 10.0983C7.72233 10.0853 7.7847 10.1113 7.82213 10.1502C8.50825 10.9672 9.35656 11.032 10.1799 11.032C11.0033 11.032 11.8516 10.9672 12.5377 10.1502C12.5751 10.1113 12.625 10.0853 12.6874 10.0983L12.8371 10.1372C13.6979 10.3706 14.3965 11.0709 14.646 11.9657L14.8705 12.7697C14.883 12.8086 14.8955 12.8346 14.9204 12.8605L15.1949 13.8461C15.2074 13.9109 15.1949 13.9887 15.1575 14.0406Z" fill="white"/>
			</g>
			<defs>
				<linearGradient id="paint0_linear" x1="19" y1="0" x2="0" y2="19" gradientUnits="userSpaceOnUse">
					<stop stop-color="#FB4E4A"/>
					<stop offset="1" stop-color="white" stop-opacity="0"/>
				</linearGradient>
				<clipPath id="clip0">
					<rect x="2.47809" y="2.58984" width="13.2174" height="12.0909" fill="white"/>
				</clipPath>
			</defs>
		</symbol>
		<symbol viewBox="0 0 18 18" fill="none" id="icon-officer">
			<circle cx="9" cy="9" r="9" fill="#FFB7B3"/>
			<circle cx="9" cy="9" r="9" fill="url(#paint0_linear)"/>
			<path d="M13.6695 9.83057C12.9888 9.14985 12.1785 8.64592 11.2945 8.34087C12.2413 7.68875 12.8633 6.59736 12.8633 5.36328C12.8633 3.37092 11.2424 1.75 9.25006 1.75C7.2577 1.75 5.63678 3.37092 5.63678 5.36328C5.63678 6.59736 6.25883 7.68875 7.20568 8.34087C6.32164 8.64592 5.51139 9.14985 4.83065 9.83057C3.65018 11.0111 3.00006 12.5806 3.00006 14.25H3.97662C3.97662 11.3422 6.34227 8.97656 9.25006 8.97656C12.1578 8.97656 14.5235 11.3422 14.5235 14.25H15.5001C15.5001 12.5806 14.8499 11.0111 13.6695 9.83057ZM9.25006 8C7.79618 8 6.61334 6.81719 6.61334 5.36328C6.61334 3.90938 7.79618 2.72656 9.25006 2.72656C10.7039 2.72656 11.8868 3.90938 11.8868 5.36328C11.8868 6.81719 10.7039 8 9.25006 8Z" fill="white"/>
			<defs>
				<linearGradient id="paint0_linear" x1="18" y1="0" x2="0" y2="18" gradientUnits="userSpaceOnUse">
					<stop stop-color="#FB4E4A"/>
					<stop offset="1" stop-color="white" stop-opacity="0"/>
				</linearGradient>
			</defs>
		</symbol>
		<symbol viewBox="0 0 72 72" fill="none" id="icon-channel">
			<circle cx="36" cy="36" r="36" fill="#FFB7B3"/>
			<circle cx="36" cy="36" r="36" fill="url(#paint0_linear)"/>
			<g clip-path="url(#clip0)">
				<path d="M37.0463 31.5712C36.6293 31.4565 36.202 31.394 35.7538 31.394C33.075 31.394 30.8965 33.5729 30.8965 36.2522C30.8965 38.9316 33.075 41.1105 35.7538 41.1105C38.4326 41.1105 40.611 38.9316 40.611 36.2522C40.611 35.8039 40.5485 35.3661 40.4338 34.9595L53.9633 21.4272L56.1522 21.7191L63.0004 14.8696L57.82 14.1815L57.132 9L50.2839 15.8495L50.5758 18.0389L37.0463 31.5712Z" fill="white"/>
				<path d="M36.273 26.9202L40.2756 22.9168C35.3662 21.2487 29.7063 22.3747 25.7976 26.2947C20.3045 31.7889 20.3045 40.7131 25.7976 46.2073C31.2907 51.7015 40.213 51.7015 45.7061 46.2073C49.6253 42.2873 50.751 36.6367 49.0833 31.7159L45.0807 35.7193C45.2267 38.284 44.3198 40.9008 42.3603 42.8607C38.7121 46.5097 32.7916 46.5097 29.1435 42.8607C25.4953 39.2118 25.4953 33.2902 29.1435 29.6413C31.103 27.6813 33.7089 26.7742 36.273 26.9202Z" fill="white"/>
				<path d="M52.5312 28.2777C55.8145 35.1794 54.595 43.6762 48.883 49.3893C41.6284 56.6455 29.8708 56.6455 22.6162 49.3893C15.3615 42.1332 15.3615 30.3733 22.6162 23.1171C28.3282 17.404 36.8232 16.1946 43.7235 19.4682L47.5488 15.642C38.4805 10.4397 26.7021 11.7116 18.9576 19.4578C9.6808 28.7365 9.6808 43.77 18.9576 53.0383C28.2344 62.3169 43.2648 62.3169 52.5312 53.0383C60.2757 45.2921 61.5474 33.5113 56.3461 24.4412L52.5312 28.2777Z" fill="white"/>
			</g>
			<defs>
				<linearGradient id="paint0_linear" x1="72" y1="0" x2="0" y2="72" gradientUnits="userSpaceOnUse">
					<stop stop-color="#FB4E4A"/>
					<stop offset="1" stop-color="white" stop-opacity="0"/>
				</linearGradient>
				<clipPath id="clip0">
					<path d="M12 9H63V60H12V9Z" fill="white"/>
				</clipPath>
			</defs>
		</symbol>


	</defs>
</svg>
