<svg version="1.1"
	 xmlns="http://www.w3.org/2000/svg">
	<defs>
		<symbol viewBox="0 0 97 91" id="icon-team">
			<path
				d="M96.8051 83.6442L92.96 69.3944C92.8684 69.1016 92.6853 68.8088 92.5022 68.6136C90.1218 60.9031 84.2625 54.9495 76.8468 52.8998L75.7482 52.7046C74.1002 52.2166 72.2692 52.8022 71.079 54.2663C67.0507 59.1463 61.9238 59.5367 56.5222 59.5367C51.1207 59.5367 45.9938 59.1463 41.9655 54.2663C40.7753 52.8022 38.9443 52.2166 37.2963 52.7046L36.1977 52.9974C30.613 54.5591 25.8523 58.3655 22.8311 63.4408H11.2955C11.204 63.4408 11.204 63.4408 11.1124 63.3432C11.1124 63.2456 11.0209 63.148 11.0209 62.9528L13.4012 53.8758C15.5069 46.751 19.5352 44.6037 27.4087 42.4565C27.7749 42.3589 28.0496 42.1637 28.2327 41.9685C28.8735 42.5541 29.6059 43.0421 30.3384 43.4325C30.613 43.6277 30.8877 43.6277 31.1623 43.6277C31.8032 43.6277 32.4441 43.2373 32.8103 42.5541C33.268 41.5781 32.9018 40.4069 31.9863 39.9189C27.7749 37.5765 24.7537 30.9396 24.7537 24.1075C24.7537 18.0562 29.4228 13.0786 35.0991 13.0786C36.1977 13.0786 37.2048 13.2738 38.2118 13.5666C37.2048 16.2018 36.6555 19.0322 36.6555 22.0579C36.6555 38.7477 46.0853 52.8022 57.2547 52.8022C68.2409 52.8022 77.9454 38.4549 77.9454 22.0579C77.9454 9.85772 68.6987 0 57.2547 0C50.0221 0 43.6134 4.00165 39.9513 10.0529C38.3949 9.46732 36.747 9.17451 35.0991 9.17451C30.1553 9.17451 25.7608 12.0049 23.2889 16.2018C23.1058 16.0066 22.9226 15.909 22.7395 15.8114C21.3663 15.0306 19.993 14.7378 18.4366 14.7378C13.3097 14.6402 9.18984 19.0322 9.18984 24.4979C9.18984 27.6211 10.0138 30.5492 11.2955 32.8916C7.08414 34.0628 3.33051 35.8196 1.59102 41.7733L0.126186 47.4342C-0.148471 48.4102 0.0346335 49.4838 0.583946 50.2646C1.13326 51.143 2.14033 51.631 3.1474 51.631H10.1969C10.1054 52.0214 9.92225 52.4118 9.8307 52.8022L7.45035 61.9768C7.08414 63.2456 7.3588 64.612 8.18277 65.6856C8.91518 66.7592 10.0138 67.3448 11.2955 67.3448H21.0001C20.7254 68.028 20.5423 68.7112 20.3592 69.3944L16.514 83.7418C16.1478 85.401 16.4225 87.1578 17.4295 88.5243C18.4366 89.8907 19.9014 90.6715 21.4578 90.6715H76.389H79.5018H91.8613C93.4177 90.6715 94.9741 89.8907 95.8896 88.5243C96.8967 87.1578 97.2629 85.401 96.8051 83.6442ZM42.1486 13.8594C42.2401 13.7618 42.3317 13.6642 42.4232 13.469C42.5148 13.3714 42.5148 13.1762 42.6063 13.0786C45.4445 7.61289 50.9376 3.90405 57.2547 3.90405C64.8535 3.90405 71.2621 9.27211 73.4594 16.5922C70.255 17.2754 66.8676 15.909 64.8535 12.981C64.2126 12.1025 63.114 11.9073 62.29 12.5906C61.9238 12.8834 61.7407 13.1762 61.6492 13.5666C61.5576 13.6642 61.5576 13.7618 61.4661 13.8594C58.9026 19.4226 50.2967 21.7651 40.5006 19.7154C40.7753 17.6658 41.3246 15.7138 42.1486 13.8594ZM47.2755 24.3027C54.5997 24.3027 60.6421 21.8627 63.7549 17.2754C66.0437 19.4226 68.8818 20.5938 71.903 20.5938C72.6354 20.5938 73.4594 20.4962 74.1918 20.301C74.2833 20.8867 74.2833 21.3747 74.2833 21.9603C74.2833 36.3076 66.3183 48.8982 57.2547 48.8982C48.5572 48.8982 40.9584 37.2836 40.3175 23.6195C42.6979 24.1075 45.0782 24.3027 47.2755 24.3027ZM3.87982 47.727L5.16155 42.8469C6.26017 38.8453 8.54897 37.6741 13.1266 36.5028C13.4012 36.4052 13.6759 36.3076 13.859 36.1124C14.3168 36.5028 14.683 36.7956 15.2323 37.0884C15.5069 37.2836 15.7816 37.2836 16.0562 37.2836C16.6971 37.2836 17.338 36.8932 17.7042 36.21C18.1619 35.234 17.7957 34.0628 16.9718 33.5748C14.5914 32.2084 12.8519 28.4019 12.8519 24.4979C12.8519 21.1795 15.3238 18.5442 18.4366 18.5442C19.4437 18.5442 20.2676 18.7394 21.0916 19.2274C21.3663 19.325 21.5494 19.4226 21.824 19.4226C21.3663 20.8867 21.0916 22.4483 21.0916 24.1075C21.0916 29.6708 22.8311 35.1364 25.5777 38.9429C20.0845 40.4069 15.2323 42.3589 12.028 47.727H3.87982ZM93.0515 86.1818C92.8684 86.377 92.5022 86.7674 91.8613 86.7674H79.5018H76.389H21.4578C20.8169 86.7674 20.4507 86.377 20.2676 86.1818C19.993 85.7914 19.9014 85.2058 19.993 84.8154L23.8382 70.5656C25.6692 63.8312 30.7046 58.5607 37.1132 56.8039L38.2118 56.5111C38.4865 56.4135 38.9443 56.6087 39.2189 56.9015C44.2543 63.0504 50.4798 63.5384 56.5222 63.5384C62.5647 63.5384 68.7902 63.0504 73.8256 56.9015C74.1002 56.6087 74.4664 56.4135 74.9242 56.5111L76.0228 56.8039C82.3399 58.5607 87.4668 63.8312 89.2979 70.5656L90.9458 76.6169C91.0374 76.9097 91.1289 77.1049 91.312 77.3001L93.3262 84.7178C93.4177 85.2058 93.3262 85.7914 93.0515 86.1818Z"/>
		</symbol>
		<symbol viewBox="0 0 90 97" id="icon-officer">
			<path d="M76.3835 62.4914C71.51 57.2766 65.7093 53.4161 59.3804 51.0792C66.1589 46.0835 70.6121 37.7227 70.6121 28.2687C70.6121 13.0058 59.0078 0.588379 44.7443 0.588379C30.4808 0.588379 18.8765 13.0058 18.8765 28.2687C18.8765 37.7227 23.3298 46.0835 30.1084 51.0792C23.7795 53.4161 17.9788 57.2766 13.1054 62.4914C4.65428 71.5348 0 83.5583 0 96.3474H6.9913C6.9913 74.0716 23.9272 55.9491 44.7443 55.9491C65.5614 55.9491 82.4973 74.0716 82.4973 96.3474H89.4886C89.4886 83.5583 84.8344 71.5348 76.3835 62.4914ZM44.7443 48.4679C34.3358 48.4679 25.8678 39.4067 25.8678 28.2687C25.8678 17.1308 34.3358 8.06955 44.7443 8.06955C55.1528 8.06955 63.6208 17.1308 63.6208 28.2687C63.6208 39.4067 55.1528 48.4679 44.7443 48.4679Z"/>
		</symbol>
		<symbol viewBox="0 0 75 100" id="icon-lead">
			<path d="M73.3311 88.8762C74.1192 88.8762 74.7578 88.2203 74.7578 87.4113V18.0664C74.7578 17.2574 74.1192 16.6016 73.3311 16.6016H69.0511V9.76562C69.0511 8.95664 68.4125 8.30078 67.6244 8.30078H63.344V1.46484C63.344 0.655859 62.7054 0 61.9173 0H1.42668C0.63858 0 0 0.655859 0 1.46484V6.22519C0 7.03418 0.63858 7.69004 1.42668 7.69004C2.21477 7.69004 2.85335 7.03418 2.85335 6.22519V2.92969H60.4907V80.4688H2.85335V12.5977C2.85335 11.7887 2.21477 11.1328 1.42668 11.1328C0.63858 11.1328 0 11.7887 0 12.5977V81.9336C0 82.7426 0.63858 83.3984 1.42668 83.3984H5.70708V90.2344C5.70708 91.0434 6.34566 91.6992 7.13376 91.6992H11.4138V98.5352C11.4138 99.3441 12.0524 100 12.8405 100H73.3311C74.1192 100 74.7578 99.3441 74.7578 98.5352V93.6932C74.7578 92.8842 74.1192 92.2283 73.3311 92.2283C72.543 92.2283 71.9045 92.8842 71.9045 93.6932V97.0703H14.2671V91.6992H20.772C21.5601 91.6992 22.1987 91.0434 22.1987 90.2344C22.1987 89.4254 21.5601 88.7695 20.772 88.7695H8.56044V83.3984H61.9173C62.7054 83.3984 63.344 82.7426 63.344 81.9336V11.2305H66.1978V88.7695H26.9122C26.1241 88.7695 25.4856 89.4254 25.4856 90.2344C25.4856 91.0434 26.1241 91.6992 26.9122 91.6992H67.6244C68.4125 91.6992 69.0511 91.0434 69.0511 90.2344V19.5312H71.9045V87.4113C71.9045 88.2203 72.543 88.8762 73.3311 88.8762Z"/>
			<path d="M51.9017 24.3164V12.5977C51.9017 11.7887 51.2631 11.1328 50.475 11.1328H12.8051C12.017 11.1328 11.3784 11.7887 11.3784 12.5977V24.3164C11.3784 25.1254 12.017 25.7812 12.8051 25.7812H50.4748C51.2629 25.7812 51.9017 25.1254 51.9017 24.3164ZM49.0484 22.8516H14.2318V14.0625H49.0482V22.8516H49.0484Z"/>
			<path d="M10.6206 61.5234C10.6206 62.3324 11.2592 62.9883 12.0473 62.9883H50.4722C51.2603 62.9883 51.8989 62.3324 51.8989 61.5234C51.8989 60.7145 51.2603 60.0586 50.4722 60.0586H12.0473C11.2592 60.0586 10.6206 60.7145 10.6206 61.5234Z"/>
			<path d="M12.0473 69.2383H50.4722C51.2603 69.2383 51.8989 68.5824 51.8989 67.7734C51.8989 66.9645 51.2603 66.3086 50.4722 66.3086H12.0473C11.2592 66.3086 10.6206 66.9645 10.6206 67.7734C10.6206 68.5824 11.2592 69.2383 12.0473 69.2383Z"/>
			<path d="M20.512 52.3438C20.512 53.1527 21.1505 53.8086 21.9386 53.8086C22.7267 53.8086 23.3653 53.1527 23.3653 52.3438C23.3653 47.8744 26.9067 44.2383 31.2596 44.2383C35.6125 44.2383 39.1539 47.8744 39.1539 52.3438C39.1539 53.1527 39.7924 53.8086 40.5805 53.8086C41.3686 53.8086 42.0072 53.1527 42.0072 52.3438C42.0072 47.9871 39.5351 44.2129 35.956 42.4199C37.4481 41.0766 38.393 39.107 38.393 36.9141C38.393 32.8754 35.193 29.5898 31.2596 29.5898C27.3261 29.5898 24.1262 32.8754 24.1262 36.9141C24.1262 39.107 25.071 41.0766 26.5632 42.4199C22.9841 44.2129 20.512 47.9871 20.512 52.3438ZM26.9796 36.9141C26.9796 34.4908 28.8997 32.5195 31.2596 32.5195C33.6195 32.5195 35.5396 34.4908 35.5396 36.9141C35.5396 39.3373 33.6195 41.3086 31.2596 41.3086C28.8997 41.3086 26.9796 39.3373 26.9796 36.9141Z"/>
		</symbol>
		<symbol viewBox="0 0 75 95" id="icon-new-lead">
			<path d="M68.8418 0H17.5754C14.1797 0 11.4175 2.70743 11.4175 6.03554V11.1906H4.3946C1.97135 11.1906 0 13.1229 0 15.4978V89.8262C0 92.2012 1.97153 94.133 4.3946 94.133H59.1859C61.6091 94.133 63.5805 92.2012 63.5805 89.8262V82.9426H68.8418C72.2372 82.9426 75 80.2349 75 76.9066V6.03554C75 2.70743 72.2372 0 68.8418 0ZM59.1456 89.7861H4.43493V15.5369H39.7451V29.6322C39.7451 32.3446 41.9966 34.5512 44.764 34.5512H59.1456V89.7861ZM44.1804 18.6108L56.0098 30.2048H44.7642C44.4423 30.2048 44.1804 29.9481 44.1804 29.6326V18.6108ZM68.8418 78.5956H63.5805V32.3783C63.5805 32.3606 63.5781 32.3448 63.5763 32.3281C63.5631 31.7802 63.3425 31.2448 62.9312 30.8414L43.5306 11.8271C43.5297 11.8262 43.5286 11.8256 43.5278 11.8247C43.1268 11.4329 42.5735 11.1908 41.9628 11.1908H15.8522V6.03554C15.8522 5.10451 16.6251 4.34685 17.5752 4.34685H68.8412C69.7915 4.34685 70.5644 5.10432 70.5644 6.03554V76.9066H70.565C70.565 77.8378 69.7921 78.5956 68.8418 78.5956Z"/>
			<path d="M43.007 57.3064C43.7421 56.6721 44.8992 56.6721 45.6343 57.3064C46.3444 57.9406 46.3444 58.9392 45.6343 59.5735L34.6255 69.0749C34.2845 69.3687 33.811 69.5504 33.2862 69.5504C32.7615 69.5504 32.288 69.3687 31.9453 69.0749L20.9365 59.5735C20.2015 58.9392 20.2015 57.9406 20.9365 57.3064C21.6715 56.6721 22.8287 56.6721 23.5637 57.3064L31.4205 64.1092V39.9597C31.4189 39.0754 32.2599 38.3726 33.2846 38.3726C34.3093 38.3726 35.1238 39.0754 35.1238 39.9597V64.1074L43.007 57.3064Z"/>
		</symbol>
		<symbol viewBox="0 0 75 94" id="icon-on-progress">
			<path d="M63.3616 30.335H38.6093C37.9445 30.335 37.4058 30.9492 37.4058 31.7072C37.4058 32.4653 37.9445 33.0795 38.6093 33.0795H63.3616C64.0263 33.0795 64.5651 32.4653 64.5651 31.7072C64.5651 30.9492 64.0263 30.335 63.3616 30.335Z"/>
			<path d="M63.3616 38.8877H38.6093C37.9445 38.8877 37.4058 39.5019 37.4058 40.26C37.4058 41.018 37.9445 41.6322 38.6093 41.6322H63.3616C64.0263 41.6322 64.5651 41.018 64.5651 40.26C64.5651 39.5019 64.0263 38.8877 63.3616 38.8877Z"/>
			<path d="M63.3616 47.4399H38.6093C37.9445 47.4399 37.4058 48.0542 37.4058 48.8122C37.4058 49.5703 37.9445 50.1845 38.6093 50.1845H63.3616C64.0263 50.1845 64.5651 49.5703 64.5651 48.8122C64.5651 48.0542 64.0263 47.4399 63.3616 47.4399Z"/>
			<path d="M66.1411 22.1025H35.83C30.945 22.1025 26.9707 26.6341 26.9707 32.2041V48.2674C26.9707 53.8374 30.945 58.369 35.83 58.369H38.798L36.8481 68.3224C36.6225 69.474 37.0751 70.6399 37.9748 71.2235C38.3394 71.4604 38.7387 71.5755 39.1347 71.5755C39.7155 71.5755 40.2896 71.3267 40.7372 70.8458L52.3423 58.369H66.1411C71.0256 58.369 75.0002 53.8374 75.0002 48.2674V32.2041C75.0002 26.6339 71.0262 22.1025 66.1411 22.1025ZM72.5931 48.2674C72.5931 52.324 69.6986 55.6245 66.1411 55.6245H51.8645C51.5575 55.6245 51.2622 55.758 51.0387 55.9983L39.2445 68.678L41.4744 57.2959C41.554 56.8893 41.4675 56.4638 41.239 56.1388C41.0106 55.8139 40.6651 55.6245 40.2998 55.6245H35.8298C32.2721 55.6245 29.3776 52.324 29.3776 48.2674V32.2041C29.3776 28.1475 32.2721 24.8471 35.8298 24.8471H66.1411C69.6986 24.8471 72.5931 28.1475 72.5931 32.2041V48.2674Z"/>
			<path d="M55.1446 61.1227C54.4798 61.1227 53.9411 61.7367 53.9411 62.4951V80.6978H2.40701V13.1391H53.9411V17.9891C53.9411 18.7471 54.4798 19.3613 55.1446 19.3613C55.8094 19.3613 56.3481 18.7471 56.3481 17.9891V6.28299C56.3481 2.81847 53.8763 0 50.838 0H5.51013C2.47184 0 0 2.81847 0 6.28299V87.3975C0 90.8625 2.47184 93.6806 5.51013 93.6806H50.8381C53.8764 93.6806 56.3483 90.8625 56.3483 87.3975V62.4951C56.3481 61.7367 55.8094 61.1227 55.1446 61.1227ZM5.51013 2.74455H50.8381C52.5492 2.74455 53.9413 4.332 53.9413 6.28299V10.3946H2.40701V6.28299C2.40701 4.332 3.79891 2.74455 5.51013 2.74455ZM50.838 90.9359H5.51013C3.79906 90.9359 2.40701 89.3487 2.40701 87.3975V83.4426H53.9411V87.3975C53.9411 89.3487 52.549 90.9359 50.838 90.9359Z"/>
		</symbol>
		<symbol viewBox="0 0 23 23" id="icon-pic-detail">
			<circle cx="11.5" cy="11.5" r="11.5" fill="#FFB7B3"/>
			<circle cx="11.5" cy="11.5" r="11.5" fill="url(#paint0_linear)"/>
			<g clip-path="url(#clip0)">
				<path d="M19.3338 16.2759V18.5277H3.98547V16.2754C3.98547 15.2121 4.90221 13.903 6.0221 13.3711L8.5141 12.1871L10.244 15.792L11.1297 13.3906C11.3043 13.4236 11.4775 13.4677 11.6596 13.4677C11.8418 13.4677 12.0144 13.4236 12.1895 13.3906L13.0302 15.6739L14.7261 12.1471L17.2986 13.3706C18.417 13.9025 19.3338 15.2116 19.3338 16.2759ZM6.24929 8.3836V6.7573C6.24929 6.48158 6.3929 6.23989 6.60957 6.10077C6.90031 3.56975 9.05303 1.59717 11.6606 1.59717C14.2682 1.59717 16.4214 3.56975 16.7127 6.10077C16.9288 6.23989 17.0725 6.48158 17.0725 6.7573V8.3836C17.0725 8.81545 16.7227 9.16573 16.2903 9.16573C15.858 9.16573 15.5082 8.81545 15.5082 8.3836V8.04183C15.0849 10.171 13.5261 12.1476 11.6611 12.1476C9.79613 12.1476 8.23738 10.171 7.81404 8.04183V8.3836C7.81404 8.73388 7.58135 9.02712 7.2636 9.1267C7.57485 10.186 8.2654 11.1013 9.21916 11.7018C9.3953 11.6437 9.61748 11.6547 9.83316 11.7668C10.1794 11.947 10.3561 12.2972 10.225 12.5474C10.0944 12.7976 9.70806 12.8537 9.35978 12.673C9.10557 12.5404 8.94444 12.3178 8.92743 12.1096C7.83506 11.411 7.06044 10.3417 6.74068 9.10818C6.45345 8.99309 6.24929 8.71287 6.24929 8.3836ZM7.1425 5.91813C7.16602 5.91963 7.18854 5.92013 7.21106 5.92864C7.2676 5.94965 7.30863 5.99019 7.33716 6.03772C7.50679 6.10978 7.6419 6.24139 7.72497 6.40452C7.95565 4.24229 9.62699 3.09837 11.6596 3.09837C13.6922 3.09837 15.3636 4.24229 15.5943 6.40452C15.7089 6.17984 15.9265 6.01921 16.1872 5.98568C15.849 3.78742 13.9505 2.09707 11.6596 2.09707C9.3923 2.09757 7.50879 3.75339 7.1425 5.91813Z" fill="white"/>
			</g>
			<defs>
				<linearGradient id="paint0_linear" x1="23" y1="0" x2="0" y2="23" gradientUnits="userSpaceOnUse">
					<stop stop-color="#FB4E4A"/>
					<stop offset="1" stop-color="white" stop-opacity="0"/>
				</linearGradient>
				<clipPath id="clip0">
					<rect width="16.9306" height="16.9306" fill="white" transform="translate(3.19446 1.59717)"/>
				</clipPath>
			</defs>
		</symbol>
		<symbol viewBox="0 0 23 23" id="icon-lead-detail">
			<circle cx="11.5" cy="11.5" r="11.5" fill="#FFB7B3"/>
			<circle cx="11.5" cy="11.5" r="11.5" fill="url(#paint0_linear)"/>
			<g clip-path="url(#clip0)">
				<path d="M11.9988 3C10.9001 3 9.97339 3.92667 9.97339 5.02539C9.97339 6.12411 10.9001 7.05078 11.9988 7.05078C13.0975 7.05078 13.991 6.12411 13.991 5.02539C13.991 3.92667 13.0975 3 11.9988 3Z" fill="white"/>
				<path d="M14.2098 7.05078C13.6625 7.6577 12.8785 8.04687 11.9988 8.04687C11.119 8.04687 10.3019 7.6577 9.75451 7.05078C9.27665 7.58067 8.97729 8.27485 8.97729 9.04297V9.54102C8.97729 9.8163 9.20005 10.0391 9.47534 10.0391H14.489C14.7643 10.0391 14.9871 9.8163 14.9871 9.54102V9.04297C14.9871 8.27485 14.6877 7.58067 14.2098 7.05078Z" fill="white"/>
				<path d="M7.81258 18.2868L5.2745 13.1982C5.02943 12.7069 4.43297 12.5065 3.941 12.7502L3.27763 13.0788C3.03063 13.2013 2.93013 13.5015 3.05341 13.7481L6.04169 19.7246C6.16458 19.9711 6.46351 20.0692 6.70851 19.9484L7.36334 19.6239C7.85724 19.3793 8.05855 18.78 7.81258 18.2868Z" fill="white"/>
				<path d="M19.5922 11.2246C19.1838 10.9258 18.616 10.9856 18.2773 11.3541L15.5547 14.701C15.3654 14.9002 15.0068 15.0198 14.8176 15.0198H12.4966C12.2177 15.0198 11.9986 14.8006 11.9986 14.5217C11.9986 14.2428 12.2177 14.0237 12.4966 14.0237C13.1637 14.0237 13.9022 14.0237 14.4888 14.0237C15.0367 14.0237 15.4849 13.5754 15.4849 13.0276C15.4849 12.4797 15.0367 12.0315 14.4888 12.0315C12.1498 12.0315 14.3809 12.0315 11.8791 12.0315C11.6308 12.0315 11.5071 11.8741 11.3113 11.7027C10.5407 11.0093 9.38721 10.6752 8.21945 10.9459C7.57106 11.0961 7.13381 11.3581 6.69035 11.7093L6.67558 11.6973L5.9552 12.3313L8.78623 18.008H9.62454H14.4888C15.4252 18.008 16.3217 17.5598 16.8795 16.8127L19.8013 12.6291C20.13 12.1908 20.0404 11.5534 19.5922 11.2246Z" fill="white"/>
			</g>
			<defs>
				<linearGradient id="paint0_linear" x1="23" y1="0" x2="0" y2="23" gradientUnits="userSpaceOnUse">
					<stop stop-color="#FB4E4A"/>
					<stop offset="1" stop-color="white" stop-opacity="0"/>
				</linearGradient>
				<clipPath id="clip0">
					<rect width="17" height="17" fill="white" transform="translate(2.99976 3)"/>
				</clipPath>
			</defs>
		</symbol>
		<symbol viewBox="0 0 23 23" id="icon-channel-detail">
			<circle cx="11.5" cy="11.5" r="11.5" fill="#FFB7B3"/>
			<circle cx="11.5" cy="11.5" r="11.5" fill="url(#paint0_linear)"/>
			<g clip-path="url(#clip0)">
				<path d="M11.8343 10.0852C11.7011 10.0486 11.5646 10.0286 11.4214 10.0286C10.5657 10.0286 9.86975 10.7247 9.86975 11.5806C9.86975 12.4365 10.5657 13.1325 11.4214 13.1325C12.2771 13.1325 12.973 12.4365 12.973 11.5806C12.973 11.4374 12.953 11.2975 12.9164 11.1676L17.2383 6.8448L17.9376 6.93805L20.1252 4.75L18.4703 4.53019L18.2506 2.875L16.063 5.06305L16.1562 5.76243L11.8343 10.0852Z" fill="white"/>
				<path d="M11.5868 8.59948L12.8654 7.32062C11.2971 6.78777 9.48912 7.14745 8.24049 8.39966C6.48575 10.1548 6.48575 13.0055 8.24049 14.7606C9.99524 16.5157 12.8454 16.5157 14.6002 14.7606C15.8521 13.5084 16.2117 11.7034 15.679 10.1314L14.4004 11.4103C14.447 12.2296 14.1573 13.0655 13.5314 13.6916C12.366 14.8572 10.4747 14.8572 9.30932 13.6916C8.14393 12.526 8.14393 10.6343 9.30932 9.46871C9.9353 8.8426 10.7677 8.55286 11.5868 8.59948Z" fill="white"/>
				<path d="M16.7808 9.03304C17.8297 11.2377 17.4401 13.952 15.6154 15.777C13.298 18.095 9.54211 18.095 7.22465 15.777C4.9072 13.4591 4.9072 9.70245 7.22465 7.38451C9.04932 5.55947 11.763 5.17315 13.9673 6.21889L15.1892 4.99664C12.2924 3.33479 8.52989 3.7411 6.05594 6.21556C3.09252 9.17958 3.09252 13.982 6.05594 16.9427C9.01935 19.9067 13.8208 19.9067 16.7808 16.9427C19.2548 14.4682 19.661 10.7049 17.9995 7.80747L16.7808 9.03304Z" fill="white"/>
			</g>
			<defs>
				<linearGradient id="paint0_linear" x1="23" y1="0" x2="0" y2="23" gradientUnits="userSpaceOnUse">
					<stop stop-color="#FB4E4A"/>
					<stop offset="1" stop-color="white" stop-opacity="0"/>
				</linearGradient>
				<clipPath id="clip0">
					<rect width="16.2917" height="16.2917" fill="white" transform="translate(3.83337 2.875)"/>
				</clipPath>
			</defs>
		</symbol>

		<symbol viewBox="0 0 23 23" id="icon-officer-detail">
			<circle cx="11.5" cy="11.5" r="11.5" fill="#FFB7B3"/>
			<circle cx="11.5" cy="11.5" r="11.5" fill="url(#paint0_linear)"/>
			<path d="M17.4665 12.5615C16.5967 11.6917 15.5614 11.0478 14.4318 10.658C15.6416 9.82473 16.4365 8.43018 16.4365 6.8533C16.4365 4.30751 14.3653 2.23633 11.8195 2.23633C9.27369 2.23633 7.20251 4.30751 7.20251 6.8533C7.20251 8.43018 7.99735 9.82473 9.20722 10.658C8.07762 11.0478 7.04229 11.6917 6.17246 12.5615C4.66409 14.0699 3.83337 16.0754 3.83337 18.2086H5.0812C5.0812 14.493 8.10398 11.4703 11.8195 11.4703C15.535 11.4703 18.5578 14.493 18.5578 18.2086H19.8056C19.8056 16.0754 18.9749 14.0699 17.4665 12.5615ZM11.8195 10.2224C9.96175 10.2224 8.45034 8.71107 8.45034 6.8533C8.45034 4.99553 9.96175 3.48416 11.8195 3.48416C13.6772 3.48416 15.1886 4.99553 15.1886 6.8533C15.1886 8.71107 13.6772 10.2224 11.8195 10.2224Z" fill="white"/>
			<defs>
				<linearGradient id="paint0_linear" x1="23" y1="0" x2="0" y2="23" gradientUnits="userSpaceOnUse">
					<stop stop-color="#FB4E4A"/>
					<stop offset="1" stop-color="white" stop-opacity="0"/>
				</linearGradient>
			</defs>
		</symbol>

		<symbol viewBox="0 0 23 23" id="icon-coverage-detail">
			<circle cx="11.5" cy="11.5" r="11.5" fill="#FFB7B3"/>
			<circle cx="11.5" cy="11.5" r="11.5" fill="url(#paint0_linear)"/>
			<path d="M3.70055 13.0146C3.6313 12.6564 3.58698 12.2939 3.56746 11.9297C3.55901 11.7732 3.42522 11.6531 3.26844 11.6616C3.1118 11.6701 2.99173 11.8038 3.00018 11.9602C3.02081 12.3502 3.06818 12.7384 3.142 13.1219C3.16776 13.255 3.28423 13.3512 3.41996 13.3514C3.4381 13.3514 3.45624 13.3496 3.47411 13.3463C3.54821 13.3325 3.61385 13.2896 3.65623 13.2273C3.69875 13.1651 3.71468 13.0886 3.70055 13.0146Z" fill="white"/>
			<path d="M4.96714 16.0161C4.87795 15.8875 4.70109 15.8554 4.57229 15.9445C4.44349 16.0336 4.41136 16.2102 4.50055 16.3389C4.72339 16.66 4.96797 16.9655 5.23292 17.2529C5.33887 17.3682 5.51836 17.3758 5.63373 17.2699C5.74909 17.164 5.75671 16.9848 5.65076 16.8696C5.40354 16.601 5.17516 16.3159 4.96714 16.0161Z" fill="white"/>
			<path d="M3.27627 11.0948C3.28416 11.0953 3.29192 11.0953 3.29981 11.0948C3.44786 11.0953 3.57126 10.982 3.58345 10.8347C3.61323 10.4711 3.66849 10.11 3.74854 9.75409C3.78288 9.60121 3.68649 9.44945 3.53331 9.41514C3.38028 9.38083 3.22835 9.47712 3.194 9.62999C3.10785 10.0118 3.0483 10.3992 3.01561 10.7892C3.00938 10.8643 3.03348 10.9387 3.08237 10.9961C3.13126 11.0534 3.20106 11.089 3.27627 11.0948Z" fill="white"/>
			<path d="M7.3353 18.2582C7.02424 18.0667 6.72689 17.8539 6.44519 17.6215C6.32442 17.5219 6.14562 17.5389 6.04576 17.6595C5.94605 17.7802 5.96308 17.9588 6.08385 18.0584C6.38577 18.3071 6.70417 18.535 7.03712 18.7404C7.1234 18.7981 7.23434 18.8042 7.3263 18.7562C7.4184 18.7082 7.47685 18.6138 7.47865 18.5101C7.48045 18.4065 7.42546 18.31 7.3353 18.2587V18.2582Z" fill="white"/>
			<path d="M3.6956 8.87294C3.72746 8.88484 3.76125 8.89106 3.79546 8.89106C3.91359 8.89106 4.01927 8.81788 4.06095 8.70748C4.15666 8.45223 4.26579 8.20211 4.38794 7.95834C4.4565 7.81862 4.39944 7.64984 4.25997 7.58025C4.12065 7.51066 3.95127 7.56641 3.88049 7.70503C3.74989 7.96651 3.63272 8.23448 3.52968 8.50799C3.47456 8.65449 3.5488 8.81802 3.6956 8.87294Z" fill="white"/>
			<path d="M3.98113 14.0707C3.93044 13.9225 3.76909 13.8435 3.62077 13.8943C3.47244 13.9449 3.39349 14.1061 3.44418 14.2543C3.57146 14.6239 3.72395 14.9846 3.90053 15.3335C3.97324 15.4693 4.14123 15.5223 4.2789 15.4527C4.41643 15.3832 4.47321 15.2166 4.40659 15.0776C4.24178 14.7522 4.09955 14.4157 3.98113 14.0707Z" fill="white"/>
			<path d="M9.33517 19.1358C8.98367 19.0369 8.63951 18.9139 8.30504 18.7674C8.16266 18.7106 8.0009 18.7768 7.93955 18.9171C7.87819 19.0574 7.93955 19.2209 8.07804 19.2865C8.43675 19.4438 8.8057 19.5763 9.18255 19.6831C9.20776 19.6902 9.23366 19.6938 9.25969 19.6939C9.40151 19.6942 9.52173 19.5897 9.54112 19.4493C9.56051 19.309 9.47312 19.1759 9.33656 19.1378L9.33517 19.1358Z" fill="white"/>
			<path d="M4.61591 13.8823C4.6756 14.027 4.84138 14.096 4.98625 14.0366C5.13112 13.9769 5.20036 13.8113 5.14067 13.6666C5.00218 13.3322 4.89249 12.9865 4.81313 12.6333C4.7792 12.4804 4.62768 12.384 4.47464 12.4179C4.32147 12.4517 4.22493 12.6032 4.25887 12.756C4.34556 13.1409 4.46509 13.5176 4.61591 13.8823Z" fill="white"/>
			<path d="M4.66714 9.6105C4.6947 9.61908 4.72337 9.6235 4.75232 9.6235C4.87613 9.6235 4.98568 9.54326 5.0228 9.42526C5.13124 9.07898 5.26711 8.74197 5.42929 8.41742C5.49978 8.27755 5.44341 8.10711 5.30353 8.03669C5.16351 7.96628 4.99288 8.02258 4.92239 8.16245C4.74664 8.51412 4.59928 8.87921 4.4817 9.2544C4.45884 9.3262 4.46563 9.40409 4.50039 9.47091C4.53515 9.53773 4.59526 9.58795 4.66714 9.6105Z" fill="white"/>
			<path d="M4.69057 11.5577V11.5033C4.69514 11.1624 4.72353 10.8224 4.77561 10.4855C4.79306 10.3845 4.75442 10.282 4.67465 10.2175C4.59487 10.1529 4.48643 10.1364 4.391 10.1745C4.29572 10.2124 4.22841 10.2989 4.21498 10.4005C4.15888 10.763 4.12828 11.1289 4.12329 11.4955V11.5709C4.12357 11.6455 4.15362 11.7168 4.20694 11.7688C4.2604 11.8208 4.33242 11.8493 4.40693 11.8478C4.56496 11.8447 4.69126 11.7155 4.69057 11.5577Z" fill="white"/>
			<path d="M7.83437 17.0488C7.53826 16.8355 7.25726 16.6019 6.9937 16.3496C6.87999 16.2458 6.7041 16.2516 6.59746 16.3628C6.49096 16.4739 6.49262 16.6497 6.60134 16.7587C6.88401 17.0296 7.18538 17.2803 7.50309 17.509C7.63023 17.6004 7.8075 17.5715 7.89905 17.4444C7.99059 17.3174 7.96165 17.1403 7.83437 17.0488Z" fill="white"/>
			<path d="M9.76725 18.0299C9.4217 17.9209 9.08598 17.7831 8.76342 17.618C8.62396 17.5468 8.45305 17.602 8.38187 17.7413C8.31054 17.8808 8.3658 18.0513 8.50541 18.1226C8.85622 18.302 9.22157 18.4518 9.59731 18.5705C9.74689 18.6174 9.90602 18.5346 9.95311 18.3853C10.0001 18.236 9.91696 18.0769 9.76752 18.0299H9.76725Z" fill="white"/>
			<path d="M6.20975 15.9387C6.33218 15.8412 6.3524 15.663 6.2549 15.5407C6.02666 15.2553 5.81822 14.9547 5.63084 14.641C5.58167 14.549 5.48569 14.4915 5.38113 14.4912C5.2767 14.4911 5.18045 14.5483 5.13101 14.6402C5.08142 14.7322 5.08641 14.8439 5.14416 14.9309C5.34457 15.2666 5.56755 15.5886 5.81158 15.8943C5.90922 16.0167 6.08788 16.0368 6.21031 15.939L6.20975 15.9387Z" fill="white"/>
			<path d="M11.4975 3.00001C9.86949 2.99738 8.27512 3.46319 6.90512 4.34181L5.7495 3.09132C5.67499 3.01053 5.56046 2.98023 5.45561 3.01329C5.35077 3.04649 5.2746 3.13711 5.25992 3.24599L4.69264 7.49593C4.681 7.58378 4.7112 7.67204 4.77407 7.73444C4.83709 7.79683 4.92573 7.82616 5.01353 7.81384L8.9845 7.24719C9.08865 7.23211 9.17604 7.16058 9.21122 7.06153C9.24654 6.96233 9.22382 6.8518 9.15236 6.7746L8.08414 5.61887C10.5614 4.18258 13.6736 4.44889 15.8701 6.285C18.0667 8.12111 18.8777 11.1342 17.8991 13.8231C16.9206 16.512 14.3618 18.3015 11.4975 18.2998H11.4941C11.2701 18.2998 11.0463 18.2861 10.8239 18.259C10.6683 18.2402 10.5269 18.351 10.5082 18.5063C10.4894 18.6617 10.6002 18.803 10.7559 18.8216C11.0005 18.8514 11.2468 18.8663 11.4932 18.8665H11.4975C14.6455 18.869 17.4481 16.875 18.4748 13.9024C19.5015 10.9296 18.5259 7.63372 16.0459 5.69676C13.566 3.7598 10.1285 3.60887 7.48805 5.32102C7.41811 5.36667 7.37185 5.44068 7.36146 5.52341C7.35121 5.60628 7.37794 5.68929 7.43459 5.75058L8.37068 6.7627L5.30451 7.2007L5.74244 3.91917L6.65014 4.90349C6.74557 5.00697 6.90262 5.02482 7.01882 4.94541C9.83708 3.02588 13.5675 3.1183 16.287 5.17506C19.0064 7.23169 20.1074 10.7934 19.0223 14.0236C17.9373 17.2538 14.9085 19.4312 11.4975 19.4331C11.1323 19.4333 10.7676 19.4084 10.4057 19.359C10.2522 19.3403 10.1119 19.4483 10.0908 19.6015C10.0696 19.7546 10.1754 19.8966 10.3283 19.9202C13.477 20.3537 16.605 18.9982 18.4394 16.4053C20.2738 13.8126 20.5085 10.4147 19.0482 7.59471C17.5879 4.77469 14.6759 3.00278 11.4975 3.00001Z" fill="white"/>
			<path d="M11.4979 6.1167C11.3412 6.1167 11.2142 6.24356 11.2142 6.40003V11.5C11.2142 11.5751 11.2441 11.6472 11.2973 11.7003L14.1337 14.5336C14.2451 14.6409 14.4219 14.6394 14.5314 14.5301C14.6408 14.4208 14.6423 14.2442 14.5348 14.1329L11.7815 11.3826V6.40003C11.7815 6.24356 11.6545 6.1167 11.4979 6.1167Z" fill="white"/>
			<defs>
				<linearGradient id="paint0_linear" x1="23" y1="0" x2="0" y2="23" gradientUnits="userSpaceOnUse">
					<stop stop-color="#FB4E4A"/>
					<stop offset="1" stop-color="white" stop-opacity="0"/>
				</linearGradient>
			</defs>
		</symbol>

		<symbol viewBox="0 0 72 72" id="icon-point">
			<circle cx="36" cy="36" r="36" fill="#FFB7B3"/>
			<circle cx="36" cy="36" r="36" fill="url(#paint0_linear)"/>
			<path d="M62.2734 23.1406C61.6474 22.5096 60.7639 22.3766 60.0234 22.8022L48.6943 29.3142L38.064 14.8428C37.6709 14.3075 37.1002 14 36.5 14C35.8998 14 35.3293 14.3075 34.936 14.8428L24.3058 29.3141L12.9766 22.8021C12.2362 22.3766 11.3528 22.5095 10.7265 23.1405C10.1002 23.7715 9.85013 24.7809 10.0896 25.711L17.9568 56.2665C18.2219 57.2962 19.0261 58 19.9375 58H53.0625C53.9739 58 54.7782 57.2962 55.0432 56.2666L62.9104 25.7111C63.1499 24.781 62.8998 23.7717 62.2734 23.1406ZM51.5279 53.1111H21.4719L15.4317 29.6508L23.9223 34.5313C24.7653 35.0157 25.7783 34.7711 26.3924 33.9351L36.5 20.1753L46.6077 33.9351C47.2218 34.7712 48.2351 35.0156 49.0778 34.5313L57.5684 29.6508L51.5279 53.1111Z" fill="white"/>
			<defs>
				<linearGradient id="paint0_linear" x1="72" y1="0" x2="0" y2="72" gradientUnits="userSpaceOnUse">
					<stop stop-color="#FB4E4A"/>
					<stop offset="1" stop-color="white" stop-opacity="0"/>
				</linearGradient>
			</defs>
		</symbol>


	</defs>
</svg>
