<svg version="1.1"
	 xmlns="http://www.w3.org/2000/svg">
	<defs>
		<symbol viewBox="0 0 23 23" id="icon-gender-detail">
			<circle cx="11.5" cy="11.5" r="11.5" fill="#FFB7B3"/>
			<circle cx="11.5" cy="11.5" r="11.5" fill="url(#paint0_linear)"/>
			<g clip-path="url(#clip0)">
				<path d="M17.7682 7.40422L19.0001 7.15783L18.5559 4.93698C18.5316 4.81536 18.4718 4.70367 18.3841 4.61597C18.2965 4.52828 18.1848 4.4685 18.0631 4.44419L15.8423 4L15.5959 5.2319L16.6658 5.44594L14.7985 7.31322C14.1572 6.83551 13.3981 6.54118 12.6024 6.46175C11.8066 6.38232 11.0043 6.52077 10.2812 6.86228C9.70946 6.59102 9.08588 6.44639 8.45309 6.43827C7.82031 6.43015 7.19322 6.55873 6.6147 6.81523C6.03617 7.07173 5.51983 7.45009 5.10097 7.92448C4.68211 8.39886 4.37059 8.95808 4.18771 9.56392C4.00483 10.1698 3.95489 10.8079 4.04131 11.4348C4.12773 12.0618 4.34846 12.6626 4.68844 13.1964C5.02841 13.7301 5.47961 14.1842 6.0112 14.5276C6.54278 14.871 7.14223 15.0955 7.76858 15.1859V15.8597H6.51226V17.116H7.76858V19.0005H9.0249V17.116H10.2812V15.8597H9.0249V15.1859C9.46041 15.1236 9.88398 14.9957 10.2812 14.8066C11.1685 15.2278 12.1713 15.3398 13.1297 15.1247C14.0881 14.9096 14.9468 14.3797 15.5689 13.6196C16.191 12.8595 16.5407 11.913 16.5622 10.931C16.5836 9.94901 16.2756 8.98812 15.6873 8.20159L17.5546 6.33431L17.7682 7.40422ZM11.5375 10.8344C11.5375 11.322 11.4238 11.8029 11.2055 12.2389C10.9872 12.675 10.6703 13.0541 10.28 13.3463C10.1616 13.2572 10.0496 13.16 9.94483 13.0553C9.35583 12.4663 9.02494 11.6674 9.02494 10.8344C9.02494 10.0015 9.35583 9.20259 9.94483 8.61358C10.0496 8.50888 10.1616 8.41164 10.28 8.32259C10.6703 8.61477 10.9872 8.99391 11.2055 9.42993C11.4238 9.86594 11.5375 10.3468 11.5375 10.8344V10.8344ZM5.25595 10.8344C5.25611 10.3686 5.35984 9.90871 5.55962 9.48794C5.75941 9.06716 6.05025 8.69607 6.4111 8.40153C6.77195 8.10699 7.19377 7.89637 7.64603 7.78491C8.0983 7.67346 8.56968 7.66395 9.02607 7.75709C8.22175 8.57949 7.77138 9.6841 7.77138 10.8344C7.77138 11.9848 8.22175 13.0894 9.02607 13.9118C8.56968 14.0049 8.0983 13.9954 7.64603 13.884C7.19377 13.7725 6.77195 13.5619 6.4111 13.2673C6.05025 12.9728 5.75941 12.6017 5.55962 12.1809C5.35984 11.7602 5.25611 11.3002 5.25595 10.8344V10.8344ZM14.3865 13.0553C14.0956 13.3479 13.7495 13.5798 13.3683 13.7377C12.9871 13.8957 12.5783 13.9764 12.1657 13.9752C11.9534 13.9752 11.7417 13.954 11.5337 13.9117C12.3412 13.091 12.7938 11.9858 12.7938 10.8344C12.7938 9.68307 12.3412 8.57784 11.5337 7.75717C11.7417 7.71492 11.9534 7.69364 12.1657 7.69365C12.7869 7.69366 13.3941 7.87786 13.9106 8.22298C14.4271 8.56809 14.8296 9.05862 15.0674 9.63251C15.3051 10.2064 15.3673 10.8379 15.2461 11.4472C15.1249 12.0564 14.8258 12.616 14.3865 13.0553V13.0553Z" fill="white"/>
			</g>
			<defs>
				<linearGradient id="paint0_linear" x1="23" y1="0" x2="0" y2="23" gradientUnits="userSpaceOnUse">
					<stop stop-color="#FB4E4A"/>
					<stop offset="1" stop-color="white" stop-opacity="0"/>
				</linearGradient>
				<clipPath id="clip0">
					<rect width="15" height="15" fill="white" transform="translate(4.00012 4)"/>
				</clipPath>
			</defs>
		</symbol>
		<symbol viewBox="0 0 23 23" id="icon-lead-detail">
			<circle cx="11.5" cy="11.5" r="11.5" fill="#FFB7B3"/>
			<circle cx="11.5" cy="11.5" r="11.5" fill="url(#paint0_linear)"/>
			<g clip-path="url(#clip0)">
				<path d="M11.9988 3C10.9001 3 9.97339 3.92667 9.97339 5.02539C9.97339 6.12411 10.9001 7.05078 11.9988 7.05078C13.0975 7.05078 13.991 6.12411 13.991 5.02539C13.991 3.92667 13.0975 3 11.9988 3Z" fill="white"/>
				<path d="M14.2098 7.05078C13.6625 7.6577 12.8785 8.04687 11.9988 8.04687C11.119 8.04687 10.3019 7.6577 9.75451 7.05078C9.27665 7.58067 8.97729 8.27485 8.97729 9.04297V9.54102C8.97729 9.8163 9.20005 10.0391 9.47534 10.0391H14.489C14.7643 10.0391 14.9871 9.8163 14.9871 9.54102V9.04297C14.9871 8.27485 14.6877 7.58067 14.2098 7.05078Z" fill="white"/>
				<path d="M7.81258 18.2868L5.2745 13.1982C5.02943 12.7069 4.43297 12.5065 3.941 12.7502L3.27763 13.0788C3.03063 13.2013 2.93013 13.5015 3.05341 13.7481L6.04169 19.7246C6.16458 19.9711 6.46351 20.0692 6.70851 19.9484L7.36334 19.6239C7.85724 19.3793 8.05855 18.78 7.81258 18.2868Z" fill="white"/>
				<path d="M19.5922 11.2251C19.1838 10.9263 18.616 10.9861 18.2773 11.3546L15.5547 14.7015C15.3654 14.9007 15.0068 15.0202 14.8176 15.0202H12.4966C12.2177 15.0202 11.9986 14.8011 11.9986 14.5222C11.9986 14.2433 12.2177 14.0241 12.4966 14.0241C13.1637 14.0241 13.9022 14.0241 14.4888 14.0241C15.0367 14.0241 15.4849 13.5759 15.4849 13.0281C15.4849 12.4802 15.0367 12.032 14.4888 12.032C12.1498 12.032 14.3809 12.032 11.8791 12.032C11.6308 12.032 11.5071 11.8745 11.3113 11.7032C10.5407 11.0098 9.38721 10.6757 8.21945 10.9464C7.57106 11.0966 7.13381 11.3586 6.69035 11.7098L6.67558 11.6978L5.9552 12.3318L8.78623 18.0085H9.62454H14.4888C15.4252 18.0085 16.3217 17.5603 16.8795 16.8132L19.8013 12.6296C20.13 12.1913 20.0404 11.5539 19.5922 11.2251Z" fill="white"/>
			</g>
			<defs>
				<linearGradient id="paint0_linear" x1="23" y1="0" x2="0" y2="23" gradientUnits="userSpaceOnUse">
					<stop stop-color="#FB4E4A"/>
					<stop offset="1" stop-color="white" stop-opacity="0"/>
				</linearGradient>
				<clipPath id="clip0">
					<rect width="17" height="17" fill="white" transform="translate(2.99976 3)"/>
				</clipPath>
			</defs>
		</symbol>
		<symbol viewBox="0 0 23 23" id="icon-email-detail">
			<circle cx="11.5" cy="11.5" r="11.5" fill="#FFB7B3"/>
			<circle cx="11.5" cy="11.5" r="11.5" fill="url(#paint0_linear)"/>
			<g clip-path="url(#clip0)">
				<path d="M5.30507 9.10844C5.49903 9.23341 6.08371 9.60458 7.05914 10.2217C8.03459 10.8389 8.78186 11.3141 9.30096 11.6474C9.358 11.6839 9.47917 11.7633 9.66453 11.8857C9.84992 12.0082 10.004 12.1072 10.1265 12.1827C10.2492 12.2582 10.3975 12.3428 10.5716 12.4365C10.7456 12.5302 10.9096 12.6006 11.0636 12.6473C11.2177 12.6943 11.3602 12.7175 11.4914 12.7175H11.5H11.5087C11.6398 12.7175 11.7825 12.6942 11.9365 12.6473C12.0905 12.6006 12.2547 12.5301 12.4285 12.4365C12.6025 12.3427 12.7508 12.2581 12.8734 12.1827C12.9961 12.1072 13.15 12.0082 13.3355 11.8857C13.5208 11.7632 13.6421 11.6839 13.6991 11.6474C14.2239 11.3141 15.5588 10.4677 17.7036 9.10827C18.12 8.84276 18.4678 8.52238 18.7473 8.14735C19.027 7.77249 19.1667 7.37924 19.1667 6.96782C19.1667 6.62402 19.0311 6.32972 18.7601 6.08495C18.4892 5.84012 18.1683 5.71777 17.7976 5.71777H5.20236C4.76316 5.71777 4.42516 5.85317 4.18843 6.12397C3.95172 6.39482 3.83337 6.73337 3.83337 7.13959C3.83337 7.46771 3.9903 7.82328 4.30399 8.20608C4.61765 8.5889 4.95146 8.88972 5.30507 9.10844Z" fill="white"/>
				<path d="M18.3109 9.94432C16.4401 11.1005 15.0195 11.999 14.0499 12.6397C13.7248 12.8584 13.461 13.0291 13.2584 13.1514C13.0559 13.2738 12.7865 13.3988 12.4499 13.5263C12.1134 13.6541 11.7998 13.7178 11.5088 13.7178H11.5001H11.4915C11.2005 13.7178 10.8868 13.6541 10.5503 13.5263C10.2138 13.3988 9.94418 13.2738 9.74167 13.1514C9.53922 13.0291 9.27537 12.8584 8.95026 12.6397C8.18013 12.1241 6.76262 11.2255 4.69767 9.94432C4.37244 9.74653 4.08437 9.51982 3.83337 9.26465V15.4677C3.83337 15.8117 3.96737 16.1058 4.23551 16.3506C4.50359 16.5955 4.82594 16.7179 5.20245 16.7179H17.7977C18.1741 16.7179 18.4965 16.5955 18.7646 16.3506C19.0328 16.1057 19.1667 15.8117 19.1667 15.4677V9.26465C18.9214 9.51454 18.6362 9.74125 18.3109 9.94432Z" fill="white"/>
			</g>
			<defs>
				<linearGradient id="paint0_linear" x1="23" y1="0" x2="0" y2="23" gradientUnits="userSpaceOnUse">
					<stop stop-color="#FB4E4A"/>
					<stop offset="1" stop-color="white" stop-opacity="0"/>
				</linearGradient>
				<clipPath id="clip0">
					<rect width="15.3333" height="11" fill="white" transform="translate(3.83337 6)"/>
				</clipPath>
			</defs>
		</symbol>
		<symbol viewBox="0 0 23 23" id="icon-phone-detail">
			<circle cx="11.5" cy="11.5" r="11.5" fill="#FFB7B3"/>
			<circle cx="11.5" cy="11.5" r="11.5" fill="url(#paint0_linear)"/>
			<g clip-path="url(#clip0)">
				<path d="M16.0559 19.0001C15.4318 19.0001 14.6781 18.8437 13.8491 18.5309C12.0318 17.8457 10.0546 16.4916 8.28167 14.7187C6.50825 12.9452 5.1541 10.9675 4.46845 9.15019C3.84536 7.49786 3.84385 6.1417 4.46492 5.52113C4.55422 5.43183 4.64504 5.33597 4.73888 5.23708C5.30546 4.64123 5.94571 3.97072 6.79432 4.00099C7.37907 4.02521 7.94565 4.38847 8.52586 5.11044C10.2402 7.24257 9.4673 8.00239 8.57278 8.8833L8.41486 9.0397C8.26855 9.18601 7.99207 9.86359 10.5641 12.4357C11.4037 13.2752 12.1196 13.8897 12.6917 14.2616C13.052 14.4957 13.6963 14.8498 13.9606 14.5855L14.1195 14.425C14.9994 13.5325 15.7593 12.7621 17.8899 14.475C18.6119 15.0552 18.9746 15.6213 18.9988 16.207C19.0336 17.0551 18.3581 17.6969 17.7617 18.263C17.6633 18.3568 17.5675 18.4476 17.4782 18.5364C17.1699 18.8452 16.677 19.0001 16.0559 19.0001ZM6.73378 4.50451C6.13087 4.50451 5.58648 5.07765 5.10466 5.5847C5.00779 5.68661 4.91395 5.7855 4.82162 5.87783C4.35897 6.33998 4.40589 7.55437 4.94069 8.9726C5.60162 10.7243 6.9149 12.6385 8.63887 14.3625C10.3623 16.0854 12.2755 17.3987 14.0277 18.0591C15.446 18.5949 16.6603 18.6403 17.122 18.1787C17.2143 18.0864 17.3132 17.9925 17.4151 17.8962C17.9333 17.4037 18.521 16.8457 18.4953 16.2267C18.4777 15.8014 18.1679 15.3438 17.5746 14.867C15.7991 13.4392 15.3027 13.9432 14.4793 14.7782L14.3178 14.9412C13.9243 15.3352 13.2851 15.2479 12.4173 14.6838C11.8154 14.2923 11.0717 13.6556 10.208 12.7914C8.0733 10.6572 7.39067 9.35099 8.05867 8.68149L8.21961 8.52256C9.05662 7.69917 9.56165 7.20221 8.13334 5.42577C7.65555 4.83295 7.19845 4.52317 6.77313 4.50501C6.76001 4.50451 6.7469 4.50451 6.73378 4.50451Z" fill="white"/>
			</g>
			<defs>
				<linearGradient id="paint0_linear" x1="23" y1="0" x2="0" y2="23" gradientUnits="userSpaceOnUse">
					<stop stop-color="#FB4E4A"/>
					<stop offset="1" stop-color="white" stop-opacity="0"/>
				</linearGradient>
				<clipPath id="clip0">
					<rect width="15" height="15" fill="white" transform="translate(4.00012 4)"/>
				</clipPath>
			</defs>
		</symbol>
		<symbol viewBox="0 0 23 23" id="icon-team-detail">
			<circle cx="11.5" cy="11.5" r="11.5" fill="#FFB7B3"/>
			<circle cx="11.5" cy="11.5" r="11.5" fill="url(#paint0_linear)"/>
			<g clip-path="url(#clip0)">
				<path d="M18.9676 16.59L18.3334 14.2981C18.3183 14.251 18.2881 14.2039 18.2579 14.1725C17.8652 12.9323 16.8987 11.9747 15.6755 11.6451L15.4943 11.6137C15.2225 11.5352 14.9204 11.6294 14.7241 11.8649C14.0597 12.6498 13.214 12.7126 12.323 12.7126C11.432 12.7126 10.5864 12.6498 9.9219 11.8649C9.72558 11.6294 9.42355 11.5352 9.15173 11.6137L8.97051 11.6608C8.04933 11.912 7.26406 12.5242 6.76571 13.3405H4.86294C4.84784 13.3405 4.84784 13.3405 4.83273 13.3248C4.83273 13.3091 4.81763 13.2934 4.81763 13.262L5.21027 11.8021C5.5576 10.6561 6.22206 10.3107 7.52078 9.96539C7.58118 9.94969 7.62649 9.91829 7.65669 9.8869C7.7624 9.98109 7.88321 10.0596 8.00402 10.1224C8.04933 10.1538 8.09463 10.1538 8.13993 10.1538C8.24564 10.1538 8.35135 10.091 8.41176 9.98109C8.48727 9.82411 8.42686 9.63573 8.27585 9.55724C7.58118 9.18048 7.08284 8.11301 7.08284 7.01415C7.08284 6.04087 7.85301 5.24026 8.78929 5.24026C8.97051 5.24026 9.13663 5.27166 9.30274 5.31875C9.13663 5.7426 9.04602 6.19785 9.04602 6.68449C9.04602 9.36886 10.6015 11.6294 12.4438 11.6294C14.256 11.6294 15.8567 9.32177 15.8567 6.68449C15.8567 4.72223 14.3315 3.13672 12.4438 3.13672C11.2508 3.13672 10.1937 3.78034 9.58967 4.75362C9.33294 4.65943 9.06112 4.61234 8.78929 4.61234C7.97382 4.61234 7.24895 5.06758 6.84122 5.7426C6.81101 5.71121 6.78081 5.69551 6.75061 5.67981C6.52409 5.55422 6.29757 5.50713 6.04084 5.50713C5.19517 5.49143 4.51561 6.19785 4.51561 7.07694C4.51561 7.57928 4.65152 8.05022 4.86294 8.42698C4.16827 8.61535 3.54912 8.89792 3.26219 9.8555L3.02057 10.766C2.97527 10.923 3.00547 11.0957 3.09608 11.2212C3.18669 11.3625 3.3528 11.441 3.51892 11.441H4.68172C4.66662 11.5038 4.63642 11.5666 4.62132 11.6294L4.22868 13.105C4.16827 13.3091 4.21358 13.5289 4.34949 13.7015C4.4703 13.8742 4.65152 13.9684 4.86294 13.9684H6.46368C6.41838 14.0783 6.38818 14.1882 6.35797 14.2981L5.72372 16.6057C5.66331 16.8725 5.70861 17.1551 5.87473 17.3749C6.04084 17.5947 6.28247 17.7202 6.53919 17.7202H15.6H16.1135H18.1521C18.4089 17.7202 18.6656 17.5947 18.8166 17.3749C18.9827 17.1551 19.0431 16.8725 18.9676 16.59ZM9.9521 5.36585C9.9672 5.35015 9.9823 5.33445 9.9974 5.30306C10.0125 5.28736 10.0125 5.25596 10.0276 5.24026C10.4957 4.36117 11.4018 3.76464 12.4438 3.76464C13.6972 3.76464 14.7543 4.62804 15.1168 5.80539C14.5882 5.91528 14.0295 5.69551 13.6972 5.22457C13.5915 5.08328 13.4103 5.05189 13.2744 5.16177C13.214 5.20887 13.1838 5.25596 13.1687 5.31875C13.1536 5.33445 13.1536 5.35015 13.1385 5.36585C12.7156 6.26064 11.2961 6.63739 9.68027 6.30773C9.72558 5.97807 9.81619 5.66411 9.9521 5.36585ZM10.7978 7.04554C12.0059 7.04554 13.0026 6.65309 13.516 5.91528C13.8936 6.26064 14.3617 6.44902 14.86 6.44902C14.9809 6.44902 15.1168 6.43332 15.2376 6.40192C15.2527 6.49611 15.2527 6.5746 15.2527 6.66879C15.2527 8.97641 13.9389 11.0015 12.4438 11.0015C11.0092 11.0015 9.75578 9.13339 9.65007 6.93566C10.0427 7.01415 10.4353 7.04554 10.7978 7.04554ZM3.63973 10.8131L3.85115 10.0282C4.03236 9.38456 4.4099 9.19618 5.16496 9.0078C5.21027 8.99211 5.25557 8.97641 5.28578 8.94501C5.36128 9.0078 5.42169 9.0549 5.5123 9.10199C5.5576 9.13339 5.6029 9.13339 5.64821 9.13339C5.75392 9.13339 5.85963 9.0706 5.92003 8.96071C5.99554 8.80373 5.93513 8.61535 5.79922 8.53686C5.40659 8.31709 5.11966 7.70486 5.11966 7.07694C5.11966 6.5432 5.5274 6.11936 6.04084 6.11936C6.20696 6.11936 6.34287 6.15075 6.47878 6.22924C6.52409 6.24494 6.55429 6.26064 6.59959 6.26064C6.52409 6.49611 6.47878 6.74728 6.47878 7.01415C6.47878 7.90894 6.76571 8.78803 7.21875 9.40026C6.31267 9.63573 5.5123 9.94969 4.98375 10.8131H3.63973ZM18.3485 16.9981C18.3183 17.0295 18.2579 17.0923 18.1521 17.0923H16.1135H15.6H6.53919C6.43348 17.0923 6.37307 17.0295 6.34287 16.9981C6.29757 16.9353 6.28247 16.8412 6.29757 16.7784L6.93182 14.4864C7.23385 13.4033 8.06443 12.5556 9.12152 12.273L9.30274 12.2259C9.34804 12.2102 9.42355 12.2416 9.46885 12.2887C10.2994 13.2777 11.3263 13.3562 12.323 13.3562C13.3197 13.3562 14.3466 13.2777 15.1772 12.2887C15.2225 12.2416 15.2829 12.2102 15.3584 12.2259L15.5396 12.273C16.5816 12.5556 17.4273 13.4033 17.7293 14.4864L18.0011 15.4597C18.0162 15.5068 18.0313 15.5382 18.0615 15.5696L18.3938 16.7627C18.4089 16.8412 18.3938 16.9353 18.3485 16.9981Z" fill="white"/>
			</g>
			<defs>
				<linearGradient id="paint0_linear" x1="23" y1="0" x2="0" y2="23" gradientUnits="userSpaceOnUse">
					<stop stop-color="#FB4E4A"/>
					<stop offset="1" stop-color="white" stop-opacity="0"/>
				</linearGradient>
				<clipPath id="clip0">
					<rect width="16" height="14.6364" fill="white" transform="translate(2.99976 3.13672)"/>
				</clipPath>
			</defs>
		</symbol>
		<symbol viewBox="0 0 23 23" id="icon-address-detail">
			<circle cx="11.5" cy="11.5" r="11.5" fill="#FFB7B3"/>
			<circle cx="11.5" cy="11.5" r="11.5" fill="url(#paint0_linear)"/>
			<path d="M19.9128 10.8161C20.2197 10.4675 20.19 9.93311 19.8466 9.62288L12.2801 2.78413C11.9367 2.4739 11.3861 2.4804 11.0499 2.79879L3.45765 9.98749C3.12144 10.3059 3.10494 10.8396 3.42112 11.179L3.61147 11.3838C3.92726 11.7233 4.4377 11.7638 4.75084 11.4739L5.31824 10.9491V18.6331C5.31824 19.1046 5.68807 19.4862 6.14415 19.4862H9.10361C9.55969 19.4862 9.92951 19.1046 9.92951 18.6331V13.2574H13.7043V18.6331C13.6978 19.1042 14.0241 19.4859 14.4802 19.4859H17.6165C18.0725 19.4859 18.4424 19.1042 18.4424 18.6328V11.0573C18.4424 11.0573 18.5991 11.1991 18.7924 11.3746C18.9854 11.5498 19.3908 11.4094 19.6977 11.0604L19.9128 10.8161Z" fill="white"/>
			<defs>
				<linearGradient id="paint0_linear" x1="23" y1="0" x2="0" y2="23" gradientUnits="userSpaceOnUse">
					<stop stop-color="#FB4E4A"/>
					<stop offset="1" stop-color="white" stop-opacity="0"/>
				</linearGradient>
			</defs>
		</symbol>

		<symbol viewBox="0 0 23 23" id="icon-history-detail">
			<circle cx="11.5" cy="11.5" r="11.5" fill="#FFB7B3"/>
			<circle cx="11.5" cy="11.5" r="11.5" fill="url(#paint0_linear)"/>
			<path d="M3.70055 13.0146C3.6313 12.6564 3.58698 12.2939 3.56746 11.9297C3.55901 11.7732 3.42522 11.6531 3.26844 11.6616C3.1118 11.6701 2.99173 11.8038 3.00018 11.9602C3.02081 12.3502 3.06818 12.7384 3.142 13.1219C3.16776 13.255 3.28423 13.3512 3.41996 13.3514C3.4381 13.3514 3.45624 13.3496 3.47411 13.3463C3.54821 13.3325 3.61385 13.2896 3.65623 13.2273C3.69875 13.1651 3.71468 13.0886 3.70055 13.0146Z" fill="white"/>
			<path d="M4.96714 16.0156C4.87795 15.887 4.70109 15.8549 4.57229 15.944C4.44349 16.0331 4.41136 16.2097 4.50055 16.3384C4.72339 16.6595 4.96797 16.965 5.23292 17.2524C5.33887 17.3677 5.51836 17.3753 5.63373 17.2695C5.74909 17.1635 5.75671 16.9843 5.65076 16.8691C5.40354 16.6006 5.17516 16.3154 4.96714 16.0156Z" fill="white"/>
			<path d="M3.27627 11.0948C3.28416 11.0953 3.29192 11.0953 3.29981 11.0948C3.44786 11.0953 3.57126 10.982 3.58345 10.8347C3.61323 10.4711 3.66849 10.11 3.74854 9.75409C3.78288 9.60121 3.68649 9.44945 3.53331 9.41514C3.38028 9.38083 3.22835 9.47712 3.194 9.62999C3.10785 10.0118 3.0483 10.3992 3.01561 10.7892C3.00938 10.8643 3.03348 10.9387 3.08237 10.9961C3.13126 11.0534 3.20106 11.089 3.27627 11.0948Z" fill="white"/>
			<path d="M7.3353 18.2582C7.02424 18.0667 6.72689 17.8539 6.44519 17.6215C6.32442 17.5219 6.14562 17.5389 6.04576 17.6595C5.94605 17.7802 5.96308 17.9588 6.08385 18.0584C6.38577 18.3071 6.70417 18.535 7.03712 18.7404C7.1234 18.7981 7.23434 18.8042 7.3263 18.7562C7.4184 18.7082 7.47685 18.6138 7.47865 18.5101C7.48045 18.4065 7.42546 18.31 7.3353 18.2587V18.2582Z" fill="white"/>
			<path d="M3.6956 8.87245C3.72746 8.88435 3.76125 8.89057 3.79546 8.89057C3.91359 8.89057 4.01927 8.81739 4.06095 8.70699C4.15666 8.45174 4.26579 8.20162 4.38794 7.95786C4.4565 7.81813 4.39944 7.64935 4.25997 7.57976C4.12065 7.51017 3.95127 7.56593 3.88049 7.70455C3.74989 7.96602 3.63272 8.23399 3.52968 8.5075C3.47456 8.654 3.5488 8.81753 3.6956 8.87245Z" fill="white"/>
			<path d="M3.98113 14.0707C3.93044 13.9225 3.76909 13.8435 3.62077 13.8943C3.47244 13.9449 3.39349 14.1061 3.44418 14.2543C3.57146 14.6239 3.72395 14.9846 3.90053 15.3335C3.97324 15.4693 4.14123 15.5223 4.2789 15.4527C4.41643 15.3832 4.47321 15.2166 4.40659 15.0776C4.24178 14.7522 4.09955 14.4157 3.98113 14.0707Z" fill="white"/>
			<path d="M9.33517 19.1358C8.98367 19.0369 8.63951 18.9139 8.30504 18.7674C8.16266 18.7106 8.0009 18.7768 7.93955 18.9171C7.87819 19.0574 7.93955 19.2209 8.07804 19.2865C8.43675 19.4438 8.8057 19.5763 9.18255 19.6831C9.20776 19.6902 9.23366 19.6938 9.25969 19.6939C9.40151 19.6942 9.52173 19.5897 9.54112 19.4493C9.56051 19.309 9.47312 19.1759 9.33656 19.1378L9.33517 19.1358Z" fill="white"/>
			<path d="M4.61591 13.8823C4.6756 14.027 4.84138 14.096 4.98625 14.0366C5.13112 13.9769 5.20036 13.8113 5.14067 13.6666C5.00218 13.3322 4.89249 12.9865 4.81313 12.6333C4.7792 12.4804 4.62768 12.384 4.47464 12.4179C4.32147 12.4517 4.22493 12.6032 4.25887 12.756C4.34556 13.1409 4.46509 13.5176 4.61591 13.8823Z" fill="white"/>
			<path d="M4.66714 9.61001C4.6947 9.61859 4.72337 9.62302 4.75232 9.62302C4.87613 9.62302 4.98568 9.54278 5.0228 9.42477C5.13124 9.07849 5.26711 8.74149 5.42929 8.41693C5.49978 8.27706 5.44341 8.10662 5.30353 8.0362C5.16351 7.96579 4.99288 8.02209 4.92239 8.16196C4.74664 8.51363 4.59928 8.87872 4.4817 9.25391C4.45884 9.32571 4.46563 9.4036 4.50039 9.47042C4.53515 9.53724 4.59526 9.58746 4.66714 9.61001Z" fill="white"/>
			<path d="M4.69057 11.5577V11.5033C4.69514 11.1624 4.72353 10.8224 4.77561 10.4855C4.79306 10.3845 4.75442 10.282 4.67465 10.2175C4.59487 10.1529 4.48643 10.1364 4.391 10.1745C4.29572 10.2124 4.22841 10.2989 4.21498 10.4005C4.15888 10.763 4.12828 11.1289 4.12329 11.4955V11.5709C4.12357 11.6455 4.15362 11.7168 4.20694 11.7688C4.2604 11.8208 4.33242 11.8493 4.40693 11.8478C4.56496 11.8447 4.69126 11.7155 4.69057 11.5577Z" fill="white"/>
			<path d="M7.83437 17.0488C7.53826 16.8355 7.25726 16.6019 6.9937 16.3496C6.87999 16.2458 6.7041 16.2516 6.59746 16.3628C6.49096 16.4739 6.49262 16.6497 6.60134 16.7587C6.88401 17.0296 7.18538 17.2803 7.50309 17.509C7.63023 17.6004 7.8075 17.5715 7.89905 17.4444C7.99059 17.3174 7.96165 17.1403 7.83437 17.0488Z" fill="white"/>
			<path d="M9.76725 18.0299C9.4217 17.9209 9.08598 17.7831 8.76342 17.618C8.62396 17.5468 8.45305 17.602 8.38187 17.7413C8.31054 17.8808 8.3658 18.0513 8.50541 18.1226C8.85622 18.302 9.22157 18.4518 9.59731 18.5705C9.74689 18.6174 9.90602 18.5346 9.95311 18.3853C10.0001 18.236 9.91696 18.0769 9.76752 18.0299H9.76725Z" fill="white"/>
			<path d="M6.20975 15.9387C6.33218 15.8412 6.3524 15.663 6.2549 15.5407C6.02666 15.2553 5.81822 14.9547 5.63084 14.641C5.58167 14.549 5.48569 14.4915 5.38113 14.4912C5.2767 14.4911 5.18045 14.5483 5.13101 14.6402C5.08142 14.7322 5.08641 14.8439 5.14416 14.9309C5.34457 15.2666 5.56755 15.5886 5.81158 15.8943C5.90922 16.0167 6.08788 16.0368 6.21031 15.939L6.20975 15.9387Z" fill="white"/>
			<path d="M11.4975 3.00001C9.86949 2.99738 8.27512 3.46319 6.90512 4.34181L5.7495 3.09132C5.67499 3.01053 5.56046 2.98023 5.45561 3.01329C5.35077 3.04649 5.2746 3.13711 5.25992 3.24599L4.69264 7.49593C4.681 7.58378 4.7112 7.67204 4.77407 7.73444C4.83709 7.79683 4.92573 7.82616 5.01353 7.81384L8.9845 7.24719C9.08865 7.23211 9.17604 7.16058 9.21122 7.06153C9.24654 6.96233 9.22382 6.8518 9.15236 6.7746L8.08414 5.61887C10.5614 4.18258 13.6736 4.44889 15.8701 6.285C18.0667 8.12111 18.8777 11.1342 17.8991 13.8231C16.9206 16.512 14.3618 18.3015 11.4975 18.2998H11.4941C11.2701 18.2998 11.0463 18.2861 10.8239 18.259C10.6683 18.2402 10.5269 18.351 10.5082 18.5063C10.4894 18.6617 10.6002 18.803 10.7559 18.8216C11.0005 18.8514 11.2468 18.8663 11.4932 18.8665H11.4975C14.6455 18.869 17.4481 16.875 18.4748 13.9024C19.5015 10.9296 18.5259 7.63372 16.0459 5.69676C13.566 3.7598 10.1285 3.60887 7.48805 5.32102C7.41811 5.36667 7.37185 5.44068 7.36146 5.52341C7.35121 5.60628 7.37794 5.68929 7.43459 5.75058L8.37068 6.7627L5.30451 7.2007L5.74244 3.91917L6.65014 4.90349C6.74557 5.00697 6.90262 5.02482 7.01882 4.94541C9.83708 3.02588 13.5675 3.1183 16.287 5.17506C19.0064 7.23169 20.1074 10.7934 19.0223 14.0236C17.9373 17.2538 14.9085 19.4312 11.4975 19.4331C11.1323 19.4333 10.7676 19.4084 10.4057 19.359C10.2522 19.3403 10.1119 19.4483 10.0908 19.6015C10.0696 19.7546 10.1754 19.8966 10.3283 19.9202C13.477 20.3537 16.605 18.9982 18.4394 16.4053C20.2738 13.8126 20.5085 10.4147 19.0482 7.59471C17.5879 4.77469 14.6759 3.00278 11.4975 3.00001Z" fill="white"/>
			<path d="M11.4979 6.11621C11.3412 6.11621 11.2142 6.24307 11.2142 6.39954V11.4995C11.2142 11.5746 11.2441 11.6467 11.2973 11.6998L14.1337 14.5331C14.2451 14.6404 14.4219 14.6389 14.5314 14.5296C14.6408 14.4203 14.6423 14.2437 14.5348 14.1324L11.7815 11.3822V6.39954C11.7815 6.24307 11.6545 6.11621 11.4979 6.11621Z" fill="white"/>
			<defs>
				<linearGradient id="paint0_linear" x1="23" y1="0" x2="0" y2="23" gradientUnits="userSpaceOnUse">
					<stop stop-color="#FB4E4A"/>
					<stop offset="1" stop-color="white" stop-opacity="0"/>
				</linearGradient>
			</defs>
		</symbol>
		<symbol viewBox="0 0 72 72" id="icon-point">
			<circle cx="36" cy="36" r="36" fill="#FFB7B3"/>
			<circle cx="36" cy="36" r="36" fill="url(#paint0_linear)"/>
			<path d="M62.2734 23.1406C61.6474 22.5096 60.7639 22.3766 60.0234 22.8022L48.6943 29.3142L38.064 14.8428C37.6709 14.3075 37.1002 14 36.5 14C35.8998 14 35.3293 14.3075 34.936 14.8428L24.3058 29.3141L12.9766 22.8021C12.2362 22.3766 11.3528 22.5095 10.7265 23.1405C10.1002 23.7715 9.85013 24.7809 10.0896 25.711L17.9568 56.2665C18.2219 57.2962 19.0261 58 19.9375 58H53.0625C53.9739 58 54.7782 57.2962 55.0432 56.2666L62.9104 25.7111C63.1499 24.781 62.8998 23.7717 62.2734 23.1406ZM51.5279 53.1111H21.4719L15.4317 29.6508L23.9223 34.5313C24.7653 35.0157 25.7783 34.7711 26.3924 33.9351L36.5 20.1753L46.6077 33.9351C47.2218 34.7712 48.2351 35.0156 49.0778 34.5313L57.5684 29.6508L51.5279 53.1111Z" fill="white"/>
			<defs>
				<linearGradient id="paint0_linear" x1="72" y1="0" x2="0" y2="72" gradientUnits="userSpaceOnUse">
					<stop stop-color="#FB4E4A"/>
					<stop offset="1" stop-color="white" stop-opacity="0"/>
				</linearGradient>
			</defs>
		</symbol>

	</defs>
</svg>
