<svg version="1.1"
	 xmlns="http://www.w3.org/2000/svg">
	<defs>
		<symbol id="icon-close" viewBox="0 0 32 32">
			<title>close</title>
			<path
				d="M18.83 16l12.583-12.584c0.782-0.781 0.782-2.049 0-2.83s-2.048-0.782-2.83 0l-12.584 12.584-12.584-12.584c-0.782-0.782-2.048-0.782-2.83 0s-0.782 2.049 0 2.83l12.584 12.584-12.584 12.584c-0.782 0.781-0.782 2.049 0 2.83 0.391 0.39 0.903 0.586 1.415 0.586s1.024-0.195 1.415-0.586l12.584-12.583 12.584 12.583c0.391 0.391 0.903 0.586 1.415 0.586s1.024-0.195 1.415-0.586c0.782-0.781 0.782-2.049 0-2.83l-12.583-12.583z"></path>
		</symbol>
		<symbol id="icon-edit" viewBox="0 0 32 32">
			<title>edit</title>
			<path
				d="M0 25.245v6.755h6.756l19.556-19.733-6.756-6.756-19.555 19.733zM31.467 7.111c0.711-0.711 0.711-1.778 0-2.489l-4.089-4.089c-0.711-0.711-1.778-0.711-2.489 0l-3.2 3.2 6.755 6.756 3.022-3.378z"></path>
		</symbol>
		<svg viewBox="0 0 36 35" id="icon-search">
			<path d="M34.2839 30.294L27.1266 23.2351C28.8514 20.7793 29.7143 18.0416 29.7143 15.0234C29.7143 13.0614 29.3281 11.1849 28.5557 9.39446C27.7838 7.60372 26.7404 6.06023 25.4258 4.76363C24.1112 3.46704 22.5465 2.43788 20.7312 1.67651C18.9154 0.914934 17.013 0.53418 15.0238 0.53418C13.0347 0.53418 11.1321 0.914934 9.31683 1.67651C7.50122 2.43788 5.93629 3.46704 4.62169 4.76363C3.30694 6.06023 2.26363 7.60401 1.49162 9.39446C0.719538 11.1851 0.333496 13.0614 0.333496 15.0234C0.333496 16.9852 0.719538 18.861 1.49162 20.652C2.26356 22.4424 3.30694 23.9857 4.62169 25.2823C5.93629 26.5793 7.50151 27.6081 9.31683 28.3699C11.1324 29.1313 13.0347 29.512 15.0238 29.512C18.0846 29.512 20.8599 28.6609 23.3499 26.9598L30.5072 33.9983C31.008 34.5195 31.6332 34.7803 32.385 34.7803C33.1083 34.7803 33.7347 34.5196 34.2629 33.9983C34.7913 33.4771 35.0557 32.8596 35.0557 32.1462C35.0559 31.4194 34.7986 30.8017 34.2839 30.294ZM21.6282 21.5366C19.7989 23.3411 17.5976 24.2433 15.0238 24.2433C12.4504 24.2433 10.2491 23.3408 8.41969 21.5366C6.59027 19.7323 5.6756 17.5615 5.6756 15.0229C5.6756 12.4848 6.59049 10.3133 8.41969 8.50932C10.2488 6.70489 12.4504 5.80281 15.0238 5.80281C17.5973 5.80281 19.7986 6.70525 21.6282 8.50932C23.4577 10.3133 24.3724 12.4848 24.3724 15.0229C24.3724 17.5615 23.4574 19.7323 21.6282 21.5366Z"/>
		</svg>

		<symbol id="icon-setting" viewBox="0 0 32 32">
			<title>setting</title>
			<path
				d="M27.055 31.429c-1.168 0-2.266-0.454-3.093-1.281l-9.057-9.056c-2.285 0.866-4.723 0.917-7.092 0.145-3.157-1.036-5.659-3.539-6.695-6.694-0.848-2.586-0.708-5.255 0.404-7.719 0.13-0.288 0.394-0.494 0.705-0.552 0.309-0.049 0.631 0.043 0.855 0.267l5.201 5.202 3.458-3.458-5.201-5.202c-0.224-0.224-0.324-0.544-0.266-0.855s0.263-0.574 0.552-0.706c2.461-1.111 5.128-1.249 7.715-0.403 3.157 1.036 5.659 3.539 6.695 6.694 0.777 2.369 0.725 4.809-0.145 7.095l9.057 9.056c0.814 0.812 1.281 1.94 1.281 3.093 0 2.411-1.962 4.373-4.373 4.373zM15.133 18.991c0.251 0 0.497 0.098 0.682 0.282l9.512 9.511c0.462 0.462 1.076 0.716 1.729 0.716 1.348 0 2.445-1.096 2.445-2.445 0-0.644-0.261-1.275-0.716-1.729l-9.512-9.511c-0.283-0.284-0.363-0.714-0.197-1.079 0.91-2.015 1.024-4.202 0.329-6.321-0.832-2.537-2.926-4.629-5.463-5.464-1.652-0.54-3.344-0.588-4.961-0.158l4.808 4.81c0.377 0.377 0.377 0.987 0 1.364l-4.821 4.822c-0.181 0.181-0.426 0.283-0.682 0.283s-0.501-0.102-0.682-0.283l-4.809-4.81c-0.434 1.622-0.383 3.313 0.158 4.963 0.832 2.537 2.926 4.629 5.463 5.464 2.122 0.695 4.306 0.582 6.321-0.33 0.127-0.056 0.262-0.085 0.396-0.085z"></path>
		</symbol>
		<symbol viewBox="0 0 27 18" id="icon-download">
			<path d="M21.825 6.75C21.0375 2.925 17.6625 0 13.5 0C10.2375 0 7.425 1.8 6.075 4.5C2.5875 4.95 0 7.7625 0 11.25C0 14.9625 3.0375 18 6.75 18H21.375C24.525 18 27 15.525 27 12.375C27 9.45 24.6375 6.975 21.825 6.75ZM19.125 10.125L13.5 15.75L7.875 10.125H11.25V5.625H15.75V10.125H19.125Z"/>
		</symbol>
		<symbol viewBox="0 0 25 18" id="icon-upload">
			<path d="M23.4776 10.0417C22.7659 9.15108 21.8563 8.57381 20.7481 8.30954C21.0978 7.78118 21.2722 7.19308 21.2722 6.54538C21.2722 5.64192 20.9525 4.87069 20.3135 4.23141C19.6744 3.59235 18.9031 3.27269 17.9997 3.27269C17.19 3.27269 16.4827 3.53692 15.8777 4.06537C15.3751 2.83804 14.5715 1.85371 13.468 1.11234C12.3644 0.370752 11.1477 0 9.81803 0C8.01133 0 6.46863 0.639368 5.19021 1.91779C3.9117 3.1959 3.27265 4.73868 3.27265 6.54552C3.27265 6.65629 3.2812 6.83956 3.29821 7.09515C2.29257 7.56392 1.49151 8.267 0.894774 9.20441C0.298258 10.1421 0 11.1646 0 12.2728C0 13.8496 0.560471 15.198 1.6811 16.3187C2.80177 17.4398 4.15054 18 5.72722 18H19.6365C20.9914 18 22.1483 17.5204 23.1072 16.5618C24.066 15.6031 24.5455 14.4462 24.5455 13.0909C24.5454 11.9488 24.1894 10.9326 23.4776 10.0417ZM16.2418 9.69673C16.1607 9.7775 16.065 9.81794 15.9544 9.81794H13.0908V14.3181C13.0908 14.4287 13.0503 14.5247 12.9694 14.6056C12.8882 14.6867 12.7925 14.727 12.6819 14.727H10.227C10.1162 14.727 10.0203 14.6868 9.93937 14.6056C9.85859 14.5247 9.81794 14.4287 9.81794 14.3181V9.81794H6.95428C6.83509 9.81794 6.73698 9.77965 6.66041 9.70317C6.58371 9.62643 6.54543 9.52837 6.54543 9.40917C6.54543 9.30681 6.58796 9.20445 6.67313 9.10223L11.1603 4.61514C11.237 4.5384 11.3351 4.50007 11.4544 4.50007C11.5738 4.50007 11.6718 4.5384 11.7484 4.61514L16.2485 9.11499C16.3252 9.19165 16.3632 9.28966 16.3632 9.40921C16.3631 9.51977 16.3227 9.616 16.2418 9.69673Z"/>
		</symbol>

		<symbol viewBox="0 0 50 50" id="icon-customer-1">
			<path d="M48.8185 23.0045C48.07 22.314 47.0519 21.8875 46.025 21.8341C44.8588 21.7738 43.7663 22.1896 42.9526 23.0037L37.3931 28.5049C37.2832 28.3145 37.1577 28.1349 37.0169 27.9681C36.333 27.156 35.3327 26.7089 34.2009 26.7089H26.4182C24.9507 26.7089 23.519 26.5186 22.1633 26.1436C18.6286 25.1659 15.2518 25.88 12.3972 28.21C11.2364 29.1576 10.3896 30.1883 9.85398 30.9398L8.45857 29.5856C8.27508 29.4074 8.02636 29.3063 7.77039 29.3063C7.76811 29.3063 7.7662 29.3063 7.76391 29.3063C7.49879 29.3083 7.24244 29.4185 7.05857 29.6092L0.274894 36.6515C0.093314 36.84 -0.00548666 37.0933 0.000235386 37.355C0.00595743 37.617 0.115439 37.8658 0.30503 38.0462L11.7785 48.9711C11.9689 49.1523 12.213 49.2427 12.4568 49.2427C12.7127 49.2427 12.9687 49.1432 13.1613 48.9456L19.8817 42.0509C20.0652 41.8624 20.167 41.6049 20.1621 41.3417C20.1571 41.0823 20.0484 40.8321 19.8622 40.6513L19.2771 40.0836L20.6164 39.933C21.4266 39.8387 22.2506 39.791 23.0662 39.791H34.9074C36.8315 39.791 38.4657 39.3703 39.765 38.5402C39.7757 38.5333 39.7864 38.5261 39.7971 38.5188C40.2625 38.1954 40.6848 37.812 41.0517 37.3798L49.0313 27.9922C50.397 26.3858 50.3115 24.3812 48.8185 23.0045ZM12.4312 46.8765L2.37794 37.3039L7.79366 31.6814L17.7882 41.3802L12.4312 46.8765ZM47.5325 26.7181L39.5529 36.106C39.2996 36.404 39.0093 36.6687 38.6893 36.893C37.7139 37.5106 36.4417 37.8242 34.9074 37.8242H23.0658C22.1751 37.8242 21.2744 37.8764 20.3929 37.9791L17.4487 38.3094L11.2841 32.3272C11.7125 31.6921 12.5002 30.6655 13.6412 29.734C16.0132 27.7976 18.7041 27.2273 21.6387 28.0395C23.1654 28.4618 24.7733 28.6762 26.4182 28.6762H34.2009C35.5986 28.6762 35.9717 29.8869 35.9717 30.6022C35.9717 31.1248 35.8039 31.6222 35.5113 31.9671C35.1939 32.3406 34.7426 32.5298 34.17 32.5298H27.3951C26.8519 32.5298 26.4117 32.9704 26.4117 33.5136C26.4117 34.0568 26.8519 34.497 27.3951 34.497H34.17C35.3137 34.497 36.3223 34.0507 37.0104 33.2404C37.583 32.5668 37.9096 31.681 37.937 30.7342L44.34 24.3984C45.2551 23.4832 46.6849 23.7129 47.4848 24.4506C47.8984 24.8321 48.4545 25.6336 47.5325 26.7181Z" fill-opacity="0.1"/>
			<path d="M48.8185 23.0045C48.07 22.314 47.0519 21.8875 46.025 21.8341C44.8588 21.7738 43.7663 22.1896 42.9526 23.0037L37.3931 28.5049C37.2832 28.3145 37.1577 28.1349 37.0169 27.9681C36.333 27.156 35.3327 26.7089 34.2009 26.7089H26.4182C24.9507 26.7089 23.519 26.5186 22.1633 26.1436C18.6286 25.1659 15.2518 25.88 12.3972 28.21C11.2364 29.1576 10.3896 30.1883 9.85398 30.9398L8.45857 29.5856C8.27508 29.4074 8.02636 29.3063 7.77039 29.3063C7.76811 29.3063 7.7662 29.3063 7.76391 29.3063C7.49879 29.3083 7.24244 29.4185 7.05857 29.6092L0.274894 36.6515C0.093314 36.84 -0.00548666 37.0933 0.000235386 37.355C0.00595743 37.617 0.115439 37.8658 0.30503 38.0462L11.7785 48.9711C11.9689 49.1523 12.213 49.2427 12.4568 49.2427C12.7127 49.2427 12.9687 49.1432 13.1613 48.9456L19.8817 42.0509C20.0652 41.8624 20.167 41.6049 20.1621 41.3417C20.1571 41.0823 20.0484 40.8321 19.8622 40.6513L19.2771 40.0836L20.6164 39.933C21.4266 39.8387 22.2506 39.791 23.0662 39.791H34.9074C36.8315 39.791 38.4657 39.3703 39.765 38.5402C39.7757 38.5333 39.7864 38.5261 39.7971 38.5188C40.2625 38.1954 40.6848 37.812 41.0517 37.3798L49.0313 27.9922C50.397 26.3858 50.3115 24.3812 48.8185 23.0045ZM12.4312 46.8765L2.37794 37.3039L7.79366 31.6814L17.7882 41.3802L12.4312 46.8765ZM47.5325 26.7181L39.5529 36.106C39.2996 36.404 39.0093 36.6687 38.6893 36.893C37.7139 37.5106 36.4417 37.8242 34.9074 37.8242H23.0658C22.1751 37.8242 21.2744 37.8764 20.3929 37.9791L17.4487 38.3094L11.2841 32.3272C11.7125 31.6921 12.5002 30.6655 13.6412 29.734C16.0132 27.7976 18.7041 27.2273 21.6387 28.0395C23.1654 28.4618 24.7733 28.6762 26.4182 28.6762H34.2009C35.5986 28.6762 35.9717 29.8869 35.9717 30.6022C35.9717 31.1248 35.8039 31.6222 35.5113 31.9671C35.1939 32.3406 34.7426 32.5298 34.17 32.5298H27.3951C26.8519 32.5298 26.4117 32.9704 26.4117 33.5136C26.4117 34.0568 26.8519 34.497 27.3951 34.497H34.17C35.3137 34.497 36.3223 34.0507 37.0104 33.2404C37.583 32.5668 37.9096 31.681 37.937 30.7342L44.34 24.3984C45.2551 23.4832 46.6849 23.7129 47.4848 24.4506C47.8984 24.8321 48.4545 25.6336 47.5325 26.7181Z" fill-opacity="0.1"/>
			<path d="M24.328 33.2517C24.204 32.7226 23.6749 32.3949 23.1458 32.5185C22.6171 32.6425 22.2887 33.1716 22.413 33.7007L22.4222 33.7407C22.5286 34.1939 22.9326 34.4999 23.3789 34.4999C23.4533 34.4999 23.5288 34.4915 23.6044 34.4739C24.1335 34.3499 24.4615 33.8205 24.3375 33.2917L24.328 33.2517Z" fill-opacity="0.1"/>
			<path d="M24.328 33.2517C24.204 32.7226 23.6749 32.3949 23.1458 32.5185C22.6171 32.6425 22.2887 33.1716 22.413 33.7007L22.4222 33.7407C22.5286 34.1939 22.9326 34.4999 23.3789 34.4999C23.4533 34.4999 23.5288 34.4915 23.6044 34.4739C24.1335 34.3499 24.4615 33.8205 24.3375 33.2917L24.328 33.2517Z" fill-opacity="0.1"/>
			<path d="M6.64861 20.752H16.2327C16.7545 20.752 17.2374 20.5826 17.6304 20.2965C18.0233 20.5826 18.5062 20.752 19.0281 20.752H28.6125C29.1343 20.752 29.6173 20.5826 30.0102 20.2965C30.4031 20.5826 30.8861 20.752 31.4079 20.752H40.992C42.305 20.752 43.3731 19.6835 43.3731 18.3704V13.9011C43.3731 11.8938 42.2497 10.1502 40.5681 9.28994C41.383 8.30727 41.8735 7.04689 41.8735 5.6736C41.8735 2.54517 39.3284 0 36.1999 0C33.0715 0 30.5263 2.54517 30.5263 5.6736C30.5263 7.04689 31.0169 8.30765 31.8317 9.28994C31.105 9.66225 30.4828 10.1997 30.0102 10.8517C29.5376 10.1994 28.9154 9.66187 28.1883 9.28994C29.0031 8.30765 29.4937 7.04689 29.4937 5.6736C29.4937 2.54517 26.9485 0 23.8201 0C20.6917 0 18.1465 2.54517 18.1465 5.6736C18.1465 7.04689 18.6374 8.30765 19.4523 9.29032C18.7252 9.66225 18.103 10.1997 17.6304 10.8521C17.1577 10.1997 16.5355 9.66225 15.8085 9.28994C16.6233 8.30765 17.1139 7.04689 17.1139 5.67398C17.1139 2.54517 14.5687 0 11.4402 0C8.3122 0 5.76703 2.54517 5.76703 5.67398C5.76703 7.04689 6.2576 8.30765 7.07242 9.29032C5.3909 10.1505 4.26709 11.8946 4.26709 13.9015V18.3704C4.26709 19.6835 5.33559 20.752 6.64861 20.752ZM36.2003 1.96724C38.2438 1.96724 39.9067 3.62969 39.9067 5.6736C39.9067 7.71714 38.2438 9.37996 36.2003 9.37996C34.1564 9.37996 32.494 7.71752 32.494 5.6736C32.4936 3.62969 34.1564 1.96724 36.2003 1.96724ZM33.6448 10.7369C34.4135 11.1263 35.2814 11.3472 36.1999 11.3472C37.1189 11.3472 37.9867 11.1263 38.755 10.7369C40.2836 11.0031 41.4062 12.3203 41.4062 13.9011V18.3704C41.4062 18.5989 41.2205 18.7847 40.992 18.7847H31.4079C31.1798 18.7847 30.994 18.5989 30.994 18.3704V13.9011C30.9936 12.3207 32.1167 11.0031 33.6448 10.7369ZM23.8205 1.96724C25.864 1.96724 27.5268 3.62969 27.5268 5.6736C27.5268 7.71714 25.864 9.37996 23.8205 9.37996C21.7766 9.37996 20.1141 7.71752 20.1141 5.6736C20.1141 3.62969 21.7766 1.96724 23.8205 1.96724ZM21.2654 10.7369C22.0337 11.1263 22.9015 11.3472 23.8205 11.3472C24.7394 11.3472 25.6069 11.1263 26.3756 10.7369C27.9037 11.0031 29.0268 12.3203 29.0268 13.9011V18.3704C29.0268 18.5989 28.841 18.7847 28.6125 18.7847H19.0284C18.7999 18.7847 18.6142 18.5989 18.6142 18.3704V13.9011C18.6142 12.3207 19.7372 11.0031 21.2654 10.7369ZM11.4406 1.96724C13.4842 1.96724 15.147 3.62969 15.147 5.6736C15.147 7.71714 13.4842 9.37996 11.4406 9.37996C9.3971 9.37996 7.73427 7.71714 7.73427 5.6736C7.73427 3.62969 9.3971 1.96724 11.4406 1.96724ZM6.23433 13.9011C6.23433 12.3207 7.35738 11.0031 8.88555 10.7369C9.65421 11.1263 10.5217 11.3472 11.4406 11.3472C12.3596 11.3472 13.2271 11.1263 13.9957 10.7369C15.5243 11.0031 16.6469 12.3203 16.6469 13.9011V18.3704C16.6469 18.5989 16.4612 18.7847 16.2327 18.7847H6.64861C6.42011 18.7847 6.23433 18.5989 6.23433 18.3704V13.9011Z" fill-opacity="0.1"/>
			<path d="M6.64861 20.752H16.2327C16.7545 20.752 17.2374 20.5826 17.6304 20.2965C18.0233 20.5826 18.5062 20.752 19.0281 20.752H28.6125C29.1343 20.752 29.6173 20.5826 30.0102 20.2965C30.4031 20.5826 30.8861 20.752 31.4079 20.752H40.992C42.305 20.752 43.3731 19.6835 43.3731 18.3704V13.9011C43.3731 11.8938 42.2497 10.1502 40.5681 9.28994C41.383 8.30727 41.8735 7.04689 41.8735 5.6736C41.8735 2.54517 39.3284 0 36.1999 0C33.0715 0 30.5263 2.54517 30.5263 5.6736C30.5263 7.04689 31.0169 8.30765 31.8317 9.28994C31.105 9.66225 30.4828 10.1997 30.0102 10.8517C29.5376 10.1994 28.9154 9.66187 28.1883 9.28994C29.0031 8.30765 29.4937 7.04689 29.4937 5.6736C29.4937 2.54517 26.9485 0 23.8201 0C20.6917 0 18.1465 2.54517 18.1465 5.6736C18.1465 7.04689 18.6374 8.30765 19.4523 9.29032C18.7252 9.66225 18.103 10.1997 17.6304 10.8521C17.1577 10.1997 16.5355 9.66225 15.8085 9.28994C16.6233 8.30765 17.1139 7.04689 17.1139 5.67398C17.1139 2.54517 14.5687 0 11.4402 0C8.3122 0 5.76703 2.54517 5.76703 5.67398C5.76703 7.04689 6.2576 8.30765 7.07242 9.29032C5.3909 10.1505 4.26709 11.8946 4.26709 13.9015V18.3704C4.26709 19.6835 5.33559 20.752 6.64861 20.752ZM36.2003 1.96724C38.2438 1.96724 39.9067 3.62969 39.9067 5.6736C39.9067 7.71714 38.2438 9.37996 36.2003 9.37996C34.1564 9.37996 32.494 7.71752 32.494 5.6736C32.4936 3.62969 34.1564 1.96724 36.2003 1.96724ZM33.6448 10.7369C34.4135 11.1263 35.2814 11.3472 36.1999 11.3472C37.1189 11.3472 37.9867 11.1263 38.755 10.7369C40.2836 11.0031 41.4062 12.3203 41.4062 13.9011V18.3704C41.4062 18.5989 41.2205 18.7847 40.992 18.7847H31.4079C31.1798 18.7847 30.994 18.5989 30.994 18.3704V13.9011C30.9936 12.3207 32.1167 11.0031 33.6448 10.7369ZM23.8205 1.96724C25.864 1.96724 27.5268 3.62969 27.5268 5.6736C27.5268 7.71714 25.864 9.37996 23.8205 9.37996C21.7766 9.37996 20.1141 7.71752 20.1141 5.6736C20.1141 3.62969 21.7766 1.96724 23.8205 1.96724ZM21.2654 10.7369C22.0337 11.1263 22.9015 11.3472 23.8205 11.3472C24.7394 11.3472 25.6069 11.1263 26.3756 10.7369C27.9037 11.0031 29.0268 12.3203 29.0268 13.9011V18.3704C29.0268 18.5989 28.841 18.7847 28.6125 18.7847H19.0284C18.7999 18.7847 18.6142 18.5989 18.6142 18.3704V13.9011C18.6142 12.3207 19.7372 11.0031 21.2654 10.7369ZM11.4406 1.96724C13.4842 1.96724 15.147 3.62969 15.147 5.6736C15.147 7.71714 13.4842 9.37996 11.4406 9.37996C9.3971 9.37996 7.73427 7.71714 7.73427 5.6736C7.73427 3.62969 9.3971 1.96724 11.4406 1.96724ZM6.23433 13.9011C6.23433 12.3207 7.35738 11.0031 8.88555 10.7369C9.65421 11.1263 10.5217 11.3472 11.4406 11.3472C12.3596 11.3472 13.2271 11.1263 13.9957 10.7369C15.5243 11.0031 16.6469 12.3203 16.6469 13.9011V18.3704C16.6469 18.5989 16.4612 18.7847 16.2327 18.7847H6.64861C6.42011 18.7847 6.23433 18.5989 6.23433 18.3704V13.9011Z" fill-opacity="0.1"/>
		</symbol>

		<symbol viewBox="0 0 19 19" id="icon-calendar">
			<title>calendar</title>
			<path
				d="M7.2483 10.1157C7.2483 9.89019 7.06126 9.70752 6.83048 9.70752H5.37243C5.14191 9.70752 4.95483 9.89019 4.95483 10.1157V11.5412C4.95483 11.767 5.14191 11.9497 5.37243 11.9497H6.83048C7.06126 11.9497 7.2483 11.767 7.2483 11.5412V10.1157Z"/>
			<path
				d="M10.8921 10.1157C10.8921 9.89019 10.705 9.70752 10.4747 9.70752H9.01648C8.78596 9.70752 8.59888 9.89019 8.59888 10.1157V11.5412C8.59888 11.767 8.78596 11.9497 9.01648 11.9497H10.4747C10.705 11.9497 10.8921 11.767 10.8921 11.5412V10.1157Z"/>
			<path
				d="M14.5361 10.1157C14.5361 9.89019 14.3491 9.70752 14.1185 9.70752H12.6605C12.4297 9.70752 12.2427 9.89019 12.2427 10.1157V11.5412C12.2427 11.767 12.4297 11.9497 12.6605 11.9497H14.1185C14.3491 11.9497 14.5361 11.767 14.5361 11.5412V10.1157Z"/>
			<path
				d="M7.2483 13.6789C7.2483 13.453 7.06126 13.2705 6.83048 13.2705H5.37243C5.14191 13.2705 4.95483 13.453 4.95483 13.6789V15.1042C4.95483 15.3298 5.14191 15.5125 5.37243 15.5125H6.83048C7.06126 15.5125 7.2483 15.3298 7.2483 15.1042V13.6789Z"/>
			<path
				d="M10.8921 13.6789C10.8921 13.453 10.705 13.2705 10.4747 13.2705H9.01648C8.78596 13.2705 8.59888 13.453 8.59888 13.6789V15.1042C8.59888 15.3298 8.78596 15.5125 9.01648 15.5125H10.4747C10.705 15.5125 10.8921 15.3298 10.8921 15.1042V13.6789Z"/>
			<path
				d="M14.5361 13.6789C14.5361 13.453 14.3491 13.2705 14.1187 13.2705H12.6605C12.4297 13.2705 12.2427 13.453 12.2427 13.6789V15.1042C12.2427 15.3298 12.4297 15.5125 12.6605 15.5125H14.1187C14.3491 15.5125 14.5361 15.3298 14.5361 15.1042V13.6789Z"/>
			<path
				d="M17.1432 2.18946V4.36685C17.1432 5.35101 16.3267 6.14409 15.3204 6.14409H14.1705C13.1641 6.14409 12.3368 5.35101 12.3368 4.36685V2.18164H7.15395V4.36685C7.15395 5.35101 6.32667 6.14409 5.32042 6.14409H4.17031C3.16403 6.14409 2.34757 5.35101 2.34757 4.36685V2.18946C1.46807 2.21538 0.745361 2.92701 0.745361 3.80169V16.5622C0.745361 17.4534 1.48402 18.1852 2.39535 18.1852H17.0954C18.0053 18.1852 18.7454 17.4518 18.7454 16.5622V3.80169C18.7454 2.92701 18.0227 2.21538 17.1432 2.18946ZM16.6091 15.7676C16.6091 16.1527 16.2898 16.4651 15.8958 16.4651H3.56352C3.16953 16.4651 2.85021 16.1527 2.85021 15.7676V9.17632C2.85021 8.79106 3.1695 8.47863 3.56352 8.47863H15.8957C16.2897 8.47863 16.6091 8.79106 16.6091 9.17632L16.6091 15.7676Z"/>
			<path
				d="M4.16641 4.97661H5.30381C5.64905 4.97661 5.92897 4.7033 5.92897 4.36572V0.796166C5.92897 0.458551 5.64905 0.185059 5.30381 0.185059H4.16641C3.82114 0.185059 3.54126 0.458551 3.54126 0.796166V4.36572C3.54126 4.7033 3.82114 4.97661 4.16641 4.97661Z"/>
			<path
				d="M14.1559 4.97661H15.2933C15.6383 4.97661 15.9182 4.7033 15.9182 4.36572V0.796166C15.9182 0.458551 15.6383 0.185059 15.2933 0.185059H14.1559C13.8107 0.185059 13.5308 0.458551 13.5308 0.796166V4.36572C13.5308 4.7033 13.8107 4.97661 14.1559 4.97661Z"/>
		</symbol>

		<symbol viewBox="0 0 68 55" id="icon-campaign" preserveAspectRatio="xMidYMid meet">
			<path
				d="M65.0631 25.6963H59.1723C58.0879 25.6963 57.2087 26.6196 57.2087 27.7586C57.2087 28.8975 58.0879 29.8209 59.1723 29.8209H65.0631C66.1476 29.8209 67.0267 28.8975 67.0267 27.7586C67.0267 26.6196 66.1476 25.6963 65.0631 25.6963Z"
				fill-opacity="0.1"/>
			<path
				d="M62.5245 38.6741L58.5973 34.5495C57.8306 33.7442 56.5872 33.7442 55.8204 34.5495C55.0534 35.3547 55.0534 36.6606 55.8204 37.466L59.7475 41.5905C60.5143 42.3959 61.7577 42.3959 62.5245 41.5905C63.2913 40.7851 63.2913 39.4794 62.5245 38.6741Z"
				fill-opacity="0.1"/>
			<path
				d="M62.5244 13.9267C61.7576 13.1214 60.5143 13.1214 59.7475 13.9267L55.8203 18.0513C55.0534 18.8566 55.0534 20.1623 55.8203 20.9677C56.5871 21.7731 57.8305 21.773 58.5972 20.9677L62.5244 16.8432C63.2912 16.0378 63.2912 14.7321 62.5244 13.9267Z"
				fill-opacity="0.1"/>
			<path
				d="M45.4272 0.948975C42.4778 0.948975 40.028 3.23742 39.6023 6.21247L37.8111 8.09368C34.6936 11.3679 30.1024 13.3227 25.5295 13.3227H13.7479C11.188 13.3227 9.00539 15.0469 8.19481 17.4472H7.85708C3.52617 17.4472 0.00268555 21.1478 0.00268555 25.6963C0.00268555 30.2449 3.52617 33.9455 7.85708 33.9455H8.19481C8.78743 35.7003 10.1134 37.0929 11.7843 37.7153V48.3814C11.7843 51.7929 14.427 54.5683 17.6752 54.5683C20.9232 54.5683 23.5659 51.7929 23.5659 48.3814V38.07H25.5295C30.1023 38.07 34.6934 40.0248 37.8111 43.299L39.6023 45.1802C40.028 48.1551 42.4779 50.4437 45.4274 50.4437C48.6754 50.4437 51.318 47.6683 51.318 44.2569V7.13582C51.318 3.72439 48.6754 0.948975 45.4272 0.948975ZM7.85708 29.8209C5.69162 29.8209 3.92988 27.9706 3.92988 25.6963C3.92988 23.4221 5.69162 21.5718 7.85708 21.5718V29.8209ZM19.6387 48.3814C19.6387 49.5186 18.7578 50.4437 17.6751 50.4437C16.5923 50.4437 15.7115 49.5186 15.7115 48.3814V38.07H19.6387V48.3814ZM23.5659 33.9455H13.7479C12.6651 33.9455 11.7843 33.0203 11.7843 31.8832V19.5095C11.7843 18.3724 12.6651 17.4472 13.7479 17.4472H23.5659V33.9455ZM39.5364 39.355C36.2192 36.3396 31.9541 34.4661 27.48 34.039L27.4801 17.3536C31.9541 16.9266 36.2192 15.0531 39.5364 12.0376V39.355ZM47.3908 44.2569C47.3908 45.394 46.51 46.3192 45.4274 46.3192H45.4272C44.3445 46.3192 43.4636 45.394 43.4636 44.2569V7.13582C43.4636 5.99868 44.3445 5.07354 45.4274 5.07354C46.51 5.07354 47.3908 5.99868 47.3908 7.13582V44.2569Z"
				fill-opacity="0.1"/>
		</symbol>

		<symbol viewBox="0 0 68 68" id="icon-channel" preserveAspectRatio="xMidYMid meet">
			<path
				d="M33.4139 30.5714C32.8659 30.4207 32.3043 30.3385 31.7152 30.3385C28.1945 30.3385 25.3313 33.2022 25.3313 36.7237C25.3313 40.2452 28.1945 43.1089 31.7152 43.1089C35.2359 43.1089 38.0991 40.2452 38.0991 36.7237C38.0991 36.1345 38.0169 35.559 37.8662 35.0246L55.648 17.2392L58.5248 17.6229L67.5253 8.62057L60.7167 7.71622L59.8126 0.90625L50.8121 9.90857L51.1957 12.786L33.4139 30.5714Z"
				fill-opacity="0.1"/>
			<path
				d="M32.4003 24.4603L37.6609 19.1987C31.2085 17.0063 23.7697 18.4862 18.6324 23.6382C11.4129 30.8592 11.4129 42.5883 18.6324 49.8093C25.852 57.0304 37.5787 57.0304 44.7982 49.8093C49.9492 44.6573 51.4287 37.2307 49.2368 30.7633L43.9763 36.0249C44.1681 39.3957 42.9762 42.8349 40.4007 45.4109C35.606 50.2067 27.8247 50.2067 23.0299 45.4109C18.2352 40.6152 18.2352 32.8323 23.0299 28.0366C25.6054 25.4606 29.0303 24.2685 32.4003 24.4603Z"
				fill-opacity="0.1"/>
			<path
				d="M53.7712 26.2415C58.0865 35.3124 56.4837 46.4796 48.9764 53.9884C39.4417 63.5251 23.9888 63.5251 14.454 53.9884C4.91926 44.4517 4.91926 28.9957 14.454 19.459C21.9613 11.9502 33.1263 10.3607 42.1952 14.6632L47.2229 9.63451C35.3044 2.79713 19.8242 4.46879 9.64555 14.6495C-2.54689 26.8444 -2.54689 46.6029 9.64555 58.7842C21.838 70.9791 41.5925 70.9791 53.7712 58.7842C63.9498 48.6035 65.6211 33.12 58.7852 21.1991L53.7712 26.2415Z"
				fill-opacity="0.1"/>
		</symbol>

		<symbol viewBox="0 0 55 68" id="icon-lead" preserveAspectRatio="xMidYMid meet">
			<path
				d="M53.3011 60.4586C53.8664 60.4586 54.3244 60.019 54.3244 59.4768V12.999C54.3244 12.4568 53.8664 12.0172 53.3011 12.0172H50.2313V7.43546C50.2313 6.89325 49.7733 6.45366 49.208 6.45366H46.138V1.87194C46.138 1.32972 45.6799 0.890137 45.1147 0.890137H1.72835C1.16309 0.890137 0.705078 1.32972 0.705078 1.87194V5.06252C0.705078 5.60473 1.16309 6.04432 1.72835 6.04432C2.2936 6.04432 2.75162 5.60473 2.75162 5.06252V2.85373H44.0914V54.8236H2.75162V9.33361C2.75162 8.79139 2.2936 8.35181 1.72835 8.35181C1.16309 8.35181 0.705078 8.79139 0.705078 9.33361V55.8054C0.705078 56.3476 1.16309 56.7872 1.72835 56.7872H4.79843V61.3689C4.79843 61.9112 5.25644 62.3507 5.8217 62.3507H8.8915V66.9325C8.8915 67.4747 9.34952 67.9143 9.91477 67.9143H53.3011C53.8664 67.9143 54.3244 67.4747 54.3244 66.9325V63.6872C54.3244 63.145 53.8664 62.7054 53.3011 62.7054C52.7359 62.7054 52.2778 63.145 52.2778 63.6872V65.9507H10.938V62.3507H15.6036C16.1689 62.3507 16.6269 61.9112 16.6269 61.3689C16.6269 60.8267 16.1689 60.3871 15.6036 60.3871H6.84497V56.7872H45.1147C45.6799 56.7872 46.138 56.3476 46.138 55.8054V8.41726H48.1848V60.3871H20.0076C19.4424 60.3871 18.9844 60.8267 18.9844 61.3689C18.9844 61.9112 19.4424 62.3507 20.0076 62.3507H49.208C49.7733 62.3507 50.2313 61.9112 50.2313 61.3689V13.9808H52.2778V59.4768C52.2778 60.019 52.7359 60.4586 53.3011 60.4586Z"
				fill-opacity="0.1"/>
			<path
				d="M37.9312 17.188V9.33361C37.9312 8.79139 37.4731 8.35181 36.9079 8.35181H9.88948C9.32423 8.35181 8.86621 8.79139 8.86621 9.33361V17.188C8.86621 17.7302 9.32423 18.1698 9.88948 18.1698H36.9077C37.473 18.1698 37.9312 17.7302 37.9312 17.188ZM35.8846 16.2062H10.9127V10.3154H35.8845V16.2062H35.8846Z"
				fill-opacity="0.1"/>
			<path
				d="M8.32251 42.1256C8.32251 42.6678 8.78053 43.1074 9.34578 43.1074H36.9057C37.4709 43.1074 37.929 42.6678 37.929 42.1256C37.929 41.5834 37.4709 41.1438 36.9057 41.1438H9.34578C8.78053 41.1438 8.32251 41.5834 8.32251 42.1256Z"
				fill-opacity="0.1"/>
			<path
				d="M9.34578 47.2966H36.9057C37.4709 47.2966 37.929 46.857 37.929 46.3148C37.929 45.7726 37.4709 45.333 36.9057 45.333H9.34578C8.78053 45.333 8.32251 45.7726 8.32251 46.3148C8.32251 46.857 8.78053 47.2966 9.34578 47.2966Z"
				fill-opacity="0.1"/>
			<path
				d="M15.4172 35.973C15.4172 36.5152 15.8753 36.9548 16.4405 36.9548C17.0058 36.9548 17.4638 36.5152 17.4638 35.973C17.4638 32.9775 20.0038 30.5404 23.1259 30.5404C26.2479 30.5404 28.788 32.9775 28.788 35.973C28.788 36.5152 29.246 36.9548 29.8112 36.9548C30.3765 36.9548 30.8345 36.5152 30.8345 35.973C30.8345 33.053 29.0614 30.5234 26.4943 29.3217C27.5645 28.4213 28.2422 27.1012 28.2422 25.6314C28.2422 22.9245 25.9471 20.7224 23.1259 20.7224C20.3046 20.7224 18.0095 22.9245 18.0095 25.6314C18.0095 27.1012 18.6872 28.4213 19.7574 29.3217C17.1904 30.5234 15.4172 33.053 15.4172 35.973ZM20.0561 25.6314C20.0561 24.0072 21.4332 22.686 23.1259 22.686C24.8185 22.686 26.1957 24.0072 26.1957 25.6314C26.1957 27.2556 24.8185 28.5768 23.1259 28.5768C21.4332 28.5768 20.0561 27.2556 20.0561 25.6314Z"
				fill-opacity="0.1"/>
		</symbol>

		<symbol viewBox="0 0 65 68" id="icon-product" preserveAspectRatio="xMidYMid meet">
			<path
				d="M63.3686 13.6734L33.0895 1.0408C32.8507 0.941428 32.593 0.890137 32.3325 0.890137C32.072 0.890137 31.8143 0.941428 31.5755 1.0408L1.29636 13.6734C0.959024 13.8138 0.671942 14.045 0.470267 14.3386C0.268593 14.6322 0.161078 14.9755 0.160889 15.3265V51.4197C0.160889 51.7525 0.257402 52.0788 0.439756 52.3626C0.622109 52.6464 0.883199 52.8765 1.19416 53.0276L31.4733 67.7176C31.7394 67.8469 32.0338 67.9143 32.3325 67.9143C32.6274 67.9138 32.9182 67.8483 33.1822 67.723L63.4613 53.2135C63.7749 53.0632 64.0385 52.8328 64.2226 52.5479C64.4068 52.263 64.5042 51.9348 64.5041 51.6001V15.3265C64.5039 14.9755 64.3963 14.6322 64.1947 14.3386C63.993 14.045 63.7059 13.8138 63.3686 13.6734ZM32.3325 4.66275L57.89 15.3265L32.3325 25.9902L25.69 23.2183L35.7975 19.0008C36.1345 18.8601 36.4211 18.6288 36.6223 18.3352C36.8236 18.0416 36.9308 17.6985 36.9308 17.3477C36.9308 16.997 36.8236 16.6538 36.6223 16.3602C36.4211 16.0666 36.1345 15.8354 35.7975 15.6946L27.6771 12.3181C27.4383 12.2187 27.1806 12.1675 26.9201 12.1675C26.6596 12.1675 26.4019 12.2187 26.1631 12.3181L12.8573 17.8638L6.78445 15.3265L32.3325 4.66275ZM15.3005 22.823L19.0853 24.4021V32.2578L15.3005 30.4531V22.823ZM17.5714 19.8345L26.9125 15.9419L30.3 17.3513L20.9778 21.2476L17.5714 19.8345ZM3.94578 18.0858L11.5156 21.244V31.5684C11.5154 31.9038 11.6132 32.2326 11.7981 32.5179C11.9829 32.8032 12.2475 33.0337 12.5621 33.1836L20.1319 36.7929C20.4205 36.9304 20.7411 36.9953 21.0634 36.9814C21.3857 36.9675 21.6989 36.8752 21.9733 36.7134C22.2477 36.5515 22.4741 36.3255 22.6311 36.0567C22.7881 35.788 22.8704 35.4854 22.8702 35.1777V25.974L30.44 29.1321V63.1662L3.94578 50.3134V18.0858ZM34.2249 63.1825V29.1393L60.7192 18.0858V50.4867L34.2249 63.1825Z"
				fill-opacity="0.1"/>
			<path
				d="M44.7431 50.0355L37.1601 53.6701C36.7116 53.8855 36.3712 54.2619 36.2138 54.7166C36.0564 55.1713 36.0949 55.667 36.3207 56.0946C36.5466 56.5223 36.9414 56.8469 37.4182 56.997C37.895 57.1471 38.4148 57.1104 38.8633 56.895L46.4463 53.2604C46.8947 53.045 47.2351 52.6686 47.3925 52.2139C47.5499 51.7592 47.5114 51.2635 47.2856 50.8359C47.0597 50.4082 46.665 50.0836 46.1882 49.9335C45.7113 49.7834 45.1915 49.8201 44.7431 50.0355Z"
				fill-opacity="0.1"/>
			<path
				d="M38.0102 49.8677C38.3046 49.8677 38.5949 49.8022 38.858 49.6764L46.3332 46.0942C46.7816 45.8788 47.122 45.5023 47.2794 45.0476C47.4368 44.5929 47.3983 44.0972 47.1725 43.6696C46.9466 43.2419 46.5519 42.9174 46.0751 42.7673C45.5982 42.6172 45.0784 42.6538 44.63 42.8692L37.1567 46.4515C36.7763 46.6343 36.4718 46.9341 36.2922 47.3025C36.1127 47.6708 36.0688 48.0862 36.1675 48.4813C36.2662 48.8764 36.5018 49.2282 36.8362 49.4798C37.1706 49.7314 37.5843 49.8681 38.0102 49.8677Z"
				fill-opacity="0.1"/>
		</symbol>

		<symbol viewBox="0 0 46 61" id="icon-click" preserveAspectRatio="xMidYMid meet">
			<path
				d="M10.7599 24.0379V21.7277C8.44966 19.8026 6.90953 16.9149 6.90953 13.6421C6.90953 7.8666 11.7224 3.05366 17.498 3.05366C23.2734 3.05366 28.0864 7.8665 28.0864 13.6421C28.0864 16.1447 27.1238 18.6475 25.5836 20.3802C26.3537 20.3802 26.9314 20.5728 27.7012 20.7652C29.2415 18.6476 30.0115 16.1448 30.0115 13.4496C30.0115 6.51894 24.4285 0.936035 17.498 0.936035C10.5674 0.936035 4.98438 6.51894 4.98438 13.4495C4.98438 17.8774 7.29457 21.7277 10.7599 24.0379Z"
				fill-opacity="0.1"/>
			<path
				d="M26.1614 13.4498C26.1614 8.63694 22.3111 4.78662 17.4981 4.78662C12.6852 4.78662 8.83496 8.63694 8.83496 13.4498C8.83496 15.5675 9.60502 17.4927 10.7601 18.8402V13.4498C10.7601 9.79203 13.8404 6.71168 17.4982 6.71168C21.1561 6.71168 24.2363 9.79193 24.2363 13.4498V18.8402C25.3912 17.4927 26.1614 15.5675 26.1614 13.4498Z"
				fill-opacity="0.1"/>
			<path
				d="M40.5998 27.8878C39.4447 27.8878 38.4821 28.2728 37.712 28.8503C37.712 26.1551 35.5943 24.0375 32.8991 24.0375C31.744 24.0375 30.5888 24.4225 29.6262 25.1926C28.8563 23.2674 27.1236 22.1123 25.1985 22.1123C24.0434 22.1123 23.0808 22.4974 22.3107 23.0749V13.4491C22.3107 10.7539 20.193 8.63623 17.4979 8.63623C14.8027 8.63623 12.685 10.754 12.685 13.4491V30.583C8.8347 27.1177 4.59935 24.4225 1.90413 27.1178C-1.94619 30.9681 6.13948 38.4761 12.3 49.8346C16.7279 57.7277 22.8884 60.6155 29.0489 60.6155C38.0971 60.6155 45.4127 53.2999 45.4127 44.2517V32.7008C45.4127 30.0054 43.295 27.8878 40.5998 27.8878ZM43.4875 36.9361V44.2517C43.4875 51.7599 36.942 58.6904 29.0488 58.6904C21.7332 58.6904 17.4979 54.6477 14.0326 49.0647C6.52441 36.3586 1.13397 30.5831 3.25169 28.4654C5.36941 26.3478 10.5673 30.9681 14.6101 35.2035V13.4491C14.6101 11.9089 15.9577 10.5613 17.4979 10.5613C19.038 10.5613 20.3856 11.9089 20.3856 13.4491V33.6632H22.3108V26.9251C22.3108 25.385 23.6584 24.0373 25.1986 24.0373C26.7386 24.0373 28.0864 25.385 28.0864 26.9251V31.7381H30.0115V28.8503C30.0115 27.3102 31.3591 25.9626 32.8993 25.9626C34.4394 25.9626 35.7871 27.3102 35.7871 28.8503V33.6632H37.7123V32.7007C37.7123 31.1605 39.0598 29.8129 40.6001 29.8129C42.1401 29.8129 43.4878 31.1605 43.4878 32.7007V36.9361H43.4875Z"
				fill-opacity="0.1"/>
		</symbol>

		<symbol viewBox="0 0 61 54" id="icon-sales-team" preserveAspectRatio="xMidYMid meet">
			<path
				d="M60.4644 49.1877L58.0986 40.9638C58.0423 40.7948 57.9296 40.6259 57.817 40.5132C56.3525 36.0633 52.7475 32.6273 48.1849 31.4444L47.5089 31.3317C46.495 31.0501 45.3685 31.3881 44.6362 32.233C42.1578 35.0494 39.0034 35.2747 35.68 35.2747C32.3567 35.2747 29.2023 35.0494 26.7239 32.233C25.9916 31.3881 24.8651 31.0501 23.8511 31.3317L23.1752 31.5007C19.7392 32.402 16.8101 34.5988 14.9513 37.5278H7.85396C7.79763 37.5278 7.79763 37.5278 7.74131 37.4715C7.74131 37.4152 7.68498 37.3588 7.68498 37.2462L9.14951 32.0077C10.4451 27.8957 12.9235 26.6565 17.7677 25.4173C17.993 25.3609 18.162 25.2483 18.2747 25.1356C18.669 25.4736 19.1196 25.7552 19.5702 25.9806C19.7392 26.0932 19.9082 26.0932 20.0772 26.0932C20.4715 26.0932 20.8658 25.8679 21.0911 25.4736C21.3727 24.9103 21.1474 24.2344 20.5841 23.9527C17.993 22.6009 16.1342 18.7706 16.1342 14.8276C16.1342 11.3353 19.0069 8.46252 22.4993 8.46252C23.1752 8.46252 23.7948 8.57517 24.4144 8.74416C23.7948 10.265 23.4568 11.8985 23.4568 13.6447C23.4568 23.2768 29.2586 31.3881 36.1307 31.3881C42.89 31.3881 48.8608 23.1078 48.8608 13.6447C48.8608 6.60369 43.1717 0.914551 36.1307 0.914551C31.6808 0.914551 27.7378 3.224 25.4847 6.71635C24.5271 6.37838 23.5132 6.20939 22.4993 6.20939C19.4576 6.20939 16.7538 7.84291 15.2329 10.265C15.1203 10.1524 15.0076 10.096 14.895 10.0397C14.0501 9.58908 13.2051 9.4201 12.2476 9.4201C9.09318 9.36377 6.55842 11.8985 6.55842 15.0529C6.55842 16.8554 7.06537 18.5452 7.85396 19.8971C5.26287 20.5731 2.95342 21.587 1.88318 25.023L0.981934 28.29C0.812949 28.8533 0.925605 29.4729 1.26357 29.9235C1.60154 30.4305 2.22115 30.7121 2.84076 30.7121H7.17802C7.1217 30.9374 7.00904 31.1627 6.95271 31.3881L5.48818 36.6829C5.26287 37.4152 5.43185 38.2038 5.93881 38.8234C6.38943 39.443 7.06537 39.7809 7.85396 39.7809H13.8247C13.6558 40.1752 13.5431 40.5695 13.4304 40.9638L11.0647 49.2441C10.8394 50.2016 11.0083 51.2155 11.6279 52.0041C12.2476 52.7927 13.1488 53.2434 14.1064 53.2434H47.9032H49.8184H57.4227C58.3803 53.2434 59.3378 52.7927 59.9011 52.0041C60.5207 51.2155 60.7461 50.2016 60.4644 49.1877ZM26.8365 8.91314C26.8929 8.85681 26.9492 8.80049 27.0055 8.68783C27.0618 8.6315 27.0618 8.51885 27.1182 8.46252C28.8643 5.30814 32.244 3.16768 36.1307 3.16768C40.8059 3.16768 44.7489 6.26572 46.1007 10.4903C44.1293 10.8846 42.0451 10.096 40.8059 8.40619C40.4116 7.89924 39.7357 7.78658 39.2287 8.18088C39.0034 8.34986 38.8907 8.51885 38.8344 8.74416C38.7781 8.80049 38.7781 8.85681 38.7218 8.91314C37.1446 12.1238 31.8497 13.4757 25.8226 12.2928C25.9916 11.1099 26.3296 9.98338 26.8365 8.91314ZM29.9909 14.9402C34.4972 14.9402 38.2148 13.532 40.13 10.8846C41.5382 12.1238 43.2843 12.7998 45.1432 12.7998C45.5938 12.7998 46.1007 12.7435 46.5514 12.6308C46.6077 12.9688 46.6077 13.2504 46.6077 13.5884C46.6077 21.8686 41.7072 29.1349 36.1307 29.1349C30.7795 29.1349 26.1043 22.4319 25.71 14.546C27.1745 14.8276 28.639 14.9402 29.9909 14.9402ZM3.29139 28.459L4.07998 25.6426C4.75592 23.3331 6.16412 22.6572 8.98053 21.9813C9.14951 21.9249 9.31849 21.8686 9.43115 21.756C9.71279 21.9813 9.9381 22.1502 10.2761 22.3192C10.4451 22.4319 10.614 22.4319 10.783 22.4319C11.1773 22.4319 11.5716 22.2066 11.7969 21.8123C12.0786 21.249 11.8533 20.5731 11.3463 20.2914C9.88177 19.5028 8.81154 17.306 8.81154 15.0529C8.81154 13.1377 10.3324 11.6169 12.2476 11.6169C12.8672 11.6169 13.3741 11.7295 13.8811 12.0112C14.0501 12.0675 14.1627 12.1238 14.3317 12.1238C14.0501 12.9688 13.8811 13.87 13.8811 14.8276C13.8811 18.0383 14.9513 21.1927 16.6411 23.3895C13.2615 24.2344 10.2761 25.361 8.30459 28.459H3.29139ZM58.155 50.6523C58.0423 50.7649 57.817 50.9902 57.4227 50.9902H49.8184H47.9032H14.1064C13.7121 50.9902 13.4868 50.7649 13.3741 50.6523C13.2051 50.427 13.1488 50.089 13.2051 49.8637L15.5709 41.6398C16.6975 37.7531 19.7955 34.7114 23.7385 33.6975L24.4144 33.5285C24.5834 33.4722 24.8651 33.5849 25.034 33.7538C28.1321 37.3025 31.9624 37.5841 35.68 37.5841C39.3977 37.5841 43.228 37.3025 46.3261 33.7538C46.495 33.5849 46.7204 33.4722 47.002 33.5285L47.6779 33.6975C51.5646 34.7114 54.7189 37.7531 55.8455 41.6398L56.8594 45.1321C56.9157 45.3011 56.9721 45.4138 57.0847 45.5264L58.3239 49.8073C58.3803 50.089 58.3239 50.427 58.155 50.6523Z"
				fill-opacity="0.1"/>
		</symbol>

		<symbol viewBox="0 0 61 61" id="icon-sales-officer" preserveAspectRatio="xMidYMid meet">
			<path
				d="M45.5458 32.9151C43.2707 30.6401 40.5628 28.9559 37.6083 27.9364C40.7726 25.7569 42.8516 22.1095 42.8516 17.9851C42.8516 11.3264 37.4343 5.90918 30.7757 5.90918C24.1171 5.90918 18.6998 11.3264 18.6998 17.9851C18.6998 22.1095 20.7787 25.7569 23.9432 27.9364C20.9887 28.9559 18.2808 30.6401 16.0057 32.9151C12.0605 36.8604 9.8877 42.1058 9.8877 47.6852H13.1514C13.1514 37.9671 21.0576 30.0609 30.7757 30.0609C40.4938 30.0609 48.3999 37.9671 48.3999 47.6852H51.6637C51.6637 42.1058 49.4909 36.8604 45.5458 32.9151ZM30.7757 26.7972C25.9167 26.7972 21.9636 22.8441 21.9636 17.9851C21.9636 13.126 25.9167 9.17293 30.7757 9.17293C35.6347 9.17293 39.5878 13.126 39.5878 17.9851C39.5878 22.8441 35.6347 26.7972 30.7757 26.7972Z"
				fill-opacity="0.1"/>
			<circle cx="30.7755" cy="30.776" r="28.34" fill="none" stroke="black" stroke-opacity="0.1"
					stroke-width="3"/>
		</symbol>

		<symbol viewBox="0 0 6 12" id="icon-right-arrow">
			<path
				d="M5.68903 6.39672L1.64448 11.0077C1.3872 11.3011 0.970061 11.3011 0.712903 11.0077C0.455725 10.7145 0.455725 10.2389 0.712903 9.94574L4.29171 5.86576L0.713007 1.78592C0.455829 1.4926 0.455829 1.0171 0.713007 0.723897C0.970186 0.430576 1.3873 0.430576 1.64459 0.723897L5.68914 5.33491C5.81773 5.48159 5.88195 5.67361 5.88195 5.86574C5.88195 6.05795 5.8176 6.25012 5.68903 6.39672Z"/>
		</symbol>

		<symbol viewBox="0 0 512 512" id="icon-left-arrow">
			<path d="M379.644,477.872l-207.299-207.73c-7.798-7.798-7.798-20.486,0.015-28.299L379.643,34.128
			c7.803-7.819,7.789-20.482-0.029-28.284c-7.819-7.803-20.482-7.79-28.284,0.029L144.061,213.574
			c-23.394,23.394-23.394,61.459-0.015,84.838L351.33,506.127c3.907,3.915,9.031,5.873,14.157,5.873
			c5.111,0,10.224-1.948,14.128-5.844C387.433,498.354,387.446,485.691,379.644,477.872z"/>
		</symbol>
		<symbol viewBox="0 0 29 25" id="icon-list">
			<path
				d="M27.3207 23.8814H8.41717C7.63806 23.8814 7.00659 23.1624 7.00659 22.2752C7.00659 21.388 7.63806 20.6689 8.41717 20.6689H27.3203C28.0994 20.6689 28.7309 21.388 28.7309 22.2752C28.7309 23.1624 28.0999 23.8814 27.3207 23.8814Z"/>
			<path
				d="M27.3207 13.7989H8.41717C7.63806 13.7989 7.00659 13.0799 7.00659 12.1927C7.00659 11.3055 7.63806 10.5864 8.41717 10.5864H27.3203C28.0994 10.5864 28.7309 11.3055 28.7309 12.1927C28.7313 13.0799 28.0999 13.7989 27.3207 13.7989Z"/>
			<path
				d="M27.3207 3.7164H8.41717C7.63806 3.7164 7.00659 2.99734 7.00659 2.11015C7.00659 1.22297 7.63806 0.503906 8.41717 0.503906H27.3203C28.0994 0.503906 28.7309 1.22297 28.7309 2.11015C28.7309 2.99734 28.0999 3.7164 27.3207 3.7164Z"/>
			<path
				d="M2.35583 4.39153C3.40208 4.39153 4.25023 3.42572 4.25023 2.23434C4.25023 1.04296 3.40208 0.0771484 2.35583 0.0771484C1.30958 0.0771484 0.461426 1.04296 0.461426 2.23434C0.461426 3.42572 1.30958 4.39153 2.35583 4.39153Z"/>
			<path
				d="M2.35583 14.3495C3.40208 14.3495 4.25023 13.3837 4.25023 12.1923C4.25023 11.001 3.40208 10.0352 2.35583 10.0352C1.30958 10.0352 0.461426 11.001 0.461426 12.1923C0.461426 13.3837 1.30958 14.3495 2.35583 14.3495Z"/>
			<path
				d="M2.35583 24.308C3.40208 24.308 4.25023 23.3422 4.25023 22.1508C4.25023 20.9595 3.40208 19.9937 2.35583 19.9937C1.30958 19.9937 0.461426 20.9595 0.461426 22.1508C0.461426 23.3422 1.30958 24.308 2.35583 24.308Z"/>
		</symbol>
		<symbol viewBox="0 0 26 25" id="icon-grid">
			<path
				d="M22.8437 24.3079H3.15616C1.90313 24.3079 0.884521 23.2882 0.884521 22.0363V2.34878C0.884521 1.09687 1.90313 0.0771484 3.15616 0.0771484H22.8437C24.0967 0.0771484 25.1153 1.09687 25.1153 2.34878V22.0363C25.1153 23.2882 24.0967 24.3079 22.8437 24.3079ZM3.15616 1.59157C2.73817 1.59157 2.39894 1.93173 2.39894 2.34878V22.0363C2.39894 22.4533 2.73817 22.7935 3.15616 22.7935H22.8437C23.2616 22.7935 23.6009 22.4533 23.6009 22.0363V2.34878C23.6009 1.93173 23.2616 1.59157 22.8437 1.59157H3.15616Z"/>
			<path
				d="M24.3581 12.95H1.64173C1.22375 12.95 0.884521 12.6107 0.884521 12.1928C0.884521 11.7748 1.22375 11.4355 1.64173 11.4355H24.3581C24.7761 11.4355 25.1153 11.7748 25.1153 12.1928C25.1153 12.6107 24.7761 12.95 24.3581 12.95Z"/>
			<path
				d="M12.9999 24.3079C12.5819 24.3079 12.2427 23.9687 12.2427 23.5507V0.83436C12.2427 0.416378 12.5819 0.0771484 12.9999 0.0771484C13.4179 0.0771484 13.7571 0.416378 13.7571 0.83436V23.5507C13.7571 23.9687 13.4179 24.3079 12.9999 24.3079Z"/>
		</symbol>
		<symbol viewBox="0 0 28 18" id="icon-eyes">
			<path
				d="M26.892 7.92207C25.5017 5.53661 23.6324 3.61991 21.2842 2.17201C18.936 0.724059 16.4563 0 13.8449 0C11.2335 0 8.75368 0.723785 6.40541 2.17201C4.05708 3.61991 2.18785 5.53661 0.797767 7.92207C0.599273 8.28661 0.5 8.64602 0.5 9.00027C0.5 9.35453 0.599273 9.71393 0.797767 10.0784C2.18785 12.4639 4.05708 14.3808 6.40541 15.8284C8.75368 17.2765 11.2335 18 13.8449 18C16.4563 18 18.936 17.2789 21.2842 15.8363C23.6324 14.3936 25.502 12.4742 26.892 10.0784C27.0905 9.71393 27.1897 9.3547 27.1897 9.00027C27.1897 8.64602 27.0905 8.28661 26.892 7.92207ZM10.6499 3.64848C11.5385 2.71623 12.6034 2.24995 13.8447 2.24995C14.0432 2.24995 14.2121 2.32306 14.3512 2.46881C14.4901 2.6146 14.5599 2.79176 14.5599 3.00006C14.5599 3.20852 14.4901 3.38556 14.3515 3.53114C14.2126 3.6771 14.0436 3.75 13.8451 3.75C12.9912 3.75 12.2612 4.06786 11.6556 4.70315C11.0498 5.33882 10.7471 6.10437 10.7471 7.00016C10.7471 7.20873 10.6774 7.38567 10.5385 7.53158C10.3993 7.67759 10.2306 7.75044 10.0321 7.75044C9.83337 7.75044 9.66461 7.67743 9.52554 7.53158C9.38641 7.38567 9.31692 7.20852 9.31692 7.00016C9.31692 5.69817 9.76138 4.58078 10.6499 3.64848ZM20.3163 14.1022C18.3255 15.3675 16.1684 16.0005 13.8449 16.0005C11.5214 16.0005 9.36434 15.3679 7.37356 14.1022C5.38279 12.8365 3.72707 11.1359 2.40653 9.00027C3.91576 6.54181 5.80727 4.7031 8.08105 3.48457C7.47539 4.56775 7.17246 5.73977 7.17246 7.00011C7.17246 8.92743 7.82543 10.5755 9.131 11.9455C10.4366 13.3155 12.008 14.0002 13.8449 14.0002C15.6819 14.0002 17.2529 13.3151 18.5587 11.9455C19.8646 10.5759 20.5173 8.92743 20.5173 7.00011C20.5173 5.73977 20.2144 4.56759 19.6086 3.48457C21.8823 4.7031 23.7739 6.54198 25.2831 9.00027C23.9628 11.1359 22.3072 12.8365 20.3163 14.1022Z"/>
		</symbol>
		<symbol viewBox="0 0 14 14" id="icon-plus-thick">
			<path
				d="M12.75 5.75H8.5C8.36194 5.75 8.25 5.63806 8.25 5.5V1.25C8.25 0.559692 7.69031 0 7 0C6.30969 0 5.75 0.559692 5.75 1.25V5.5C5.75 5.63806 5.63806 5.75 5.5 5.75H1.25C0.559692 5.75 0 6.30969 0 7C0 7.69031 0.559692 8.25 1.25 8.25H5.5C5.63806 8.25 5.75 8.36194 5.75 8.5V12.75C5.75 13.4403 6.30969 14 7 14C7.69031 14 8.25 13.4403 8.25 12.75V8.5C8.25 8.36194 8.36194 8.25 8.5 8.25H12.75C13.4403 8.25 14 7.69031 14 7C14 6.30969 13.4403 5.75 12.75 5.75Z"/>
		</symbol>
		<symbol viewBox="0 0 27 4" id="icon-minus">
			<path
				d="M24.7145 0.733276H13.128H2.13054C1.69666 0.733276 0.755859 1.15551 0.755859 1.99994C0.755859 2.84438 1.69671 3.26661 2.13054 3.26661H13.128H24.7146C25.1483 3.26661 26.0892 2.84438 26.0892 1.99994C26.0892 1.15551 25.1483 0.733276 24.7145 0.733276Z"/>
		</symbol>
		<symbol viewBox="0 0 27 27" id="icon-plus">
			<path
				d="M25.0996 12.4326H14.4121V1.74508C14.4121 1.19853 13.9691 0.755493 13.4225 0.755493C12.876 0.755493 12.4329 1.19853 12.4329 1.74508V12.4326H1.74544C1.1989 12.4326 0.755859 12.8756 0.755859 13.4222C0.755859 13.9687 1.1989 14.4117 1.74544 14.4117H12.4329V25.0992C12.4329 25.6458 12.876 26.0888 13.4225 26.0888C13.9691 26.0888 14.4121 25.6458 14.4121 25.0992V14.4117H25.0996C25.6462 14.4117 26.0892 13.9687 26.0892 13.4222C26.0892 12.8756 25.6462 12.4326 25.0996 12.4326Z"/>
		</symbol>
		<symbol viewBox="0 0 20 20" id="icon-disclaimer">
			<path
				d="M10 0C4.48615 0 0 4.48585 0 10C0 15.5142 4.48615 20 10 20C15.5138 20 20 15.5142 20 10C20 4.48585 15.5138 0 10 0ZM10 18.7692C5.16462 18.7692 1.23077 14.8354 1.23077 10C1.23077 5.16462 5.16462 1.23077 10 1.23077C14.8354 1.23077 18.7692 5.16462 18.7692 10C18.7692 14.8354 14.8354 18.7692 10 18.7692Z"/>
			<path
				d="M10.1594 7.04186C10.7278 7.04186 11.1886 6.58106 11.1886 6.01263C11.1886 5.4442 10.7278 4.9834 10.1594 4.9834C9.59093 4.9834 9.13013 5.4442 9.13013 6.01263C9.13013 6.58106 9.59093 7.04186 10.1594 7.04186Z"/>
			<path
				d="M9.88833 8.72058C9.54864 8.72058 9.27295 8.99627 9.27295 9.33597V14.5667C9.27295 14.9064 9.54864 15.1821 9.88833 15.1821C10.228 15.1821 10.5037 14.9064 10.5037 14.5667V9.33597C10.5037 8.99597 10.228 8.72058 9.88833 8.72058Z"/>
		</symbol>
		<symbol viewBox="0 0 13 16" id="icon-lock">
			<path
				d="M5.64672 11.0726L5.41892 12.9636C5.40765 13.0576 5.44042 13.152 5.50884 13.2227C5.57726 13.2933 5.6753 13.3337 5.77791 13.3337H7.22237C7.32498 13.3337 7.42302 13.2933 7.49144 13.2227C7.55986 13.1521 7.59266 13.0576 7.58135 12.9636L7.35355 11.0726C7.72347 10.8242 7.94458 10.4313 7.94458 10.0003C7.94458 9.26499 7.29678 8.66699 6.50012 8.66699C5.70346 8.66699 5.05566 9.26499 5.05566 10.0003C5.05566 10.4313 5.2768 10.8242 5.64672 11.0726ZM6.50012 9.33368C6.89825 9.33368 7.22233 9.63284 7.22233 10.0003C7.22233 10.2559 7.06504 10.4847 6.81185 10.598C6.67396 10.6598 6.59322 10.7946 6.61015 10.9349L6.81892 12.667H6.18135L6.39013 10.9349C6.40706 10.7946 6.32631 10.6598 6.18842 10.598C5.93523 10.4847 5.77794 10.2559 5.77794 10.0003C5.77791 9.63284 6.102 9.33368 6.50012 9.33368Z"/>
			<path
				d="M12.6389 6H11.5555V4.66666C11.5555 2.09344 9.28769 0 6.5 0C3.71231 0 1.44446 2.09344 1.44446 4.66666V6H0.361122C0.161518 6 0 6.14909 0 6.33334V14.6667C0 15.402 0.647799 16 1.44446 16H11.5556C12.3522 16 13 15.402 13 14.6667V6.33334C13 6.14909 12.8385 6 12.6389 6ZM2.16667 4.66666C2.16667 2.46094 4.11047 0.666656 6.5 0.666656C8.88953 0.666656 10.8333 2.46094 10.8333 4.66666V6H10.1111V4.66666C10.1111 2.82875 8.49107 1.33331 6.5 1.33331C4.50893 1.33331 2.88888 2.82878 2.88888 4.66666V6H2.16667V4.66666ZM9.38888 4.66666V6H3.61112V4.66666C3.61112 3.19628 4.90709 2 6.5 2C8.09291 2 9.38888 3.19628 9.38888 4.66666ZM12.2778 14.6667C12.2778 15.0342 11.9537 15.3333 11.5556 15.3333H1.44446C1.04633 15.3333 0.722245 15.0342 0.722245 14.6667V6.66666H12.2778V14.6667Z"/>
		</symbol>
		<symbol viewBox="0 0 14 14" id="icon-info">
			<path
				d="M7 0C3.14031 0 0 3.14009 0 7C0 10.8599 3.14031 14 7 14C10.8597 14 14 10.8599 14 7C14 3.14009 10.8597 0 7 0ZM7 13.1385C3.61523 13.1385 0.861538 10.3848 0.861538 7C0.861538 3.61523 3.61523 0.861538 7 0.861538C10.3848 0.861538 13.1385 3.61523 13.1385 7C13.1385 10.3848 10.3848 13.1385 7 13.1385Z"/>
			<path
				d="M7.11159 4.9292C7.50949 4.9292 7.83205 4.60664 7.83205 4.20874C7.83205 3.81084 7.50949 3.48828 7.11159 3.48828C6.71369 3.48828 6.39113 3.81084 6.39113 4.20874C6.39113 4.60664 6.71369 4.9292 7.11159 4.9292Z"/>
			<path
				d="M6.92181 6.10449C6.68403 6.10449 6.49104 6.29748 6.49104 6.53526V10.1968C6.49104 10.4346 6.68403 10.6276 6.92181 10.6276C7.1596 10.6276 7.35258 10.4346 7.35258 10.1968V6.53526C7.35258 6.29726 7.1596 6.10449 6.92181 6.10449Z"/>
		</symbol>
		<symbol viewBox="0 0 17 15" id="icon-user-group">
			<g clip-path="url(#clip0)">
				<path
					d="M16.24 13.1625L15.595 10.9201C15.5796 10.874 15.5489 10.8279 15.5182 10.7972C15.1188 9.58388 14.1359 8.64699 12.8918 8.32446L12.7075 8.29374C12.4311 8.21695 12.1239 8.3091 11.9242 8.53948C11.2484 9.30742 10.3883 9.36885 9.48218 9.36885C8.57601 9.36885 7.71592 9.30742 7.04013 8.53948C6.84047 8.3091 6.53329 8.21695 6.25683 8.29374L6.07253 8.33982C5.13564 8.58556 4.33699 9.18455 3.83015 9.9832H1.89494C1.87958 9.9832 1.87958 9.9832 1.86422 9.96785C1.86422 9.95249 1.84886 9.93713 1.84886 9.90641L2.24819 8.47805C2.60144 7.35685 3.27723 7.01896 4.59808 6.68107C4.65952 6.66571 4.7056 6.63499 4.73631 6.60427C4.84382 6.69643 4.9667 6.77322 5.08957 6.83466C5.13564 6.86537 5.18172 6.86537 5.22779 6.86537C5.33531 6.86537 5.44282 6.80394 5.50425 6.69643C5.58105 6.54284 5.51961 6.35853 5.36602 6.28174C4.65952 5.91313 4.15268 4.86873 4.15268 3.79362C4.15268 2.84137 4.93598 2.05808 5.88822 2.05808C6.07253 2.05808 6.24147 2.08879 6.41042 2.13487C6.24147 2.54956 6.14932 2.99496 6.14932 3.47108C6.14932 6.09743 7.73128 8.3091 9.60505 8.3091C11.4481 8.3091 13.0761 6.05136 13.0761 3.47108C13.0761 1.55124 11.5249 0 9.60505 0C8.3917 0 7.31659 0.62971 6.70224 1.58195C6.44114 1.4898 6.16468 1.44372 5.88822 1.44372C5.05885 1.44372 4.32163 1.88913 3.90694 2.54956C3.87622 2.51884 3.8455 2.50348 3.81479 2.48812C3.58441 2.36525 3.35402 2.31918 3.09292 2.31918C2.23283 2.30382 1.54169 2.99496 1.54169 3.85505C1.54169 4.34653 1.67992 4.8073 1.89494 5.17591C1.18844 5.36021 0.558726 5.63667 0.266909 6.57356L0.0211689 7.46437C-0.0249074 7.61795 0.00581012 7.7869 0.0979628 7.90977C0.190115 8.048 0.359062 8.12479 0.528009 8.12479H1.71063C1.69528 8.18623 1.66456 8.24766 1.6492 8.3091L1.24987 9.75282C1.18844 9.95249 1.23451 10.1675 1.37274 10.3365C1.49561 10.5054 1.67992 10.5976 1.89494 10.5976H3.52297C3.47689 10.7051 3.44618 10.8126 3.41546 10.9201L2.77039 13.1778C2.70896 13.4389 2.75503 13.7154 2.92398 13.9304C3.09292 14.1454 3.33867 14.2683 3.59976 14.2683H12.815H13.3372H15.4107C15.6718 14.2683 15.9329 14.1454 16.0864 13.9304C16.2554 13.7154 16.3168 13.4389 16.24 13.1625ZM7.07085 2.18095C7.08621 2.16559 7.10157 2.15023 7.11692 2.11951C7.13228 2.10415 7.13228 2.07343 7.14764 2.05808C7.62376 1.19798 8.54529 0.614351 9.60505 0.614351C10.8798 0.614351 11.9549 1.45908 12.3235 2.61099C11.786 2.7185 11.2177 2.50348 10.8798 2.04272C10.7723 1.90449 10.588 1.87377 10.4498 1.98128C10.3883 2.02736 10.3576 2.07343 10.3423 2.13487C10.3269 2.15023 10.3269 2.16559 10.3115 2.18095C9.8815 3.0564 8.43778 3.42501 6.79439 3.10247C6.84047 2.77994 6.93262 2.47276 7.07085 2.18095ZM7.93094 3.82434C9.15964 3.82434 10.1733 3.44037 10.6955 2.7185C11.0795 3.0564 11.5556 3.2407 12.0624 3.2407C12.1853 3.2407 12.3235 3.22534 12.4464 3.19463C12.4618 3.28678 12.4618 3.36357 12.4618 3.45572C12.4618 5.71347 11.1256 7.69475 9.60505 7.69475C8.14596 7.69475 6.87118 5.86705 6.76367 3.71682C7.163 3.79362 7.56233 3.82434 7.93094 3.82434ZM0.650879 7.51044L0.865902 6.7425C1.05021 6.11279 1.43418 5.92849 2.20212 5.74418C2.24819 5.72882 2.29427 5.71347 2.32499 5.68275C2.40178 5.74418 2.46321 5.79026 2.55537 5.83634C2.60144 5.86705 2.64752 5.86705 2.6936 5.86705C2.80111 5.86705 2.90862 5.80562 2.97005 5.69811C3.04685 5.54452 2.98541 5.36021 2.84718 5.28342C2.44786 5.0684 2.15604 4.4694 2.15604 3.85505C2.15604 3.33285 2.57073 2.91817 3.09292 2.91817C3.26187 2.91817 3.4001 2.94889 3.53833 3.02568C3.58441 3.04104 3.61512 3.0564 3.6612 3.0564C3.58441 3.28678 3.53833 3.53252 3.53833 3.79362C3.53833 4.66907 3.83015 5.52916 4.29091 6.12815C3.36938 6.35853 2.55537 6.66571 2.01781 7.51044H0.650879ZM15.6103 13.5618C15.5796 13.5925 15.5182 13.654 15.4107 13.654H13.3372H12.815H3.59976C3.49225 13.654 3.43082 13.5925 3.4001 13.5618C3.35402 13.5004 3.33866 13.4082 3.35402 13.3468L3.99909 11.1044C4.30627 10.0446 5.151 9.21527 6.22612 8.93881L6.41042 8.89273C6.4565 8.87737 6.53329 8.90809 6.57937 8.95417C7.4241 9.92177 8.4685 9.99856 9.48218 9.99856C10.4959 9.99856 11.5403 9.92177 12.385 8.95417C12.4311 8.90809 12.4925 8.87737 12.5693 8.89273L12.7536 8.93881C13.8134 9.21527 14.6734 10.0446 14.9806 11.1044L15.2571 12.0566C15.2724 12.1027 15.2878 12.1334 15.3185 12.1642L15.6564 13.3314C15.6718 13.4082 15.6564 13.5004 15.6103 13.5618Z"/>
			</g>
			<defs>
				<clipPath id="clip0">
					<rect width="16.2727" height="14.32"/>
				</clipPath>
			</defs>
		</symbol>
		<symbol viewBox="0 0 11 16" id="icon-billing">
			<g clip-path="url(#clip0)">
				<path
					d="M10.7149 0H0.289588C0.129647 0 0 0.129676 0 0.289588V14.7692C0 14.8736 0.0561471 14.9698 0.146912 15.0212C0.237706 15.0726 0.349147 15.0711 0.438588 15.0175L1.71956 14.2489L2.72218 15.0009C2.81635 15.0716 2.94388 15.0781 3.04494 15.0175L4.32591 14.2489L5.32853 15.0009C5.42268 15.0716 5.55029 15.0781 5.65129 15.0175L6.93226 14.2489L7.93488 15.0009C8.02906 15.0716 8.15665 15.0781 8.25765 15.0175L9.53862 14.2489L10.5412 15.0009C10.5923 15.0392 10.6535 15.0588 10.715 15.0588C10.7592 15.0588 10.8035 15.0487 10.8445 15.0282C10.9426 14.9792 11.0046 14.8788 11.0046 14.7692V0.289588C11.0045 0.129676 10.8749 0 10.7149 0ZM10.4253 14.19L9.73029 13.6687C9.63609 13.598 9.50847 13.5915 9.40753 13.6521L8.12656 14.4207L7.12394 13.6687C7.07268 13.6303 7.01153 13.6108 6.95015 13.6108C6.89874 13.6108 6.84721 13.6245 6.80118 13.6521L5.52021 14.4207L4.51759 13.6687C4.42338 13.598 4.29579 13.5915 4.19482 13.6521L2.91385 14.4207L1.91124 13.6687C1.81703 13.598 1.68941 13.5915 1.58847 13.6521L0.579118 14.2577V0.579176H10.4253V14.19H10.4253Z"/>
				<path
					d="M3.18592 2.60645H1.73795C1.57804 2.60645 1.44836 2.73612 1.44836 2.89603C1.44836 3.05597 1.57804 3.18562 1.73795 3.18562H3.18592C3.34586 3.18562 3.47551 3.05595 3.47551 2.89603C3.47551 2.73612 3.34583 2.60645 3.18592 2.60645Z"/>
				<path
					d="M8.68801 4.05469H7.24004C7.0801 4.05469 6.95045 4.18436 6.95045 4.34428C6.95045 4.50422 7.08013 4.63386 7.24004 4.63386H8.68801C8.84795 4.63386 8.9776 4.50419 8.9776 4.34428C8.97763 4.18436 8.84795 4.05469 8.68801 4.05469Z"/>
				<path
					d="M8.68801 5.50195H7.24004C7.0801 5.50195 6.95045 5.63163 6.95045 5.79154C6.95045 5.95148 7.08013 6.08113 7.24004 6.08113H8.68801C8.84795 6.08113 8.9776 5.95145 8.9776 5.79154C8.97763 5.6316 8.84795 5.50195 8.68801 5.50195Z"/>
				<path
					d="M8.68801 6.9502H7.24004C7.0801 6.9502 6.95045 7.07987 6.95045 7.23978C6.95045 7.39973 7.08013 7.52937 7.24004 7.52937H8.68801C8.84795 7.52937 8.9776 7.3997 8.9776 7.23978C8.97763 7.07987 8.84795 6.9502 8.68801 6.9502Z"/>
				<path
					d="M8.68801 8.39844H7.24004C7.0801 8.39844 6.95045 8.52811 6.95045 8.68803C6.95045 8.84797 7.08013 8.97761 7.24004 8.97761H8.68801C8.84795 8.97761 8.9776 8.84794 8.9776 8.68803C8.97763 8.52811 8.84795 8.39844 8.68801 8.39844Z"/>
				<path
					d="M8.68801 9.8457H7.24004C7.0801 9.8457 6.95045 9.97538 6.95045 10.1353C6.95045 10.2952 7.08013 10.4249 7.24004 10.4249H8.68801C8.84795 10.4249 8.9776 10.2952 8.9776 10.1353C8.97763 9.97535 8.84795 9.8457 8.68801 9.8457Z"/>
				<path
					d="M5.79225 4.05469H1.73795C1.57804 4.05469 1.44836 4.18436 1.44836 4.34428C1.44836 4.50422 1.57804 4.63386 1.73795 4.63386H5.79225C5.95219 4.63386 6.08183 4.50419 6.08183 4.34428C6.08183 4.18436 5.95219 4.05469 5.79225 4.05469Z"/>
				<path
					d="M5.79225 5.50195H1.73795C1.57804 5.50195 1.44836 5.63163 1.44836 5.79154C1.44836 5.95148 1.57804 6.08113 1.73795 6.08113H5.79225C5.95219 6.08113 6.08183 5.95145 6.08183 5.79154C6.08183 5.6316 5.95219 5.50195 5.79225 5.50195Z"/>
				<path
					d="M5.79225 6.9502H1.73795C1.57804 6.9502 1.44836 7.07987 1.44836 7.23978C1.44836 7.39973 1.57804 7.52937 1.73795 7.52937H5.79225C5.95219 7.52937 6.08183 7.3997 6.08183 7.23978C6.08183 7.07987 5.95219 6.9502 5.79225 6.9502Z"/>
				<path
					d="M5.79225 8.39844H1.73795C1.57804 8.39844 1.44836 8.52811 1.44836 8.68803C1.44836 8.84797 1.57804 8.97761 1.73795 8.97761H5.79225C5.95219 8.97761 6.08183 8.84794 6.08183 8.68803C6.08183 8.52811 5.95219 8.39844 5.79225 8.39844Z"/>
				<path
					d="M5.79225 9.8457H1.73795C1.57804 9.8457 1.44836 9.97538 1.44836 10.1353C1.44836 10.2952 1.57804 10.4249 1.73795 10.4249H5.79225C5.95219 10.4249 6.08183 10.2952 6.08183 10.1353C6.08183 9.97535 5.95219 9.8457 5.79225 9.8457Z"/>
			</g>
			<defs>
				<clipPath id="clip0">
					<rect width="11" height="15.0588"/>
				</clipPath>
			</defs>
		</symbol>
		<symbol viewBox="0 0 29 29" id="icon-migrate">
			<path
				d="M23.0527 13.6504C20.7105 13.6504 18.8047 15.5562 18.8047 17.8984C18.8047 20.2407 20.7105 22.1465 23.0527 22.1465C25.395 22.1465 27.3008 20.2407 27.3008 17.8984C27.3008 15.5562 25.395 13.6504 23.0527 13.6504Z"
				fill="white"/>
			<path
				d="M5.94727 0C3.60501 0 1.69922 1.96243 1.69922 4.30469C1.69922 6.64695 3.60501 8.55273 5.94727 8.55273C8.28953 8.55273 10.1953 6.64695 10.1953 4.30469C10.1953 1.96243 8.28953 0 5.94727 0Z"
				fill="white"/>
			<path
				d="M27.217 7.33473C27.0751 7.04105 26.778 6.85352 26.4512 6.85352H25.5543C25.1303 3.03526 21.8845 0 17.9551 0H14.5C14.0304 0 13.6504 0.380002 13.6504 0.849609C13.6504 1.31922 14.0304 1.69922 14.5 1.69922C17.4911 1.69922 20.0302 3.97532 20.4434 6.85352H19.6543C19.3274 6.85352 19.0303 7.04105 18.8885 7.33473C18.7474 7.62927 18.7864 7.97857 18.9905 8.23413L22.389 12.4822C22.5507 12.6838 22.7947 12.8008 23.0527 12.8008C23.3108 12.8008 23.5547 12.6838 23.7165 12.4822L27.1149 8.23413C27.3191 7.97857 27.358 7.62927 27.217 7.33473Z"
				fill="white"/>
			<path
				d="M14.5 27.3007C11.5089 27.3007 8.96985 25.0246 8.55666 22.1464H9.34572C9.67259 22.1464 9.96967 21.9589 10.1116 21.6652C10.2526 21.3707 10.2136 21.0214 10.0095 20.7658L6.61105 16.5178C6.28747 16.1145 5.6071 16.1145 5.28351 16.5178L1.88508 20.7658C1.68094 21.0214 1.64198 21.3707 1.78301 21.6652C1.9249 21.9589 2.22197 22.1464 2.54885 22.1464H3.44575C3.86971 25.9647 7.1155 28.9999 11.0449 28.9999H14.5C14.9696 28.9999 15.3496 28.6199 15.3496 28.1503C15.3496 27.6807 14.9696 27.3007 14.5 27.3007Z"
				fill="white"/>
			<path
				d="M27.2017 22.1465C26.1291 23.1943 24.6669 23.8457 23.0527 23.8457C21.4385 23.8457 19.9764 23.1943 18.9038 22.1465C17.7974 23.2272 17.1055 24.7864 17.1055 26.4512V28.1504C17.1055 28.62 17.4855 29 17.9551 29H28.1504C28.62 29 29 28.62 29 28.1504V26.4512C29 24.7864 28.308 23.2272 27.2017 22.1465Z"
				fill="white"/>
			<path
				d="M10.0962 8.55273C9.02353 9.60053 7.56141 10.252 5.94727 10.252C4.33312 10.252 2.87094 9.60053 1.79828 8.55273C0.691979 9.63344 0 11.136 0 12.8008V14.5C0 14.9696 0.380002 15.3496 0.849609 15.3496H11.0449C11.5145 15.3496 11.8945 14.9696 11.8945 14.5V12.8008C11.8945 11.136 11.2026 9.63344 10.0962 8.55273Z"
				fill="white"/>
		</symbol>

		<symbol viewBox="0 0 17 21" id="icon-clipboard">
			<path
				d="M10.9836 3.67188H1.59627C0.715425 3.67188 0 4.41589 0 5.33193V19.3392C0 20.2552 0.715425 20.9992 1.59627 20.9992H10.9836C11.8645 20.9992 12.5799 20.2552 12.5799 19.3392V5.33193C12.5758 4.41589 11.8603 3.67188 10.9836 3.67188ZM11.4592 19.3349C11.4592 19.6101 11.2442 19.8337 10.9795 19.8337H1.59213C1.32746 19.8337 1.11242 19.6101 1.11242 19.3349V5.33193C1.11242 5.05669 1.32746 4.83305 1.59213 4.83305H10.9795C11.2442 4.83305 11.4592 5.05669 11.4592 5.33193V19.3349Z"/>
			<path
				d="M14.5732 0H5.18586C4.30502 0 3.5896 0.74401 3.5896 1.66005C3.5896 1.98259 3.83772 2.24063 4.14788 2.24063C4.45803 2.24063 4.70615 1.98259 4.70615 1.66005C4.70615 1.38481 4.92119 1.16117 5.18586 1.16117H14.5732C14.8378 1.16117 15.0529 1.38481 15.0529 1.66005V15.6672C15.0529 15.9425 14.8378 16.1661 14.5732 16.1661C14.263 16.1661 14.0149 16.4241 14.0149 16.7467C14.0149 17.0692 14.263 17.3273 14.5732 17.3273C15.454 17.3273 16.1694 16.5833 16.1694 15.6672V1.66005C16.1694 0.74401 15.454 0 14.5732 0Z"/>
		</symbol>

		<symbol viewBox="0 0 22 22" id="icon-warning">
			<g clip-path="url(#clip0)">
				<path d="M21.5951 17.0381L13.823 1.80745C13.2429 0.686529 12.1858 0 11 0C9.81416 0 8.75707 0.686529 8.17699 1.80745L0.40485 17.0381C-0.149548 18.1309 -0.136623 19.4341 0.456379 20.5129C1.03646 21.5918 2.08063 22.2364 3.22786 22.2364H18.7721C19.9194 22.2364 20.9635 21.5918 21.5436 20.5129C22.1366 19.4341 22.1495 18.1309 21.5951 17.0381Z" fill="#FDBF00"/>
				<path d="M21.5436 20.5129C20.9635 21.5918 19.9195 22.2364 18.7721 22.2364H11V0C12.1858 0 13.2429 0.686529 13.823 1.80745L21.5951 17.0381C22.1495 18.1309 22.1366 19.4341 21.5436 20.5129Z" fill="#FF9F00"/>
				<path d="M9.06641 4.02148V14.5301H12.9336V4.02148H9.06641Z" fill="#5A5A5A"/>
				<path d="M11 15.9316C9.92998 15.9316 9.06641 16.8703 9.06641 18.0334C9.06641 19.1963 9.92998 20.1351 11 20.1351C12.07 20.1351 12.9336 19.1963 12.9336 18.0334C12.9336 16.8703 12.07 15.9316 11 15.9316Z" fill="#5A5A5A"/>
				<path d="M12.9336 18.0334C12.9336 19.1963 12.07 20.1351 11 20.1351V15.9316C12.07 15.9316 12.9336 16.8703 12.9336 18.0334Z" fill="#444444"/>
				<path d="M11 4.02148H12.9336V14.5301H11V4.02148Z" fill="#444444"/>
			</g>
			<defs>
				<clipPath id="clip0">
					<rect width="22" height="22" fill="white"/>
				</clipPath>
			</defs>
		</symbol>
		<symbol viewBox="0 0 14 14" id="icon-filter">
			<path d="M13.4525 0H0.546876C0.244813 0 0 0.244813 0 0.546876C0 2.0698 0.652834 3.52372 1.79113 4.53555L4.18617 6.66431C4.60145 7.03345 4.83964 7.56388 4.83964 8.11962V13.4525C4.83964 13.8883 5.3267 14.1496 5.68976 13.9074L8.91622 11.7566C9.06832 11.6551 9.15975 11.4844 9.15975 11.3015V8.11962C9.15975 7.56388 9.39794 7.03345 9.81323 6.66431L12.2082 4.53555C13.3465 3.52372 13.9993 2.0698 13.9993 0.546876C13.9993 0.244813 13.7545 0 13.4525 0ZM11.4815 3.71801L9.08659 5.84688C8.43802 6.42345 8.066 7.25177 8.066 8.11951V11.0089L5.93329 12.4306V8.11962C5.93329 7.25177 5.56126 6.42345 4.9127 5.84688L2.51777 3.71812C1.75022 3.0357 1.26027 2.10067 1.12911 1.09365H12.8702C12.739 2.10067 12.2492 3.0357 11.4815 3.71801Z"/>
		</symbol>
		<symbol viewBox="0 0 17 14" id="icon-graph">
			<path d="M1.11768 11.03V13.7019C1.11768 13.8645 1.24975 13.9999 1.41569 13.9999H3.48145C3.644 13.9999 3.77946 13.8679 3.77946 13.7019V9.00146L2.27924 10.5017C1.96091 10.8166 1.55453 10.9995 1.11768 11.03Z" />
			<path d="M4.80908 8.96729V13.7016C4.80908 13.8642 4.94116 13.9996 5.10709 13.9996H7.17285C7.3354 13.9996 7.47086 13.8675 7.47086 13.7016V10.9145C7.00014 10.9044 6.5599 10.7181 6.22802 10.3862L4.80908 8.96729Z" />
			<path d="M8.50049 10.6198V13.7015C8.50049 13.8641 8.63256 13.9996 8.7985 13.9996H10.8643C11.0268 13.9996 11.1623 13.8675 11.1623 13.7015V8.01562L8.79511 10.3828C8.70368 10.4742 8.60547 10.5521 8.50049 10.6198Z" />
			<path d="M14.6539 4.521L12.1919 6.98298V13.7018C12.1919 13.8643 12.324 13.9998 12.4899 13.9998H14.5557C14.7182 13.9998 14.8537 13.8677 14.8537 13.7018V4.70725C14.7859 4.64968 14.7351 4.59888 14.6979 4.56502L14.6539 4.521Z" />
			<path d="M16.3432 0.159165C16.245 0.0541838 16.096 0 15.9063 0C15.8894 0 15.8691 0 15.8522 0C14.8904 0.0440244 13.932 0.0914353 12.9703 0.13546C12.8416 0.142233 12.6655 0.149006 12.5266 0.287852C12.4826 0.331876 12.4487 0.382673 12.4216 0.44363C12.2794 0.751801 12.4792 0.951604 12.574 1.04643L12.8145 1.29025C12.9804 1.45958 13.1497 1.6289 13.3191 1.79484L7.50785 7.60945L4.89687 4.99846C4.74109 4.84268 4.53113 4.75463 4.30762 4.75463C4.08411 4.75463 3.87753 4.84268 3.72175 4.99846L0.243827 8.473C-0.0812758 8.7981 -0.0812758 9.32301 0.243827 9.64811L0.399606 9.80389C0.555385 9.95967 0.765347 10.0477 0.988855 10.0477C1.21236 10.0477 1.41894 9.95967 1.57472 9.80389L4.30762 7.07099L6.9186 9.68198C7.07438 9.83776 7.28434 9.92581 7.50785 9.92581C7.73136 9.92581 7.93794 9.83776 8.0971 9.68198L14.6533 3.12573L15.395 3.86399C15.483 3.95203 15.605 4.07395 15.7912 4.07395C15.8691 4.07395 15.947 4.05363 16.0283 4.00961C16.0824 3.97913 16.1299 3.94526 16.1705 3.90462C16.3161 3.759 16.3432 3.57275 16.35 3.42713C16.3771 2.80401 16.4075 2.1809 16.438 1.5544L16.4821 0.616341C16.4922 0.419925 16.4482 0.267533 16.3432 0.159165Z" />
		</symbol>
		<symbol viewBox="0 0 15 16" id="icon-whatsapp">
			<path d="M12.7834 2.18036C11.373 0.775167 9.49662 0.000801859 7.49966 0C5.50716 0 3.62783 0.773678 2.20809 2.17853C0.78582 3.58579 0.00183282 5.45595 0 7.43768V7.43998V7.44135C0.000229102 8.64081 0.315359 9.85082 0.913545 10.9553L0.0205046 15.0144L4.12636 14.0805C5.16625 14.6046 6.32654 14.8809 7.49679 14.8813H7.49977C9.49193 14.8813 11.3713 14.1075 12.7912 12.7026C14.2148 11.2942 14.9991 9.4264 15 7.44341C15.0006 5.47439 14.2135 3.60526 12.7834 2.18036ZM7.49966 13.7095H7.49702C6.44625 13.709 5.40509 13.4452 4.48628 12.9463L4.29211 12.8409L1.5619 13.4619L2.15493 10.7668L2.04061 10.5696C1.47221 9.58941 1.17186 8.50736 1.17186 7.44009C1.17403 3.98557 4.01238 1.17186 7.49943 1.17186C9.18402 1.17254 10.7669 1.8256 11.9564 3.01052C13.1639 4.21376 13.8286 5.78792 13.828 7.44307C13.8267 10.8984 10.9877 13.7095 7.49966 13.7095Z" />
			<path d="M5.45891 4.16016H5.13014C5.01571 4.16016 4.82991 4.203 4.67274 4.37402C4.51546 4.54516 4.07227 4.95881 4.07227 5.80007C4.07227 6.64133 4.68706 7.45419 4.77275 7.56839C4.85854 7.68249 5.95949 9.46398 7.70319 10.1493C9.15238 10.7189 9.44734 10.6056 9.76179 10.5771C10.0763 10.5487 10.7768 10.1635 10.9198 9.76434C11.0627 9.36513 11.0627 9.02285 11.0199 8.95137C10.9769 8.88012 10.8625 8.83739 10.691 8.75193C10.5194 8.66637 9.67862 8.24573 9.52134 8.18857C9.36407 8.13164 9.24974 8.10312 9.13531 8.27437C9.02087 8.44528 8.68398 8.84071 8.58386 8.9548C8.48386 9.06901 8.38374 9.08333 8.21214 8.99776C8.04054 8.91196 7.49368 8.72822 6.83833 8.14585C6.32823 7.69257 5.97427 7.11454 5.87415 6.9434C5.77415 6.77238 5.8635 6.67982 5.94953 6.59448C6.02662 6.51796 6.13075 6.41326 6.21655 6.31349C6.30223 6.2136 6.32663 6.14235 6.38391 6.02825C6.44107 5.91416 6.41243 5.81427 6.36959 5.72882C6.32663 5.64325 5.99741 4.79775 5.84483 4.45959H5.84494C5.71642 4.17482 5.58113 4.1652 5.45891 4.16016Z" />
		</symbol>
		<symbol viewBox="0 0 15 15" id="icon-phone">
			<path d="M11.4041 9.92283C10.914 9.43901 10.3022 9.43901 9.8153 9.92283C9.44385 10.2912 9.0724 10.6595 8.70719 11.0341C8.6073 11.1371 8.52302 11.1589 8.40129 11.0902C8.16094 10.9591 7.90498 10.853 7.67399 10.7094C6.5971 10.0321 5.695 9.1612 4.89592 8.18107C4.49949 7.69413 4.14677 7.17285 3.90018 6.58602C3.85024 6.4674 3.8596 6.38937 3.95636 6.2926C4.32782 5.93364 4.6899 5.56531 5.05511 5.19698C5.5639 4.68506 5.5639 4.08575 5.05199 3.57071C4.76169 3.2773 4.4714 2.99012 4.18111 2.69671C3.88145 2.39705 3.58491 2.09427 3.28213 1.79774C2.79207 1.32016 2.18027 1.32016 1.69332 1.80086C1.31875 2.16919 0.959787 2.54688 0.578972 2.90897C0.22625 3.24296 0.048328 3.65187 0.0108708 4.12945C-0.0484365 4.90669 0.141971 5.64022 0.410414 6.35503C0.959787 7.83459 1.79633 9.14872 2.8108 10.3536C4.18111 11.983 5.81674 13.2721 7.73018 14.2023C8.59169 14.6206 9.48443 14.9421 10.4552 14.9952C11.1232 15.0326 11.7038 14.8641 12.1689 14.3428C12.4872 13.9869 12.8462 13.6623 13.1833 13.3221C13.6828 12.8164 13.6859 12.2046 13.1896 11.7052C12.5965 11.109 12.0003 10.5159 11.4041 9.92283Z" />
			<path d="M10.808 7.43526L11.9598 7.23861C11.7787 6.18045 11.2793 5.22216 10.5208 4.46053C9.71857 3.65833 8.7041 3.15265 7.58663 2.99658L7.42432 4.15463C8.28895 4.27637 9.07555 4.66655 9.69672 5.28771C10.2836 5.87454 10.6675 6.61745 10.808 7.43526Z" />
			<path d="M12.6089 2.42848C11.2792 1.09875 9.59672 0.259079 7.73946 0L7.57715 1.15805C9.18157 1.3828 10.6362 2.11009 11.7848 3.25566C12.8742 4.34504 13.589 5.72159 13.8481 7.23549L14.9999 7.03884C14.6971 5.28459 13.87 3.69266 12.6089 2.42848Z" />
		</symbol>

		<symbol viewBox="0 0 15 12" id="icon-email">
			<path d="M1.4397 3.63279C1.62945 3.76669 2.20142 4.16436 3.15564 4.82561C4.10989 5.48685 4.84091 5.99599 5.34873 6.35306C5.40452 6.3922 5.52306 6.47728 5.70439 6.60842C5.88575 6.73965 6.03645 6.84569 6.15636 6.92658C6.27636 7.00744 6.42143 7.09815 6.59171 7.19856C6.76193 7.29889 6.92239 7.37436 7.07305 7.42431C7.22375 7.47468 7.36324 7.49963 7.49157 7.49963H7.49999H7.50843C7.63675 7.49963 7.77631 7.47465 7.927 7.42431C8.07761 7.37436 8.23822 7.2988 8.40829 7.19856C8.57846 7.09803 8.72352 7.00741 8.84352 6.92658C8.96352 6.84569 9.1141 6.73965 9.29552 6.60842C9.47683 6.47716 9.59551 6.3922 9.6513 6.35306C10.1646 5.99599 11.4705 5.08915 13.5687 3.63262C13.976 3.34814 14.3163 3.00488 14.5897 2.60308C14.8633 2.20145 15 1.78012 15 1.33932C15 0.970961 14.8674 0.655644 14.6023 0.393392C14.3372 0.131082 14.0233 0 13.6607 0H1.33923C0.909569 0 0.578918 0.145067 0.347333 0.4352C0.115778 0.725392 0 1.08812 0 1.52335C0 1.8749 0.15351 2.25586 0.460384 2.666C0.767229 3.07616 1.09378 3.39845 1.4397 3.63279Z" />
			<path d="M14.1628 4.5285C12.3327 5.76722 10.943 6.72992 9.99444 7.41637C9.67636 7.65066 9.41833 7.83354 9.22017 7.9646C9.02201 8.09574 8.75847 8.22966 8.42917 8.36631C8.09998 8.50317 7.7932 8.5714 7.50855 8.5714H7.50001H7.4916C7.20701 8.5714 6.90005 8.50317 6.57086 8.36631C6.24168 8.22966 5.97796 8.09574 5.77985 7.9646C5.58181 7.83354 5.32369 7.65066 5.00565 7.41637C4.25226 6.86396 2.86556 5.90121 0.845509 4.5285C0.527347 4.31659 0.24554 4.07369 0 3.80029V10.4463C0 10.8148 0.131082 11.13 0.393392 11.3922C0.655644 11.6546 0.970991 11.7858 1.33932 11.7858H13.6608C14.029 11.7858 14.3443 11.6546 14.6066 11.3922C14.869 11.1299 15 10.8149 15 10.4463V3.80029C14.76 4.06803 14.4811 4.31093 14.1628 4.5285Z" />
		</symbol>
		<symbol viewBox="0 0 41 35" id="icon-home">
			<path d="M19.4712 8.85193L6.66771 20.4186V32.9024C6.66771 33.2257 6.78477 33.5357 6.99314 33.7642C7.20152 33.9928 7.48413 34.1212 7.77882 34.1212L15.5608 34.0991C15.8545 34.0975 16.1357 33.9684 16.3428 33.74C16.55 33.5116 16.6663 33.2025 16.6663 32.8804V25.5899C16.6663 25.2667 16.7834 24.9567 16.9918 24.7282C17.2001 24.4996 17.4827 24.3712 17.7774 24.3712H22.2219C22.5166 24.3712 22.7992 24.4996 23.0075 24.7282C23.2159 24.9567 23.333 25.2667 23.333 25.5899V32.875C23.3325 33.0354 23.3609 33.1943 23.4166 33.3426C23.4722 33.4909 23.554 33.6257 23.6572 33.7393C23.7604 33.8528 23.8831 33.943 24.0181 34.0044C24.1531 34.0659 24.2979 34.0976 24.4441 34.0976L32.2233 34.1212C32.5179 34.1212 32.8006 33.9928 33.0089 33.7642C33.2173 33.5357 33.3344 33.2257 33.3344 32.9024V20.4103L20.5337 8.85193C20.3832 8.71888 20.1957 8.64632 20.0024 8.64632C19.8091 8.64632 19.6217 8.71888 19.4712 8.85193ZM39.6955 16.7136L33.8899 11.4646V0.914062C33.8899 0.671638 33.8021 0.439143 33.6458 0.267723C33.4896 0.0963029 33.2776 0 33.0566 0H29.1677C28.9467 0 28.7347 0.0963029 28.5784 0.267723C28.4222 0.439143 28.3344 0.671638 28.3344 0.914062V6.4449L22.117 0.834082C21.5204 0.295531 20.7717 0.00107657 19.999 0.00107657C19.2263 0.00107657 18.4776 0.295531 17.8809 0.834082L0.30243 16.7136C0.218046 16.7901 0.148232 16.8841 0.0969763 16.9902C0.0457207 17.0963 0.0140283 17.2125 0.00370983 17.332C-0.00660865 17.4516 0.00464907 17.5722 0.0368397 17.687C0.0690304 17.8017 0.121523 17.9084 0.191319 18.0009L1.96215 20.3623C2.03176 20.4551 2.11737 20.532 2.21409 20.5885C2.31082 20.645 2.41675 20.68 2.52583 20.6915C2.6349 20.703 2.74498 20.6909 2.84976 20.6557C2.95454 20.6205 3.05197 20.563 3.13646 20.4864L19.4712 5.72889C19.6217 5.59583 19.8091 5.52328 20.0024 5.52328C20.1957 5.52328 20.3832 5.59583 20.5337 5.72889L36.8691 20.4864C36.9534 20.563 37.0507 20.6206 37.1553 20.6559C37.26 20.6912 37.3699 20.7035 37.4789 20.6922C37.5879 20.6809 37.6938 20.6461 37.7905 20.5899C37.8873 20.5337 37.973 20.4571 38.0427 20.3646L39.8135 18.0032C39.8833 17.9102 39.9355 17.8029 39.9673 17.6877C39.9992 17.5724 40.0099 17.4513 39.9989 17.3315C39.9879 17.2117 39.9555 17.0954 39.9034 16.9894C39.8513 16.8833 39.7807 16.7896 39.6955 16.7136Z"/>
		</symbol>


	</defs>
</svg>

