<svg height="512pt" viewBox="0 -56 512 512" width="512pt" xmlns="http://www.w3.org/2000/svg">
<path d="m482 0h-452c-16.539062 0-30 13.460938-30 30v260c0 16.539062 13.460938 30 30 30h191v20h-101c-11.03125 0-20 8.96875-20 20v20c0 11.03125 8.96875 20 20 20h272c11.03125 0 20-8.96875 20-20v-20c0-11.03125-8.96875-20-20-20h-101v-20h191c16.539062 0 30-13.460938 30-30v-260c0-16.539062-13.460938-30-30-30zm-241 320h30v20h-30zm151 40 .011719 20s0 0-.011719 0h-272v-20zm100-70c0 5.519531-4.488281 10-10 10h-452c-5.511719 0-10-4.480469-10-10v-260c0-5.511719 4.488281-10 10-10h452c5.511719 0 10 4.488281 10 10zm0 0"/>
<path d="m226.5 205c-1.707031 0-3.414062-.4375-4.949219-1.3125-3.121093-1.777344-5.050781-5.09375-5.050781-8.6875v-70c0-3.59375 1.929688-6.910156 5.050781-8.6875 3.121094-1.78125 6.960938-1.746094 10.050781.085938l59 35c3.035157 1.804687 4.898438 5.070312 4.898438 8.601562s-1.863281 6.800781-4.898438 8.601562l-59 35c-1.570312.929688-3.335937 1.398438-5.101562 1.398438zm10-62.441406v34.882812l29.398438-17.441406zm0 0"/>
<path d="m441 51h-370c-11.03125 0-20 8.96875-20 20v178c0 11.03125 8.96875 20 20 20h370c11.03125 0 20-8.96875 20-20v-178c0-11.03125-8.96875-20-20-20zm0 198h-370v-29.25h70c5.519531 0 10-4.480469 10-10s-4.480469-10-10-10h-70v-128.75h370zm0 0"/>
<path d="m181.019531 219.75c-5.523437 0-10.003906-4.476562-10.003906-10s4.472656-10 9.996094-10h.007812c5.523438 0 10 4.476562 10 10s-4.476562 10-10 10zm0 0"/>
</svg>